%TF.GenerationSoftware,KiCad,Pcbnew,8.0.4*%
%TF.CreationDate,2025-01-19T21:14:29+01:00*%
%TF.ProjectId,PortableVoltageStandard,506f7274-6162-46c6-9556-6f6c74616765,1.0*%
%TF.SameCoordinates,Original*%
%TF.FileFunction,Legend,Bot*%
%TF.FilePolarity,Positive*%
%FSLAX46Y46*%
G04 Gerber Fmt 4.6, Leading zero omitted, Abs format (unit mm)*
G04 Created by KiCad (PCBNEW 8.0.4) date 2025-01-19 21:14:29*
%MOMM*%
%LPD*%
G01*
G04 APERTURE LIST*
%ADD10C,0.200000*%
G04 APERTURE END LIST*
D10*
X165000000Y-100500000D02*
G75*
G02*
X166000000Y-101500000I0J-1000000D01*
G01*
X134500000Y-110375000D02*
G75*
G02*
X135500000Y-109375000I1000000J0D01*
G01*
X135500000Y-109375000D02*
X165000000Y-109375000D01*
X166000000Y-101500000D02*
X166000000Y-107500000D01*
X165000000Y-109375000D02*
G75*
G02*
X166000000Y-110375000I0J-1000000D01*
G01*
X166000000Y-116375000D02*
G75*
G02*
X165000000Y-117375000I-1000000J0D01*
G01*
X134500000Y-101500000D02*
G75*
G02*
X135500000Y-100500000I1000000J0D01*
G01*
X134500000Y-107500000D02*
X134500000Y-101500000D01*
X166000000Y-110375000D02*
X166000000Y-116375000D01*
X166000000Y-107500000D02*
G75*
G02*
X165000000Y-108500000I-1000000J0D01*
G01*
X135500000Y-100500000D02*
X165000000Y-100500000D01*
X135500000Y-108500000D02*
G75*
G02*
X134500000Y-107500000I0J1000000D01*
G01*
X135500000Y-117375000D02*
G75*
G02*
X134500000Y-116375000I0J1000000D01*
G01*
X165000000Y-117375000D02*
X135500000Y-117375000D01*
X165000000Y-108500000D02*
X135500000Y-108500000D01*
X134500000Y-116375000D02*
X134500000Y-110375000D01*
X173417293Y-111345070D02*
X173131579Y-111345070D01*
X173131579Y-111345070D02*
X172997650Y-111416499D01*
X172997650Y-111416499D02*
X172872650Y-111559356D01*
X172872650Y-111559356D02*
X172836936Y-111845070D01*
X172836936Y-111845070D02*
X172899436Y-112345070D01*
X172899436Y-112345070D02*
X173006579Y-112630784D01*
X173006579Y-112630784D02*
X173167293Y-112773642D01*
X173167293Y-112773642D02*
X173319079Y-112845070D01*
X173319079Y-112845070D02*
X173604793Y-112845070D01*
X173604793Y-112845070D02*
X173738722Y-112773642D01*
X173738722Y-112773642D02*
X173863722Y-112630784D01*
X173863722Y-112630784D02*
X173899436Y-112345070D01*
X173899436Y-112345070D02*
X173836936Y-111845070D01*
X173836936Y-111845070D02*
X173729793Y-111559356D01*
X173729793Y-111559356D02*
X173569079Y-111416499D01*
X173569079Y-111416499D02*
X173417293Y-111345070D01*
X171551221Y-111845070D02*
X171676221Y-112845070D01*
X172194078Y-111845070D02*
X172292293Y-112630784D01*
X172292293Y-112630784D02*
X172238721Y-112773642D01*
X172238721Y-112773642D02*
X172104793Y-112845070D01*
X172104793Y-112845070D02*
X171890507Y-112845070D01*
X171890507Y-112845070D02*
X171738721Y-112773642D01*
X171738721Y-112773642D02*
X171658364Y-112702213D01*
X171051221Y-111845070D02*
X170479792Y-111845070D01*
X170774435Y-111345070D02*
X170935150Y-112630784D01*
X170935150Y-112630784D02*
X170881578Y-112773642D01*
X170881578Y-112773642D02*
X170747650Y-112845070D01*
X170747650Y-112845070D02*
X170604792Y-112845070D01*
X169979792Y-111845070D02*
X170167292Y-113345070D01*
X169988721Y-111916499D02*
X169836935Y-111845070D01*
X169836935Y-111845070D02*
X169551221Y-111845070D01*
X169551221Y-111845070D02*
X169417292Y-111916499D01*
X169417292Y-111916499D02*
X169354792Y-111987927D01*
X169354792Y-111987927D02*
X169301221Y-112130784D01*
X169301221Y-112130784D02*
X169354792Y-112559356D01*
X169354792Y-112559356D02*
X169444078Y-112702213D01*
X169444078Y-112702213D02*
X169524435Y-112773642D01*
X169524435Y-112773642D02*
X169676221Y-112845070D01*
X169676221Y-112845070D02*
X169961935Y-112845070D01*
X169961935Y-112845070D02*
X170095864Y-112773642D01*
X167979792Y-111845070D02*
X168104792Y-112845070D01*
X168622649Y-111845070D02*
X168720864Y-112630784D01*
X168720864Y-112630784D02*
X168667292Y-112773642D01*
X168667292Y-112773642D02*
X168533364Y-112845070D01*
X168533364Y-112845070D02*
X168319078Y-112845070D01*
X168319078Y-112845070D02*
X168167292Y-112773642D01*
X168167292Y-112773642D02*
X168086935Y-112702213D01*
X167479792Y-111845070D02*
X166908363Y-111845070D01*
X167203006Y-111345070D02*
X167363721Y-112630784D01*
X167363721Y-112630784D02*
X167310149Y-112773642D01*
X167310149Y-112773642D02*
X167176221Y-112845070D01*
X167176221Y-112845070D02*
X167033363Y-112845070D01*
X175560149Y-113759986D02*
X175247649Y-115259986D01*
X175247649Y-115259986D02*
X174560149Y-113759986D01*
X174033364Y-115259986D02*
X174167292Y-115188558D01*
X174167292Y-115188558D02*
X174229792Y-115117129D01*
X174229792Y-115117129D02*
X174283364Y-114974272D01*
X174283364Y-114974272D02*
X174229792Y-114545700D01*
X174229792Y-114545700D02*
X174140506Y-114402843D01*
X174140506Y-114402843D02*
X174060149Y-114331415D01*
X174060149Y-114331415D02*
X173908364Y-114259986D01*
X173908364Y-114259986D02*
X173694078Y-114259986D01*
X173694078Y-114259986D02*
X173560149Y-114331415D01*
X173560149Y-114331415D02*
X173497649Y-114402843D01*
X173497649Y-114402843D02*
X173444078Y-114545700D01*
X173444078Y-114545700D02*
X173497649Y-114974272D01*
X173497649Y-114974272D02*
X173586935Y-115117129D01*
X173586935Y-115117129D02*
X173667292Y-115188558D01*
X173667292Y-115188558D02*
X173819078Y-115259986D01*
X173819078Y-115259986D02*
X174033364Y-115259986D01*
X172676221Y-115259986D02*
X172810149Y-115188558D01*
X172810149Y-115188558D02*
X172863721Y-115045700D01*
X172863721Y-115045700D02*
X172703006Y-113759986D01*
X172194078Y-114259986D02*
X171622649Y-114259986D01*
X171917292Y-113759986D02*
X172078007Y-115045700D01*
X172078007Y-115045700D02*
X172024435Y-115188558D01*
X172024435Y-115188558D02*
X171890507Y-115259986D01*
X171890507Y-115259986D02*
X171747649Y-115259986D01*
X170604792Y-115259986D02*
X170506578Y-114474272D01*
X170506578Y-114474272D02*
X170560149Y-114331415D01*
X170560149Y-114331415D02*
X170694078Y-114259986D01*
X170694078Y-114259986D02*
X170979792Y-114259986D01*
X170979792Y-114259986D02*
X171131578Y-114331415D01*
X170595864Y-115188558D02*
X170747649Y-115259986D01*
X170747649Y-115259986D02*
X171104792Y-115259986D01*
X171104792Y-115259986D02*
X171238721Y-115188558D01*
X171238721Y-115188558D02*
X171292292Y-115045700D01*
X171292292Y-115045700D02*
X171274435Y-114902843D01*
X171274435Y-114902843D02*
X171185149Y-114759986D01*
X171185149Y-114759986D02*
X171033364Y-114688558D01*
X171033364Y-114688558D02*
X170676221Y-114688558D01*
X170676221Y-114688558D02*
X170524435Y-114617129D01*
X169122649Y-114259986D02*
X169274435Y-115474272D01*
X169274435Y-115474272D02*
X169363721Y-115617129D01*
X169363721Y-115617129D02*
X169444078Y-115688558D01*
X169444078Y-115688558D02*
X169595863Y-115759986D01*
X169595863Y-115759986D02*
X169810149Y-115759986D01*
X169810149Y-115759986D02*
X169944078Y-115688558D01*
X169238721Y-115188558D02*
X169390506Y-115259986D01*
X169390506Y-115259986D02*
X169676221Y-115259986D01*
X169676221Y-115259986D02*
X169810149Y-115188558D01*
X169810149Y-115188558D02*
X169872649Y-115117129D01*
X169872649Y-115117129D02*
X169926221Y-114974272D01*
X169926221Y-114974272D02*
X169872649Y-114545700D01*
X169872649Y-114545700D02*
X169783363Y-114402843D01*
X169783363Y-114402843D02*
X169703006Y-114331415D01*
X169703006Y-114331415D02*
X169551221Y-114259986D01*
X169551221Y-114259986D02*
X169265506Y-114259986D01*
X169265506Y-114259986D02*
X169131578Y-114331415D01*
X167953006Y-115188558D02*
X168104792Y-115259986D01*
X168104792Y-115259986D02*
X168390506Y-115259986D01*
X168390506Y-115259986D02*
X168524435Y-115188558D01*
X168524435Y-115188558D02*
X168578006Y-115045700D01*
X168578006Y-115045700D02*
X168506578Y-114474272D01*
X168506578Y-114474272D02*
X168417292Y-114331415D01*
X168417292Y-114331415D02*
X168265506Y-114259986D01*
X168265506Y-114259986D02*
X167979792Y-114259986D01*
X167979792Y-114259986D02*
X167845863Y-114331415D01*
X167845863Y-114331415D02*
X167792292Y-114474272D01*
X167792292Y-114474272D02*
X167810149Y-114617129D01*
X167810149Y-114617129D02*
X168542292Y-114759986D01*
X167229792Y-115117129D02*
X167167292Y-115188558D01*
X167167292Y-115188558D02*
X167247649Y-115259986D01*
X167247649Y-115259986D02*
X167310149Y-115188558D01*
X167310149Y-115188558D02*
X167229792Y-115117129D01*
X167229792Y-115117129D02*
X167247649Y-115259986D01*
X167131578Y-114331415D02*
X167069078Y-114402843D01*
X167069078Y-114402843D02*
X167149435Y-114474272D01*
X167149435Y-114474272D02*
X167211935Y-114402843D01*
X167211935Y-114402843D02*
X167131578Y-114331415D01*
X167131578Y-114331415D02*
X167149435Y-114474272D01*
X186507028Y-86360149D02*
X186449885Y-86417292D01*
X186449885Y-86417292D02*
X186392742Y-86531578D01*
X186392742Y-86531578D02*
X186392742Y-86817292D01*
X186392742Y-86817292D02*
X186449885Y-86931578D01*
X186449885Y-86931578D02*
X186507028Y-86988720D01*
X186507028Y-86988720D02*
X186621314Y-87045863D01*
X186621314Y-87045863D02*
X186735600Y-87045863D01*
X186735600Y-87045863D02*
X186907028Y-86988720D01*
X186907028Y-86988720D02*
X187592742Y-86303006D01*
X187592742Y-86303006D02*
X187592742Y-87045863D01*
X186392742Y-87788720D02*
X186392742Y-87903006D01*
X186392742Y-87903006D02*
X186449885Y-88017292D01*
X186449885Y-88017292D02*
X186507028Y-88074435D01*
X186507028Y-88074435D02*
X186621314Y-88131577D01*
X186621314Y-88131577D02*
X186849885Y-88188720D01*
X186849885Y-88188720D02*
X187135600Y-88188720D01*
X187135600Y-88188720D02*
X187364171Y-88131577D01*
X187364171Y-88131577D02*
X187478457Y-88074435D01*
X187478457Y-88074435D02*
X187535600Y-88017292D01*
X187535600Y-88017292D02*
X187592742Y-87903006D01*
X187592742Y-87903006D02*
X187592742Y-87788720D01*
X187592742Y-87788720D02*
X187535600Y-87674435D01*
X187535600Y-87674435D02*
X187478457Y-87617292D01*
X187478457Y-87617292D02*
X187364171Y-87560149D01*
X187364171Y-87560149D02*
X187135600Y-87503006D01*
X187135600Y-87503006D02*
X186849885Y-87503006D01*
X186849885Y-87503006D02*
X186621314Y-87560149D01*
X186621314Y-87560149D02*
X186507028Y-87617292D01*
X186507028Y-87617292D02*
X186449885Y-87674435D01*
X186449885Y-87674435D02*
X186392742Y-87788720D01*
X186507028Y-88645863D02*
X186449885Y-88703006D01*
X186449885Y-88703006D02*
X186392742Y-88817292D01*
X186392742Y-88817292D02*
X186392742Y-89103006D01*
X186392742Y-89103006D02*
X186449885Y-89217292D01*
X186449885Y-89217292D02*
X186507028Y-89274434D01*
X186507028Y-89274434D02*
X186621314Y-89331577D01*
X186621314Y-89331577D02*
X186735600Y-89331577D01*
X186735600Y-89331577D02*
X186907028Y-89274434D01*
X186907028Y-89274434D02*
X187592742Y-88588720D01*
X187592742Y-88588720D02*
X187592742Y-89331577D01*
X186392742Y-90417291D02*
X186392742Y-89845863D01*
X186392742Y-89845863D02*
X186964171Y-89788720D01*
X186964171Y-89788720D02*
X186907028Y-89845863D01*
X186907028Y-89845863D02*
X186849885Y-89960149D01*
X186849885Y-89960149D02*
X186849885Y-90245863D01*
X186849885Y-90245863D02*
X186907028Y-90360149D01*
X186907028Y-90360149D02*
X186964171Y-90417291D01*
X186964171Y-90417291D02*
X187078457Y-90474434D01*
X187078457Y-90474434D02*
X187364171Y-90474434D01*
X187364171Y-90474434D02*
X187478457Y-90417291D01*
X187478457Y-90417291D02*
X187535600Y-90360149D01*
X187535600Y-90360149D02*
X187592742Y-90245863D01*
X187592742Y-90245863D02*
X187592742Y-89960149D01*
X187592742Y-89960149D02*
X187535600Y-89845863D01*
X187535600Y-89845863D02*
X187478457Y-89788720D01*
X186335600Y-92760149D02*
X187878457Y-91731577D01*
X187592742Y-94760149D02*
X187021314Y-94360149D01*
X187592742Y-94074435D02*
X186392742Y-94074435D01*
X186392742Y-94074435D02*
X186392742Y-94531578D01*
X186392742Y-94531578D02*
X186449885Y-94645863D01*
X186449885Y-94645863D02*
X186507028Y-94703006D01*
X186507028Y-94703006D02*
X186621314Y-94760149D01*
X186621314Y-94760149D02*
X186792742Y-94760149D01*
X186792742Y-94760149D02*
X186907028Y-94703006D01*
X186907028Y-94703006D02*
X186964171Y-94645863D01*
X186964171Y-94645863D02*
X187021314Y-94531578D01*
X187021314Y-94531578D02*
X187021314Y-94074435D01*
X187535600Y-95731578D02*
X187592742Y-95617292D01*
X187592742Y-95617292D02*
X187592742Y-95388721D01*
X187592742Y-95388721D02*
X187535600Y-95274435D01*
X187535600Y-95274435D02*
X187421314Y-95217292D01*
X187421314Y-95217292D02*
X186964171Y-95217292D01*
X186964171Y-95217292D02*
X186849885Y-95274435D01*
X186849885Y-95274435D02*
X186792742Y-95388721D01*
X186792742Y-95388721D02*
X186792742Y-95617292D01*
X186792742Y-95617292D02*
X186849885Y-95731578D01*
X186849885Y-95731578D02*
X186964171Y-95788721D01*
X186964171Y-95788721D02*
X187078457Y-95788721D01*
X187078457Y-95788721D02*
X187192742Y-95217292D01*
X186792742Y-96188720D02*
X187592742Y-96474434D01*
X187592742Y-96474434D02*
X186792742Y-96760149D01*
X187478457Y-97217292D02*
X187535600Y-97274435D01*
X187535600Y-97274435D02*
X187592742Y-97217292D01*
X187592742Y-97217292D02*
X187535600Y-97160149D01*
X187535600Y-97160149D02*
X187478457Y-97217292D01*
X187478457Y-97217292D02*
X187592742Y-97217292D01*
X187592742Y-99331578D02*
X187592742Y-98645864D01*
X187592742Y-98988721D02*
X186392742Y-98988721D01*
X186392742Y-98988721D02*
X186564171Y-98874435D01*
X186564171Y-98874435D02*
X186678457Y-98760150D01*
X186678457Y-98760150D02*
X186735600Y-98645864D01*
X187478457Y-99845864D02*
X187535600Y-99903007D01*
X187535600Y-99903007D02*
X187592742Y-99845864D01*
X187592742Y-99845864D02*
X187535600Y-99788721D01*
X187535600Y-99788721D02*
X187478457Y-99845864D01*
X187478457Y-99845864D02*
X187592742Y-99845864D01*
X186392742Y-100645864D02*
X186392742Y-100760150D01*
X186392742Y-100760150D02*
X186449885Y-100874436D01*
X186449885Y-100874436D02*
X186507028Y-100931579D01*
X186507028Y-100931579D02*
X186621314Y-100988721D01*
X186621314Y-100988721D02*
X186849885Y-101045864D01*
X186849885Y-101045864D02*
X187135600Y-101045864D01*
X187135600Y-101045864D02*
X187364171Y-100988721D01*
X187364171Y-100988721D02*
X187478457Y-100931579D01*
X187478457Y-100931579D02*
X187535600Y-100874436D01*
X187535600Y-100874436D02*
X187592742Y-100760150D01*
X187592742Y-100760150D02*
X187592742Y-100645864D01*
X187592742Y-100645864D02*
X187535600Y-100531579D01*
X187535600Y-100531579D02*
X187478457Y-100474436D01*
X187478457Y-100474436D02*
X187364171Y-100417293D01*
X187364171Y-100417293D02*
X187135600Y-100360150D01*
X187135600Y-100360150D02*
X186849885Y-100360150D01*
X186849885Y-100360150D02*
X186621314Y-100417293D01*
X186621314Y-100417293D02*
X186507028Y-100474436D01*
X186507028Y-100474436D02*
X186449885Y-100531579D01*
X186449885Y-100531579D02*
X186392742Y-100645864D01*
X177944078Y-103827213D02*
X178024435Y-103898642D01*
X178024435Y-103898642D02*
X178247650Y-103970070D01*
X178247650Y-103970070D02*
X178390507Y-103970070D01*
X178390507Y-103970070D02*
X178595864Y-103898642D01*
X178595864Y-103898642D02*
X178720864Y-103755784D01*
X178720864Y-103755784D02*
X178774435Y-103612927D01*
X178774435Y-103612927D02*
X178810150Y-103327213D01*
X178810150Y-103327213D02*
X178783364Y-103112927D01*
X178783364Y-103112927D02*
X178676221Y-102827213D01*
X178676221Y-102827213D02*
X178586935Y-102684356D01*
X178586935Y-102684356D02*
X178426221Y-102541499D01*
X178426221Y-102541499D02*
X178203007Y-102470070D01*
X178203007Y-102470070D02*
X178060150Y-102470070D01*
X178060150Y-102470070D02*
X177854793Y-102541499D01*
X177854793Y-102541499D02*
X177792293Y-102612927D01*
X176676221Y-103970070D02*
X176578007Y-103184356D01*
X176578007Y-103184356D02*
X176631578Y-103041499D01*
X176631578Y-103041499D02*
X176765507Y-102970070D01*
X176765507Y-102970070D02*
X177051221Y-102970070D01*
X177051221Y-102970070D02*
X177203007Y-103041499D01*
X176667293Y-103898642D02*
X176819078Y-103970070D01*
X176819078Y-103970070D02*
X177176221Y-103970070D01*
X177176221Y-103970070D02*
X177310150Y-103898642D01*
X177310150Y-103898642D02*
X177363721Y-103755784D01*
X177363721Y-103755784D02*
X177345864Y-103612927D01*
X177345864Y-103612927D02*
X177256578Y-103470070D01*
X177256578Y-103470070D02*
X177104793Y-103398642D01*
X177104793Y-103398642D02*
X176747650Y-103398642D01*
X176747650Y-103398642D02*
X176595864Y-103327213D01*
X175747650Y-103970070D02*
X175881578Y-103898642D01*
X175881578Y-103898642D02*
X175935150Y-103755784D01*
X175935150Y-103755784D02*
X175774435Y-102470070D01*
X175176221Y-103970070D02*
X175051221Y-102970070D01*
X174988721Y-102470070D02*
X175069078Y-102541499D01*
X175069078Y-102541499D02*
X175006578Y-102612927D01*
X175006578Y-102612927D02*
X174926221Y-102541499D01*
X174926221Y-102541499D02*
X174988721Y-102470070D01*
X174988721Y-102470070D02*
X175006578Y-102612927D01*
X174461935Y-103970070D02*
X174274435Y-102470070D01*
X174345864Y-103041499D02*
X174194078Y-102970070D01*
X174194078Y-102970070D02*
X173908364Y-102970070D01*
X173908364Y-102970070D02*
X173774435Y-103041499D01*
X173774435Y-103041499D02*
X173711935Y-103112927D01*
X173711935Y-103112927D02*
X173658364Y-103255784D01*
X173658364Y-103255784D02*
X173711935Y-103684356D01*
X173711935Y-103684356D02*
X173801221Y-103827213D01*
X173801221Y-103827213D02*
X173881578Y-103898642D01*
X173881578Y-103898642D02*
X174033364Y-103970070D01*
X174033364Y-103970070D02*
X174319078Y-103970070D01*
X174319078Y-103970070D02*
X174453007Y-103898642D01*
X173104792Y-103970070D02*
X172979792Y-102970070D01*
X173015507Y-103255784D02*
X172926221Y-103112927D01*
X172926221Y-103112927D02*
X172845864Y-103041499D01*
X172845864Y-103041499D02*
X172694078Y-102970070D01*
X172694078Y-102970070D02*
X172551221Y-102970070D01*
X171533364Y-103970070D02*
X171435150Y-103184356D01*
X171435150Y-103184356D02*
X171488721Y-103041499D01*
X171488721Y-103041499D02*
X171622650Y-102970070D01*
X171622650Y-102970070D02*
X171908364Y-102970070D01*
X171908364Y-102970070D02*
X172060150Y-103041499D01*
X171524436Y-103898642D02*
X171676221Y-103970070D01*
X171676221Y-103970070D02*
X172033364Y-103970070D01*
X172033364Y-103970070D02*
X172167293Y-103898642D01*
X172167293Y-103898642D02*
X172220864Y-103755784D01*
X172220864Y-103755784D02*
X172203007Y-103612927D01*
X172203007Y-103612927D02*
X172113721Y-103470070D01*
X172113721Y-103470070D02*
X171961936Y-103398642D01*
X171961936Y-103398642D02*
X171604793Y-103398642D01*
X171604793Y-103398642D02*
X171453007Y-103327213D01*
X170908364Y-102970070D02*
X170336935Y-102970070D01*
X170631578Y-102470070D02*
X170792293Y-103755784D01*
X170792293Y-103755784D02*
X170738721Y-103898642D01*
X170738721Y-103898642D02*
X170604793Y-103970070D01*
X170604793Y-103970070D02*
X170461935Y-103970070D01*
X169961935Y-103970070D02*
X169836935Y-102970070D01*
X169774435Y-102470070D02*
X169854792Y-102541499D01*
X169854792Y-102541499D02*
X169792292Y-102612927D01*
X169792292Y-102612927D02*
X169711935Y-102541499D01*
X169711935Y-102541499D02*
X169774435Y-102470070D01*
X169774435Y-102470070D02*
X169792292Y-102612927D01*
X169033364Y-103970070D02*
X169167292Y-103898642D01*
X169167292Y-103898642D02*
X169229792Y-103827213D01*
X169229792Y-103827213D02*
X169283364Y-103684356D01*
X169283364Y-103684356D02*
X169229792Y-103255784D01*
X169229792Y-103255784D02*
X169140506Y-103112927D01*
X169140506Y-103112927D02*
X169060149Y-103041499D01*
X169060149Y-103041499D02*
X168908364Y-102970070D01*
X168908364Y-102970070D02*
X168694078Y-102970070D01*
X168694078Y-102970070D02*
X168560149Y-103041499D01*
X168560149Y-103041499D02*
X168497649Y-103112927D01*
X168497649Y-103112927D02*
X168444078Y-103255784D01*
X168444078Y-103255784D02*
X168497649Y-103684356D01*
X168497649Y-103684356D02*
X168586935Y-103827213D01*
X168586935Y-103827213D02*
X168667292Y-103898642D01*
X168667292Y-103898642D02*
X168819078Y-103970070D01*
X168819078Y-103970070D02*
X169033364Y-103970070D01*
X167765506Y-102970070D02*
X167890506Y-103970070D01*
X167783363Y-103112927D02*
X167703006Y-103041499D01*
X167703006Y-103041499D02*
X167551221Y-102970070D01*
X167551221Y-102970070D02*
X167336935Y-102970070D01*
X167336935Y-102970070D02*
X167203006Y-103041499D01*
X167203006Y-103041499D02*
X167149435Y-103184356D01*
X167149435Y-103184356D02*
X167247649Y-103970070D01*
X172247649Y-106384986D02*
X172060149Y-104884986D01*
X172060149Y-104884986D02*
X171703006Y-104884986D01*
X171703006Y-104884986D02*
X171497649Y-104956415D01*
X171497649Y-104956415D02*
X171372649Y-105099272D01*
X171372649Y-105099272D02*
X171319078Y-105242129D01*
X171319078Y-105242129D02*
X171283364Y-105527843D01*
X171283364Y-105527843D02*
X171310149Y-105742129D01*
X171310149Y-105742129D02*
X171417292Y-106027843D01*
X171417292Y-106027843D02*
X171506578Y-106170700D01*
X171506578Y-106170700D02*
X171667292Y-106313558D01*
X171667292Y-106313558D02*
X171890506Y-106384986D01*
X171890506Y-106384986D02*
X172247649Y-106384986D01*
X170104792Y-106384986D02*
X170006578Y-105599272D01*
X170006578Y-105599272D02*
X170060149Y-105456415D01*
X170060149Y-105456415D02*
X170194078Y-105384986D01*
X170194078Y-105384986D02*
X170479792Y-105384986D01*
X170479792Y-105384986D02*
X170631578Y-105456415D01*
X170095864Y-106313558D02*
X170247649Y-106384986D01*
X170247649Y-106384986D02*
X170604792Y-106384986D01*
X170604792Y-106384986D02*
X170738721Y-106313558D01*
X170738721Y-106313558D02*
X170792292Y-106170700D01*
X170792292Y-106170700D02*
X170774435Y-106027843D01*
X170774435Y-106027843D02*
X170685149Y-105884986D01*
X170685149Y-105884986D02*
X170533364Y-105813558D01*
X170533364Y-105813558D02*
X170176221Y-105813558D01*
X170176221Y-105813558D02*
X170024435Y-105742129D01*
X169479792Y-105384986D02*
X168908363Y-105384986D01*
X169203006Y-104884986D02*
X169363721Y-106170700D01*
X169363721Y-106170700D02*
X169310149Y-106313558D01*
X169310149Y-106313558D02*
X169176221Y-106384986D01*
X169176221Y-106384986D02*
X169033363Y-106384986D01*
X167953006Y-106313558D02*
X168104792Y-106384986D01*
X168104792Y-106384986D02*
X168390506Y-106384986D01*
X168390506Y-106384986D02*
X168524435Y-106313558D01*
X168524435Y-106313558D02*
X168578006Y-106170700D01*
X168578006Y-106170700D02*
X168506578Y-105599272D01*
X168506578Y-105599272D02*
X168417292Y-105456415D01*
X168417292Y-105456415D02*
X168265506Y-105384986D01*
X168265506Y-105384986D02*
X167979792Y-105384986D01*
X167979792Y-105384986D02*
X167845863Y-105456415D01*
X167845863Y-105456415D02*
X167792292Y-105599272D01*
X167792292Y-105599272D02*
X167810149Y-105742129D01*
X167810149Y-105742129D02*
X168542292Y-105884986D01*
X167229792Y-106242129D02*
X167167292Y-106313558D01*
X167167292Y-106313558D02*
X167247649Y-106384986D01*
X167247649Y-106384986D02*
X167310149Y-106313558D01*
X167310149Y-106313558D02*
X167229792Y-106242129D01*
X167229792Y-106242129D02*
X167247649Y-106384986D01*
X167131578Y-105456415D02*
X167069078Y-105527843D01*
X167069078Y-105527843D02*
X167149435Y-105599272D01*
X167149435Y-105599272D02*
X167211935Y-105527843D01*
X167211935Y-105527843D02*
X167131578Y-105456415D01*
X167131578Y-105456415D02*
X167149435Y-105599272D01*
M02*
