%TF.GenerationSoftware,KiCad,Pcbnew,8.0.4*%
%TF.CreationDate,2025-01-19T15:52:31+01:00*%
%TF.ProjectId,PortableVoltageStandard,506f7274-6162-46c6-9556-6f6c74616765,1.0*%
%TF.SameCoordinates,Original*%
%TF.FileFunction,Legend,Top*%
%TF.FilePolarity,Positive*%
%FSLAX46Y46*%
G04 Gerber Fmt 4.6, Leading zero omitted, Abs format (unit mm)*
G04 Created by KiCad (PCBNEW 8.0.4) date 2025-01-19 15:52:31*
%MOMM*%
%LPD*%
G01*
G04 APERTURE LIST*
%ADD10C,0.220000*%
%ADD11C,0.100000*%
%ADD12C,0.300000*%
%ADD13C,0.200000*%
%ADD14C,0.150000*%
%ADD15C,0.000000*%
%ADD16C,0.120000*%
G04 APERTURE END LIST*
D10*
X137500000Y-115750000D02*
X137750000Y-115750000D01*
D11*
X154400000Y-65500000D02*
X154400000Y-70600000D01*
D12*
X186750000Y-87000000D02*
X186750000Y-85500000D01*
D13*
X187987140Y-103500000D02*
G75*
G02*
X185512860Y-103500000I-1237140J0D01*
G01*
X185512860Y-103500000D02*
G75*
G02*
X187987140Y-103500000I1237140J0D01*
G01*
D12*
X186750000Y-104250000D02*
X186750000Y-102750000D01*
X179750000Y-75750000D02*
X179750000Y-74250000D01*
X180500000Y-77750000D02*
X179000000Y-77750000D01*
D13*
X187987140Y-86250000D02*
G75*
G02*
X185512860Y-86250000I-1237140J0D01*
G01*
X185512860Y-86250000D02*
G75*
G02*
X187987140Y-86250000I1237140J0D01*
G01*
D11*
X160800000Y-65500000D02*
X160800000Y-70600000D01*
D10*
X146500000Y-114250000D02*
G75*
G02*
X145000000Y-115750000I-1500000J0D01*
G01*
X146500000Y-114250000D02*
X146500000Y-101500000D01*
D12*
X187500000Y-86250000D02*
X186000000Y-86250000D01*
D13*
X180987140Y-77750000D02*
G75*
G02*
X178512860Y-77750000I-1237140J0D01*
G01*
X178512860Y-77750000D02*
G75*
G02*
X180987140Y-77750000I1237140J0D01*
G01*
D10*
X137750000Y-115750000D02*
X145000000Y-115750000D01*
D13*
X180987140Y-75000000D02*
G75*
G02*
X178512860Y-75000000I-1237140J0D01*
G01*
X178512860Y-75000000D02*
G75*
G02*
X180987140Y-75000000I1237140J0D01*
G01*
D12*
X179750000Y-78500000D02*
X179750000Y-77000000D01*
D13*
X136556028Y-115770207D02*
X135056028Y-115582707D01*
X135056028Y-115582707D02*
X135056028Y-115011279D01*
X135056028Y-115011279D02*
X135127457Y-114877350D01*
X135127457Y-114877350D02*
X135198885Y-114814850D01*
X135198885Y-114814850D02*
X135341742Y-114761279D01*
X135341742Y-114761279D02*
X135556028Y-114788064D01*
X135556028Y-114788064D02*
X135698885Y-114877350D01*
X135698885Y-114877350D02*
X135770314Y-114957707D01*
X135770314Y-114957707D02*
X135841742Y-115109493D01*
X135841742Y-115109493D02*
X135841742Y-115680922D01*
X136556028Y-114055922D02*
X136484600Y-114189850D01*
X136484600Y-114189850D02*
X136413171Y-114252350D01*
X136413171Y-114252350D02*
X136270314Y-114305922D01*
X136270314Y-114305922D02*
X135841742Y-114252350D01*
X135841742Y-114252350D02*
X135698885Y-114163064D01*
X135698885Y-114163064D02*
X135627457Y-114082707D01*
X135627457Y-114082707D02*
X135556028Y-113930922D01*
X135556028Y-113930922D02*
X135556028Y-113716636D01*
X135556028Y-113716636D02*
X135627457Y-113582707D01*
X135627457Y-113582707D02*
X135698885Y-113520207D01*
X135698885Y-113520207D02*
X135841742Y-113466636D01*
X135841742Y-113466636D02*
X136270314Y-113520207D01*
X136270314Y-113520207D02*
X136413171Y-113609493D01*
X136413171Y-113609493D02*
X136484600Y-113689850D01*
X136484600Y-113689850D02*
X136556028Y-113841636D01*
X136556028Y-113841636D02*
X136556028Y-114055922D01*
X136556028Y-112913064D02*
X135556028Y-112788064D01*
X135841742Y-112823779D02*
X135698885Y-112734493D01*
X135698885Y-112734493D02*
X135627457Y-112654136D01*
X135627457Y-112654136D02*
X135556028Y-112502350D01*
X135556028Y-112502350D02*
X135556028Y-112359493D01*
X135556028Y-112073779D02*
X135556028Y-111502350D01*
X135056028Y-111796993D02*
X136341742Y-111957708D01*
X136341742Y-111957708D02*
X136484600Y-111904136D01*
X136484600Y-111904136D02*
X136556028Y-111770208D01*
X136556028Y-111770208D02*
X136556028Y-111627350D01*
X136556028Y-110484493D02*
X135770314Y-110386279D01*
X135770314Y-110386279D02*
X135627457Y-110439850D01*
X135627457Y-110439850D02*
X135556028Y-110573779D01*
X135556028Y-110573779D02*
X135556028Y-110859493D01*
X135556028Y-110859493D02*
X135627457Y-111011279D01*
X136484600Y-110475565D02*
X136556028Y-110627350D01*
X136556028Y-110627350D02*
X136556028Y-110984493D01*
X136556028Y-110984493D02*
X136484600Y-111118422D01*
X136484600Y-111118422D02*
X136341742Y-111171993D01*
X136341742Y-111171993D02*
X136198885Y-111154136D01*
X136198885Y-111154136D02*
X136056028Y-111064850D01*
X136056028Y-111064850D02*
X135984600Y-110913065D01*
X135984600Y-110913065D02*
X135984600Y-110555922D01*
X135984600Y-110555922D02*
X135913171Y-110404136D01*
X136556028Y-109770207D02*
X135056028Y-109582707D01*
X135627457Y-109654136D02*
X135556028Y-109502350D01*
X135556028Y-109502350D02*
X135556028Y-109216636D01*
X135556028Y-109216636D02*
X135627457Y-109082707D01*
X135627457Y-109082707D02*
X135698885Y-109020207D01*
X135698885Y-109020207D02*
X135841742Y-108966636D01*
X135841742Y-108966636D02*
X136270314Y-109020207D01*
X136270314Y-109020207D02*
X136413171Y-109109493D01*
X136413171Y-109109493D02*
X136484600Y-109189850D01*
X136484600Y-109189850D02*
X136556028Y-109341636D01*
X136556028Y-109341636D02*
X136556028Y-109627350D01*
X136556028Y-109627350D02*
X136484600Y-109761279D01*
X136556028Y-108198779D02*
X136484600Y-108332707D01*
X136484600Y-108332707D02*
X136341742Y-108386279D01*
X136341742Y-108386279D02*
X135056028Y-108225564D01*
X136484600Y-107046993D02*
X136556028Y-107198779D01*
X136556028Y-107198779D02*
X136556028Y-107484493D01*
X136556028Y-107484493D02*
X136484600Y-107618422D01*
X136484600Y-107618422D02*
X136341742Y-107671993D01*
X136341742Y-107671993D02*
X135770314Y-107600565D01*
X135770314Y-107600565D02*
X135627457Y-107511279D01*
X135627457Y-107511279D02*
X135556028Y-107359493D01*
X135556028Y-107359493D02*
X135556028Y-107073779D01*
X135556028Y-107073779D02*
X135627457Y-106939850D01*
X135627457Y-106939850D02*
X135770314Y-106886279D01*
X135770314Y-106886279D02*
X135913171Y-106904136D01*
X135913171Y-106904136D02*
X136056028Y-107636279D01*
X135056028Y-105225565D02*
X136556028Y-104913065D01*
X136556028Y-104913065D02*
X135056028Y-104225565D01*
X136556028Y-103698780D02*
X136484600Y-103832708D01*
X136484600Y-103832708D02*
X136413171Y-103895208D01*
X136413171Y-103895208D02*
X136270314Y-103948780D01*
X136270314Y-103948780D02*
X135841742Y-103895208D01*
X135841742Y-103895208D02*
X135698885Y-103805922D01*
X135698885Y-103805922D02*
X135627457Y-103725565D01*
X135627457Y-103725565D02*
X135556028Y-103573780D01*
X135556028Y-103573780D02*
X135556028Y-103359494D01*
X135556028Y-103359494D02*
X135627457Y-103225565D01*
X135627457Y-103225565D02*
X135698885Y-103163065D01*
X135698885Y-103163065D02*
X135841742Y-103109494D01*
X135841742Y-103109494D02*
X136270314Y-103163065D01*
X136270314Y-103163065D02*
X136413171Y-103252351D01*
X136413171Y-103252351D02*
X136484600Y-103332708D01*
X136484600Y-103332708D02*
X136556028Y-103484494D01*
X136556028Y-103484494D02*
X136556028Y-103698780D01*
X136556028Y-102341637D02*
X136484600Y-102475565D01*
X136484600Y-102475565D02*
X136341742Y-102529137D01*
X136341742Y-102529137D02*
X135056028Y-102368422D01*
X135556028Y-101859494D02*
X135556028Y-101288065D01*
X135056028Y-101582708D02*
X136341742Y-101743423D01*
X136341742Y-101743423D02*
X136484600Y-101689851D01*
X136484600Y-101689851D02*
X136556028Y-101555923D01*
X136556028Y-101555923D02*
X136556028Y-101413065D01*
X136556028Y-100270208D02*
X135770314Y-100171994D01*
X135770314Y-100171994D02*
X135627457Y-100225565D01*
X135627457Y-100225565D02*
X135556028Y-100359494D01*
X135556028Y-100359494D02*
X135556028Y-100645208D01*
X135556028Y-100645208D02*
X135627457Y-100796994D01*
X136484600Y-100261280D02*
X136556028Y-100413065D01*
X136556028Y-100413065D02*
X136556028Y-100770208D01*
X136556028Y-100770208D02*
X136484600Y-100904137D01*
X136484600Y-100904137D02*
X136341742Y-100957708D01*
X136341742Y-100957708D02*
X136198885Y-100939851D01*
X136198885Y-100939851D02*
X136056028Y-100850565D01*
X136056028Y-100850565D02*
X135984600Y-100698780D01*
X135984600Y-100698780D02*
X135984600Y-100341637D01*
X135984600Y-100341637D02*
X135913171Y-100189851D01*
X135556028Y-98788065D02*
X136770314Y-98939851D01*
X136770314Y-98939851D02*
X136913171Y-99029137D01*
X136913171Y-99029137D02*
X136984600Y-99109494D01*
X136984600Y-99109494D02*
X137056028Y-99261279D01*
X137056028Y-99261279D02*
X137056028Y-99475565D01*
X137056028Y-99475565D02*
X136984600Y-99609494D01*
X136484600Y-98904137D02*
X136556028Y-99055922D01*
X136556028Y-99055922D02*
X136556028Y-99341637D01*
X136556028Y-99341637D02*
X136484600Y-99475565D01*
X136484600Y-99475565D02*
X136413171Y-99538065D01*
X136413171Y-99538065D02*
X136270314Y-99591637D01*
X136270314Y-99591637D02*
X135841742Y-99538065D01*
X135841742Y-99538065D02*
X135698885Y-99448779D01*
X135698885Y-99448779D02*
X135627457Y-99368422D01*
X135627457Y-99368422D02*
X135556028Y-99216637D01*
X135556028Y-99216637D02*
X135556028Y-98930922D01*
X135556028Y-98930922D02*
X135627457Y-98796994D01*
X136484600Y-97618422D02*
X136556028Y-97770208D01*
X136556028Y-97770208D02*
X136556028Y-98055922D01*
X136556028Y-98055922D02*
X136484600Y-98189851D01*
X136484600Y-98189851D02*
X136341742Y-98243422D01*
X136341742Y-98243422D02*
X135770314Y-98171994D01*
X135770314Y-98171994D02*
X135627457Y-98082708D01*
X135627457Y-98082708D02*
X135556028Y-97930922D01*
X135556028Y-97930922D02*
X135556028Y-97645208D01*
X135556028Y-97645208D02*
X135627457Y-97511279D01*
X135627457Y-97511279D02*
X135770314Y-97457708D01*
X135770314Y-97457708D02*
X135913171Y-97475565D01*
X135913171Y-97475565D02*
X136056028Y-98207708D01*
X136484600Y-95832708D02*
X136556028Y-95627351D01*
X136556028Y-95627351D02*
X136556028Y-95270208D01*
X136556028Y-95270208D02*
X136484600Y-95118423D01*
X136484600Y-95118423D02*
X136413171Y-95038065D01*
X136413171Y-95038065D02*
X136270314Y-94948780D01*
X136270314Y-94948780D02*
X136127457Y-94930923D01*
X136127457Y-94930923D02*
X135984600Y-94984494D01*
X135984600Y-94984494D02*
X135913171Y-95046994D01*
X135913171Y-95046994D02*
X135841742Y-95180923D01*
X135841742Y-95180923D02*
X135770314Y-95457708D01*
X135770314Y-95457708D02*
X135698885Y-95591637D01*
X135698885Y-95591637D02*
X135627457Y-95654137D01*
X135627457Y-95654137D02*
X135484600Y-95707708D01*
X135484600Y-95707708D02*
X135341742Y-95689851D01*
X135341742Y-95689851D02*
X135198885Y-95600565D01*
X135198885Y-95600565D02*
X135127457Y-95520208D01*
X135127457Y-95520208D02*
X135056028Y-95368423D01*
X135056028Y-95368423D02*
X135056028Y-95011280D01*
X135056028Y-95011280D02*
X135127457Y-94805923D01*
X135556028Y-94430923D02*
X135556028Y-93859494D01*
X135056028Y-94154137D02*
X136341742Y-94314852D01*
X136341742Y-94314852D02*
X136484600Y-94261280D01*
X136484600Y-94261280D02*
X136556028Y-94127352D01*
X136556028Y-94127352D02*
X136556028Y-93984494D01*
X136556028Y-92841637D02*
X135770314Y-92743423D01*
X135770314Y-92743423D02*
X135627457Y-92796994D01*
X135627457Y-92796994D02*
X135556028Y-92930923D01*
X135556028Y-92930923D02*
X135556028Y-93216637D01*
X135556028Y-93216637D02*
X135627457Y-93368423D01*
X136484600Y-92832709D02*
X136556028Y-92984494D01*
X136556028Y-92984494D02*
X136556028Y-93341637D01*
X136556028Y-93341637D02*
X136484600Y-93475566D01*
X136484600Y-93475566D02*
X136341742Y-93529137D01*
X136341742Y-93529137D02*
X136198885Y-93511280D01*
X136198885Y-93511280D02*
X136056028Y-93421994D01*
X136056028Y-93421994D02*
X135984600Y-93270209D01*
X135984600Y-93270209D02*
X135984600Y-92913066D01*
X135984600Y-92913066D02*
X135913171Y-92761280D01*
X135556028Y-92002351D02*
X136556028Y-92127351D01*
X135698885Y-92020208D02*
X135627457Y-91939851D01*
X135627457Y-91939851D02*
X135556028Y-91788066D01*
X135556028Y-91788066D02*
X135556028Y-91573780D01*
X135556028Y-91573780D02*
X135627457Y-91439851D01*
X135627457Y-91439851D02*
X135770314Y-91386280D01*
X135770314Y-91386280D02*
X136556028Y-91484494D01*
X136556028Y-90127351D02*
X135056028Y-89939851D01*
X136484600Y-90118423D02*
X136556028Y-90270208D01*
X136556028Y-90270208D02*
X136556028Y-90555923D01*
X136556028Y-90555923D02*
X136484600Y-90689851D01*
X136484600Y-90689851D02*
X136413171Y-90752351D01*
X136413171Y-90752351D02*
X136270314Y-90805923D01*
X136270314Y-90805923D02*
X135841742Y-90752351D01*
X135841742Y-90752351D02*
X135698885Y-90663065D01*
X135698885Y-90663065D02*
X135627457Y-90582708D01*
X135627457Y-90582708D02*
X135556028Y-90430923D01*
X135556028Y-90430923D02*
X135556028Y-90145208D01*
X135556028Y-90145208D02*
X135627457Y-90011280D01*
X136556028Y-88770208D02*
X135770314Y-88671994D01*
X135770314Y-88671994D02*
X135627457Y-88725565D01*
X135627457Y-88725565D02*
X135556028Y-88859494D01*
X135556028Y-88859494D02*
X135556028Y-89145208D01*
X135556028Y-89145208D02*
X135627457Y-89296994D01*
X136484600Y-88761280D02*
X136556028Y-88913065D01*
X136556028Y-88913065D02*
X136556028Y-89270208D01*
X136556028Y-89270208D02*
X136484600Y-89404137D01*
X136484600Y-89404137D02*
X136341742Y-89457708D01*
X136341742Y-89457708D02*
X136198885Y-89439851D01*
X136198885Y-89439851D02*
X136056028Y-89350565D01*
X136056028Y-89350565D02*
X135984600Y-89198780D01*
X135984600Y-89198780D02*
X135984600Y-88841637D01*
X135984600Y-88841637D02*
X135913171Y-88689851D01*
X136556028Y-88055922D02*
X135556028Y-87930922D01*
X135841742Y-87966637D02*
X135698885Y-87877351D01*
X135698885Y-87877351D02*
X135627457Y-87796994D01*
X135627457Y-87796994D02*
X135556028Y-87645208D01*
X135556028Y-87645208D02*
X135556028Y-87502351D01*
X136556028Y-86484494D02*
X135056028Y-86296994D01*
X136484600Y-86475566D02*
X136556028Y-86627351D01*
X136556028Y-86627351D02*
X136556028Y-86913066D01*
X136556028Y-86913066D02*
X136484600Y-87046994D01*
X136484600Y-87046994D02*
X136413171Y-87109494D01*
X136413171Y-87109494D02*
X136270314Y-87163066D01*
X136270314Y-87163066D02*
X135841742Y-87109494D01*
X135841742Y-87109494D02*
X135698885Y-87020208D01*
X135698885Y-87020208D02*
X135627457Y-86939851D01*
X135627457Y-86939851D02*
X135556028Y-86788066D01*
X135556028Y-86788066D02*
X135556028Y-86502351D01*
X135556028Y-86502351D02*
X135627457Y-86368423D01*
D11*
X137682643Y-114838972D02*
X138682643Y-114505639D01*
X138682643Y-114505639D02*
X137682643Y-114172306D01*
X138682643Y-113696115D02*
X138635024Y-113791353D01*
X138635024Y-113791353D02*
X138587404Y-113838972D01*
X138587404Y-113838972D02*
X138492166Y-113886591D01*
X138492166Y-113886591D02*
X138206452Y-113886591D01*
X138206452Y-113886591D02*
X138111214Y-113838972D01*
X138111214Y-113838972D02*
X138063595Y-113791353D01*
X138063595Y-113791353D02*
X138015976Y-113696115D01*
X138015976Y-113696115D02*
X138015976Y-113553258D01*
X138015976Y-113553258D02*
X138063595Y-113458020D01*
X138063595Y-113458020D02*
X138111214Y-113410401D01*
X138111214Y-113410401D02*
X138206452Y-113362782D01*
X138206452Y-113362782D02*
X138492166Y-113362782D01*
X138492166Y-113362782D02*
X138587404Y-113410401D01*
X138587404Y-113410401D02*
X138635024Y-113458020D01*
X138635024Y-113458020D02*
X138682643Y-113553258D01*
X138682643Y-113553258D02*
X138682643Y-113696115D01*
X138682643Y-112791353D02*
X138635024Y-112886591D01*
X138635024Y-112886591D02*
X138539785Y-112934210D01*
X138539785Y-112934210D02*
X137682643Y-112934210D01*
X138015976Y-112553257D02*
X138015976Y-112172305D01*
X137682643Y-112410400D02*
X138539785Y-112410400D01*
X138539785Y-112410400D02*
X138635024Y-112362781D01*
X138635024Y-112362781D02*
X138682643Y-112267543D01*
X138682643Y-112267543D02*
X138682643Y-112172305D01*
X138682643Y-111410400D02*
X138158833Y-111410400D01*
X138158833Y-111410400D02*
X138063595Y-111458019D01*
X138063595Y-111458019D02*
X138015976Y-111553257D01*
X138015976Y-111553257D02*
X138015976Y-111743733D01*
X138015976Y-111743733D02*
X138063595Y-111838971D01*
X138635024Y-111410400D02*
X138682643Y-111505638D01*
X138682643Y-111505638D02*
X138682643Y-111743733D01*
X138682643Y-111743733D02*
X138635024Y-111838971D01*
X138635024Y-111838971D02*
X138539785Y-111886590D01*
X138539785Y-111886590D02*
X138444547Y-111886590D01*
X138444547Y-111886590D02*
X138349309Y-111838971D01*
X138349309Y-111838971D02*
X138301690Y-111743733D01*
X138301690Y-111743733D02*
X138301690Y-111505638D01*
X138301690Y-111505638D02*
X138254071Y-111410400D01*
X138015976Y-110505638D02*
X138825500Y-110505638D01*
X138825500Y-110505638D02*
X138920738Y-110553257D01*
X138920738Y-110553257D02*
X138968357Y-110600876D01*
X138968357Y-110600876D02*
X139015976Y-110696114D01*
X139015976Y-110696114D02*
X139015976Y-110838971D01*
X139015976Y-110838971D02*
X138968357Y-110934209D01*
X138635024Y-110505638D02*
X138682643Y-110600876D01*
X138682643Y-110600876D02*
X138682643Y-110791352D01*
X138682643Y-110791352D02*
X138635024Y-110886590D01*
X138635024Y-110886590D02*
X138587404Y-110934209D01*
X138587404Y-110934209D02*
X138492166Y-110981828D01*
X138492166Y-110981828D02*
X138206452Y-110981828D01*
X138206452Y-110981828D02*
X138111214Y-110934209D01*
X138111214Y-110934209D02*
X138063595Y-110886590D01*
X138063595Y-110886590D02*
X138015976Y-110791352D01*
X138015976Y-110791352D02*
X138015976Y-110600876D01*
X138015976Y-110600876D02*
X138063595Y-110505638D01*
X138635024Y-109648495D02*
X138682643Y-109743733D01*
X138682643Y-109743733D02*
X138682643Y-109934209D01*
X138682643Y-109934209D02*
X138635024Y-110029447D01*
X138635024Y-110029447D02*
X138539785Y-110077066D01*
X138539785Y-110077066D02*
X138158833Y-110077066D01*
X138158833Y-110077066D02*
X138063595Y-110029447D01*
X138063595Y-110029447D02*
X138015976Y-109934209D01*
X138015976Y-109934209D02*
X138015976Y-109743733D01*
X138015976Y-109743733D02*
X138063595Y-109648495D01*
X138063595Y-109648495D02*
X138158833Y-109600876D01*
X138158833Y-109600876D02*
X138254071Y-109600876D01*
X138254071Y-109600876D02*
X138349309Y-110077066D01*
X138682643Y-108410399D02*
X138015976Y-108410399D01*
X138206452Y-108410399D02*
X138111214Y-108362780D01*
X138111214Y-108362780D02*
X138063595Y-108315161D01*
X138063595Y-108315161D02*
X138015976Y-108219923D01*
X138015976Y-108219923D02*
X138015976Y-108124685D01*
X138635024Y-107410399D02*
X138682643Y-107505637D01*
X138682643Y-107505637D02*
X138682643Y-107696113D01*
X138682643Y-107696113D02*
X138635024Y-107791351D01*
X138635024Y-107791351D02*
X138539785Y-107838970D01*
X138539785Y-107838970D02*
X138158833Y-107838970D01*
X138158833Y-107838970D02*
X138063595Y-107791351D01*
X138063595Y-107791351D02*
X138015976Y-107696113D01*
X138015976Y-107696113D02*
X138015976Y-107505637D01*
X138015976Y-107505637D02*
X138063595Y-107410399D01*
X138063595Y-107410399D02*
X138158833Y-107362780D01*
X138158833Y-107362780D02*
X138254071Y-107362780D01*
X138254071Y-107362780D02*
X138349309Y-107838970D01*
X138015976Y-107077065D02*
X138015976Y-106696113D01*
X138682643Y-106934208D02*
X137825500Y-106934208D01*
X137825500Y-106934208D02*
X137730262Y-106886589D01*
X137730262Y-106886589D02*
X137682643Y-106791351D01*
X137682643Y-106791351D02*
X137682643Y-106696113D01*
X138635024Y-105981827D02*
X138682643Y-106077065D01*
X138682643Y-106077065D02*
X138682643Y-106267541D01*
X138682643Y-106267541D02*
X138635024Y-106362779D01*
X138635024Y-106362779D02*
X138539785Y-106410398D01*
X138539785Y-106410398D02*
X138158833Y-106410398D01*
X138158833Y-106410398D02*
X138063595Y-106362779D01*
X138063595Y-106362779D02*
X138015976Y-106267541D01*
X138015976Y-106267541D02*
X138015976Y-106077065D01*
X138015976Y-106077065D02*
X138063595Y-105981827D01*
X138063595Y-105981827D02*
X138158833Y-105934208D01*
X138158833Y-105934208D02*
X138254071Y-105934208D01*
X138254071Y-105934208D02*
X138349309Y-106410398D01*
X138682643Y-105505636D02*
X138015976Y-105505636D01*
X138206452Y-105505636D02*
X138111214Y-105458017D01*
X138111214Y-105458017D02*
X138063595Y-105410398D01*
X138063595Y-105410398D02*
X138015976Y-105315160D01*
X138015976Y-105315160D02*
X138015976Y-105219922D01*
X138635024Y-104505636D02*
X138682643Y-104600874D01*
X138682643Y-104600874D02*
X138682643Y-104791350D01*
X138682643Y-104791350D02*
X138635024Y-104886588D01*
X138635024Y-104886588D02*
X138539785Y-104934207D01*
X138539785Y-104934207D02*
X138158833Y-104934207D01*
X138158833Y-104934207D02*
X138063595Y-104886588D01*
X138063595Y-104886588D02*
X138015976Y-104791350D01*
X138015976Y-104791350D02*
X138015976Y-104600874D01*
X138015976Y-104600874D02*
X138063595Y-104505636D01*
X138063595Y-104505636D02*
X138158833Y-104458017D01*
X138158833Y-104458017D02*
X138254071Y-104458017D01*
X138254071Y-104458017D02*
X138349309Y-104934207D01*
X138015976Y-104029445D02*
X138682643Y-104029445D01*
X138111214Y-104029445D02*
X138063595Y-103981826D01*
X138063595Y-103981826D02*
X138015976Y-103886588D01*
X138015976Y-103886588D02*
X138015976Y-103743731D01*
X138015976Y-103743731D02*
X138063595Y-103648493D01*
X138063595Y-103648493D02*
X138158833Y-103600874D01*
X138158833Y-103600874D02*
X138682643Y-103600874D01*
X138635024Y-102696112D02*
X138682643Y-102791350D01*
X138682643Y-102791350D02*
X138682643Y-102981826D01*
X138682643Y-102981826D02*
X138635024Y-103077064D01*
X138635024Y-103077064D02*
X138587404Y-103124683D01*
X138587404Y-103124683D02*
X138492166Y-103172302D01*
X138492166Y-103172302D02*
X138206452Y-103172302D01*
X138206452Y-103172302D02*
X138111214Y-103124683D01*
X138111214Y-103124683D02*
X138063595Y-103077064D01*
X138063595Y-103077064D02*
X138015976Y-102981826D01*
X138015976Y-102981826D02*
X138015976Y-102791350D01*
X138015976Y-102791350D02*
X138063595Y-102696112D01*
X138635024Y-101886588D02*
X138682643Y-101981826D01*
X138682643Y-101981826D02*
X138682643Y-102172302D01*
X138682643Y-102172302D02*
X138635024Y-102267540D01*
X138635024Y-102267540D02*
X138539785Y-102315159D01*
X138539785Y-102315159D02*
X138158833Y-102315159D01*
X138158833Y-102315159D02*
X138063595Y-102267540D01*
X138063595Y-102267540D02*
X138015976Y-102172302D01*
X138015976Y-102172302D02*
X138015976Y-101981826D01*
X138015976Y-101981826D02*
X138063595Y-101886588D01*
X138063595Y-101886588D02*
X138158833Y-101838969D01*
X138158833Y-101838969D02*
X138254071Y-101838969D01*
X138254071Y-101838969D02*
X138349309Y-102315159D01*
X138587404Y-101410397D02*
X138635024Y-101362778D01*
X138635024Y-101362778D02*
X138682643Y-101410397D01*
X138682643Y-101410397D02*
X138635024Y-101458016D01*
X138635024Y-101458016D02*
X138587404Y-101410397D01*
X138587404Y-101410397D02*
X138682643Y-101410397D01*
X138063595Y-101410397D02*
X138111214Y-101362778D01*
X138111214Y-101362778D02*
X138158833Y-101410397D01*
X138158833Y-101410397D02*
X138111214Y-101458016D01*
X138111214Y-101458016D02*
X138063595Y-101410397D01*
X138063595Y-101410397D02*
X138158833Y-101410397D01*
X138682643Y-99600874D02*
X138206452Y-99934207D01*
X138682643Y-100172302D02*
X137682643Y-100172302D01*
X137682643Y-100172302D02*
X137682643Y-99791350D01*
X137682643Y-99791350D02*
X137730262Y-99696112D01*
X137730262Y-99696112D02*
X137777881Y-99648493D01*
X137777881Y-99648493D02*
X137873119Y-99600874D01*
X137873119Y-99600874D02*
X138015976Y-99600874D01*
X138015976Y-99600874D02*
X138111214Y-99648493D01*
X138111214Y-99648493D02*
X138158833Y-99696112D01*
X138158833Y-99696112D02*
X138206452Y-99791350D01*
X138206452Y-99791350D02*
X138206452Y-100172302D01*
X138158833Y-99172302D02*
X138158833Y-98838969D01*
X138682643Y-98696112D02*
X138682643Y-99172302D01*
X138682643Y-99172302D02*
X137682643Y-99172302D01*
X137682643Y-99172302D02*
X137682643Y-98696112D01*
X138158833Y-97934207D02*
X138158833Y-98267540D01*
X138682643Y-98267540D02*
X137682643Y-98267540D01*
X137682643Y-98267540D02*
X137682643Y-97791350D01*
X137682643Y-97505635D02*
X137682643Y-96838969D01*
X137682643Y-96838969D02*
X138682643Y-97267540D01*
X137682643Y-96267540D02*
X137682643Y-96172302D01*
X137682643Y-96172302D02*
X137730262Y-96077064D01*
X137730262Y-96077064D02*
X137777881Y-96029445D01*
X137777881Y-96029445D02*
X137873119Y-95981826D01*
X137873119Y-95981826D02*
X138063595Y-95934207D01*
X138063595Y-95934207D02*
X138301690Y-95934207D01*
X138301690Y-95934207D02*
X138492166Y-95981826D01*
X138492166Y-95981826D02*
X138587404Y-96029445D01*
X138587404Y-96029445D02*
X138635024Y-96077064D01*
X138635024Y-96077064D02*
X138682643Y-96172302D01*
X138682643Y-96172302D02*
X138682643Y-96267540D01*
X138682643Y-96267540D02*
X138635024Y-96362778D01*
X138635024Y-96362778D02*
X138587404Y-96410397D01*
X138587404Y-96410397D02*
X138492166Y-96458016D01*
X138492166Y-96458016D02*
X138301690Y-96505635D01*
X138301690Y-96505635D02*
X138063595Y-96505635D01*
X138063595Y-96505635D02*
X137873119Y-96458016D01*
X137873119Y-96458016D02*
X137777881Y-96410397D01*
X137777881Y-96410397D02*
X137730262Y-96362778D01*
X137730262Y-96362778D02*
X137682643Y-96267540D01*
X137682643Y-95029445D02*
X137682643Y-95505635D01*
X137682643Y-95505635D02*
X138158833Y-95553254D01*
X138158833Y-95553254D02*
X138111214Y-95505635D01*
X138111214Y-95505635D02*
X138063595Y-95410397D01*
X138063595Y-95410397D02*
X138063595Y-95172302D01*
X138063595Y-95172302D02*
X138111214Y-95077064D01*
X138111214Y-95077064D02*
X138158833Y-95029445D01*
X138158833Y-95029445D02*
X138254071Y-94981826D01*
X138254071Y-94981826D02*
X138492166Y-94981826D01*
X138492166Y-94981826D02*
X138587404Y-95029445D01*
X138587404Y-95029445D02*
X138635024Y-95077064D01*
X138635024Y-95077064D02*
X138682643Y-95172302D01*
X138682643Y-95172302D02*
X138682643Y-95410397D01*
X138682643Y-95410397D02*
X138635024Y-95505635D01*
X138635024Y-95505635D02*
X138587404Y-95553254D01*
X137682643Y-94362778D02*
X137682643Y-94267540D01*
X137682643Y-94267540D02*
X137730262Y-94172302D01*
X137730262Y-94172302D02*
X137777881Y-94124683D01*
X137777881Y-94124683D02*
X137873119Y-94077064D01*
X137873119Y-94077064D02*
X138063595Y-94029445D01*
X138063595Y-94029445D02*
X138301690Y-94029445D01*
X138301690Y-94029445D02*
X138492166Y-94077064D01*
X138492166Y-94077064D02*
X138587404Y-94124683D01*
X138587404Y-94124683D02*
X138635024Y-94172302D01*
X138635024Y-94172302D02*
X138682643Y-94267540D01*
X138682643Y-94267540D02*
X138682643Y-94362778D01*
X138682643Y-94362778D02*
X138635024Y-94458016D01*
X138635024Y-94458016D02*
X138587404Y-94505635D01*
X138587404Y-94505635D02*
X138492166Y-94553254D01*
X138492166Y-94553254D02*
X138301690Y-94600873D01*
X138301690Y-94600873D02*
X138063595Y-94600873D01*
X138063595Y-94600873D02*
X137873119Y-94553254D01*
X137873119Y-94553254D02*
X137777881Y-94505635D01*
X137777881Y-94505635D02*
X137730262Y-94458016D01*
X137730262Y-94458016D02*
X137682643Y-94362778D01*
X138635024Y-93553254D02*
X138682643Y-93553254D01*
X138682643Y-93553254D02*
X138777881Y-93600873D01*
X138777881Y-93600873D02*
X138825500Y-93648492D01*
X138587404Y-91791350D02*
X138635024Y-91838969D01*
X138635024Y-91838969D02*
X138682643Y-91981826D01*
X138682643Y-91981826D02*
X138682643Y-92077064D01*
X138682643Y-92077064D02*
X138635024Y-92219921D01*
X138635024Y-92219921D02*
X138539785Y-92315159D01*
X138539785Y-92315159D02*
X138444547Y-92362778D01*
X138444547Y-92362778D02*
X138254071Y-92410397D01*
X138254071Y-92410397D02*
X138111214Y-92410397D01*
X138111214Y-92410397D02*
X137920738Y-92362778D01*
X137920738Y-92362778D02*
X137825500Y-92315159D01*
X137825500Y-92315159D02*
X137730262Y-92219921D01*
X137730262Y-92219921D02*
X137682643Y-92077064D01*
X137682643Y-92077064D02*
X137682643Y-91981826D01*
X137682643Y-91981826D02*
X137730262Y-91838969D01*
X137730262Y-91838969D02*
X137777881Y-91791350D01*
X138682643Y-90886588D02*
X138682643Y-91362778D01*
X138682643Y-91362778D02*
X137682643Y-91362778D01*
X138587404Y-89981826D02*
X138635024Y-90029445D01*
X138635024Y-90029445D02*
X138682643Y-90172302D01*
X138682643Y-90172302D02*
X138682643Y-90267540D01*
X138682643Y-90267540D02*
X138635024Y-90410397D01*
X138635024Y-90410397D02*
X138539785Y-90505635D01*
X138539785Y-90505635D02*
X138444547Y-90553254D01*
X138444547Y-90553254D02*
X138254071Y-90600873D01*
X138254071Y-90600873D02*
X138111214Y-90600873D01*
X138111214Y-90600873D02*
X137920738Y-90553254D01*
X137920738Y-90553254D02*
X137825500Y-90505635D01*
X137825500Y-90505635D02*
X137730262Y-90410397D01*
X137730262Y-90410397D02*
X137682643Y-90267540D01*
X137682643Y-90267540D02*
X137682643Y-90172302D01*
X137682643Y-90172302D02*
X137730262Y-90029445D01*
X137730262Y-90029445D02*
X137777881Y-89981826D01*
X138587404Y-88981826D02*
X138635024Y-89029445D01*
X138635024Y-89029445D02*
X138682643Y-89172302D01*
X138682643Y-89172302D02*
X138682643Y-89267540D01*
X138682643Y-89267540D02*
X138635024Y-89410397D01*
X138635024Y-89410397D02*
X138539785Y-89505635D01*
X138539785Y-89505635D02*
X138444547Y-89553254D01*
X138444547Y-89553254D02*
X138254071Y-89600873D01*
X138254071Y-89600873D02*
X138111214Y-89600873D01*
X138111214Y-89600873D02*
X137920738Y-89553254D01*
X137920738Y-89553254D02*
X137825500Y-89505635D01*
X137825500Y-89505635D02*
X137730262Y-89410397D01*
X137730262Y-89410397D02*
X137682643Y-89267540D01*
X137682643Y-89267540D02*
X137682643Y-89172302D01*
X137682643Y-89172302D02*
X137730262Y-89029445D01*
X137730262Y-89029445D02*
X137777881Y-88981826D01*
X139292587Y-114505639D02*
X139292587Y-114315163D01*
X139292587Y-114315163D02*
X139340206Y-114219925D01*
X139340206Y-114219925D02*
X139435444Y-114124687D01*
X139435444Y-114124687D02*
X139625920Y-114077068D01*
X139625920Y-114077068D02*
X139959253Y-114077068D01*
X139959253Y-114077068D02*
X140149729Y-114124687D01*
X140149729Y-114124687D02*
X140244968Y-114219925D01*
X140244968Y-114219925D02*
X140292587Y-114315163D01*
X140292587Y-114315163D02*
X140292587Y-114505639D01*
X140292587Y-114505639D02*
X140244968Y-114600877D01*
X140244968Y-114600877D02*
X140149729Y-114696115D01*
X140149729Y-114696115D02*
X139959253Y-114743734D01*
X139959253Y-114743734D02*
X139625920Y-114743734D01*
X139625920Y-114743734D02*
X139435444Y-114696115D01*
X139435444Y-114696115D02*
X139340206Y-114600877D01*
X139340206Y-114600877D02*
X139292587Y-114505639D01*
X139625920Y-113219925D02*
X140292587Y-113219925D01*
X139625920Y-113648496D02*
X140149729Y-113648496D01*
X140149729Y-113648496D02*
X140244968Y-113600877D01*
X140244968Y-113600877D02*
X140292587Y-113505639D01*
X140292587Y-113505639D02*
X140292587Y-113362782D01*
X140292587Y-113362782D02*
X140244968Y-113267544D01*
X140244968Y-113267544D02*
X140197348Y-113219925D01*
X139625920Y-112886591D02*
X139625920Y-112505639D01*
X139292587Y-112743734D02*
X140149729Y-112743734D01*
X140149729Y-112743734D02*
X140244968Y-112696115D01*
X140244968Y-112696115D02*
X140292587Y-112600877D01*
X140292587Y-112600877D02*
X140292587Y-112505639D01*
X139625920Y-112172305D02*
X140625920Y-112172305D01*
X139673539Y-112172305D02*
X139625920Y-112077067D01*
X139625920Y-112077067D02*
X139625920Y-111886591D01*
X139625920Y-111886591D02*
X139673539Y-111791353D01*
X139673539Y-111791353D02*
X139721158Y-111743734D01*
X139721158Y-111743734D02*
X139816396Y-111696115D01*
X139816396Y-111696115D02*
X140102110Y-111696115D01*
X140102110Y-111696115D02*
X140197348Y-111743734D01*
X140197348Y-111743734D02*
X140244968Y-111791353D01*
X140244968Y-111791353D02*
X140292587Y-111886591D01*
X140292587Y-111886591D02*
X140292587Y-112077067D01*
X140292587Y-112077067D02*
X140244968Y-112172305D01*
X139625920Y-110838972D02*
X140292587Y-110838972D01*
X139625920Y-111267543D02*
X140149729Y-111267543D01*
X140149729Y-111267543D02*
X140244968Y-111219924D01*
X140244968Y-111219924D02*
X140292587Y-111124686D01*
X140292587Y-111124686D02*
X140292587Y-110981829D01*
X140292587Y-110981829D02*
X140244968Y-110886591D01*
X140244968Y-110886591D02*
X140197348Y-110838972D01*
X139625920Y-110505638D02*
X139625920Y-110124686D01*
X139292587Y-110362781D02*
X140149729Y-110362781D01*
X140149729Y-110362781D02*
X140244968Y-110315162D01*
X140244968Y-110315162D02*
X140292587Y-110219924D01*
X140292587Y-110219924D02*
X140292587Y-110124686D01*
X139625920Y-109124685D02*
X140292587Y-108886590D01*
X140292587Y-108886590D02*
X139625920Y-108648495D01*
X140292587Y-108124685D02*
X140244968Y-108219923D01*
X140244968Y-108219923D02*
X140197348Y-108267542D01*
X140197348Y-108267542D02*
X140102110Y-108315161D01*
X140102110Y-108315161D02*
X139816396Y-108315161D01*
X139816396Y-108315161D02*
X139721158Y-108267542D01*
X139721158Y-108267542D02*
X139673539Y-108219923D01*
X139673539Y-108219923D02*
X139625920Y-108124685D01*
X139625920Y-108124685D02*
X139625920Y-107981828D01*
X139625920Y-107981828D02*
X139673539Y-107886590D01*
X139673539Y-107886590D02*
X139721158Y-107838971D01*
X139721158Y-107838971D02*
X139816396Y-107791352D01*
X139816396Y-107791352D02*
X140102110Y-107791352D01*
X140102110Y-107791352D02*
X140197348Y-107838971D01*
X140197348Y-107838971D02*
X140244968Y-107886590D01*
X140244968Y-107886590D02*
X140292587Y-107981828D01*
X140292587Y-107981828D02*
X140292587Y-108124685D01*
X140292587Y-107219923D02*
X140244968Y-107315161D01*
X140244968Y-107315161D02*
X140149729Y-107362780D01*
X140149729Y-107362780D02*
X139292587Y-107362780D01*
X139625920Y-106981827D02*
X139625920Y-106600875D01*
X139292587Y-106838970D02*
X140149729Y-106838970D01*
X140149729Y-106838970D02*
X140244968Y-106791351D01*
X140244968Y-106791351D02*
X140292587Y-106696113D01*
X140292587Y-106696113D02*
X140292587Y-106600875D01*
X140292587Y-105838970D02*
X139768777Y-105838970D01*
X139768777Y-105838970D02*
X139673539Y-105886589D01*
X139673539Y-105886589D02*
X139625920Y-105981827D01*
X139625920Y-105981827D02*
X139625920Y-106172303D01*
X139625920Y-106172303D02*
X139673539Y-106267541D01*
X140244968Y-105838970D02*
X140292587Y-105934208D01*
X140292587Y-105934208D02*
X140292587Y-106172303D01*
X140292587Y-106172303D02*
X140244968Y-106267541D01*
X140244968Y-106267541D02*
X140149729Y-106315160D01*
X140149729Y-106315160D02*
X140054491Y-106315160D01*
X140054491Y-106315160D02*
X139959253Y-106267541D01*
X139959253Y-106267541D02*
X139911634Y-106172303D01*
X139911634Y-106172303D02*
X139911634Y-105934208D01*
X139911634Y-105934208D02*
X139864015Y-105838970D01*
X139625920Y-104934208D02*
X140435444Y-104934208D01*
X140435444Y-104934208D02*
X140530682Y-104981827D01*
X140530682Y-104981827D02*
X140578301Y-105029446D01*
X140578301Y-105029446D02*
X140625920Y-105124684D01*
X140625920Y-105124684D02*
X140625920Y-105267541D01*
X140625920Y-105267541D02*
X140578301Y-105362779D01*
X140244968Y-104934208D02*
X140292587Y-105029446D01*
X140292587Y-105029446D02*
X140292587Y-105219922D01*
X140292587Y-105219922D02*
X140244968Y-105315160D01*
X140244968Y-105315160D02*
X140197348Y-105362779D01*
X140197348Y-105362779D02*
X140102110Y-105410398D01*
X140102110Y-105410398D02*
X139816396Y-105410398D01*
X139816396Y-105410398D02*
X139721158Y-105362779D01*
X139721158Y-105362779D02*
X139673539Y-105315160D01*
X139673539Y-105315160D02*
X139625920Y-105219922D01*
X139625920Y-105219922D02*
X139625920Y-105029446D01*
X139625920Y-105029446D02*
X139673539Y-104934208D01*
X140244968Y-104077065D02*
X140292587Y-104172303D01*
X140292587Y-104172303D02*
X140292587Y-104362779D01*
X140292587Y-104362779D02*
X140244968Y-104458017D01*
X140244968Y-104458017D02*
X140149729Y-104505636D01*
X140149729Y-104505636D02*
X139768777Y-104505636D01*
X139768777Y-104505636D02*
X139673539Y-104458017D01*
X139673539Y-104458017D02*
X139625920Y-104362779D01*
X139625920Y-104362779D02*
X139625920Y-104172303D01*
X139625920Y-104172303D02*
X139673539Y-104077065D01*
X139673539Y-104077065D02*
X139768777Y-104029446D01*
X139768777Y-104029446D02*
X139864015Y-104029446D01*
X139864015Y-104029446D02*
X139959253Y-104505636D01*
X140197348Y-103600874D02*
X140244968Y-103553255D01*
X140244968Y-103553255D02*
X140292587Y-103600874D01*
X140292587Y-103600874D02*
X140244968Y-103648493D01*
X140244968Y-103648493D02*
X140197348Y-103600874D01*
X140197348Y-103600874D02*
X140292587Y-103600874D01*
X139673539Y-103600874D02*
X139721158Y-103553255D01*
X139721158Y-103553255D02*
X139768777Y-103600874D01*
X139768777Y-103600874D02*
X139721158Y-103648493D01*
X139721158Y-103648493D02*
X139673539Y-103600874D01*
X139673539Y-103600874D02*
X139768777Y-103600874D01*
X139292587Y-101886589D02*
X139292587Y-102362779D01*
X139292587Y-102362779D02*
X139768777Y-102410398D01*
X139768777Y-102410398D02*
X139721158Y-102362779D01*
X139721158Y-102362779D02*
X139673539Y-102267541D01*
X139673539Y-102267541D02*
X139673539Y-102029446D01*
X139673539Y-102029446D02*
X139721158Y-101934208D01*
X139721158Y-101934208D02*
X139768777Y-101886589D01*
X139768777Y-101886589D02*
X139864015Y-101838970D01*
X139864015Y-101838970D02*
X140102110Y-101838970D01*
X140102110Y-101838970D02*
X140197348Y-101886589D01*
X140197348Y-101886589D02*
X140244968Y-101934208D01*
X140244968Y-101934208D02*
X140292587Y-102029446D01*
X140292587Y-102029446D02*
X140292587Y-102267541D01*
X140292587Y-102267541D02*
X140244968Y-102362779D01*
X140244968Y-102362779D02*
X140197348Y-102410398D01*
X140197348Y-101410398D02*
X140244968Y-101362779D01*
X140244968Y-101362779D02*
X140292587Y-101410398D01*
X140292587Y-101410398D02*
X140244968Y-101458017D01*
X140244968Y-101458017D02*
X140197348Y-101410398D01*
X140197348Y-101410398D02*
X140292587Y-101410398D01*
X139292587Y-100743732D02*
X139292587Y-100648494D01*
X139292587Y-100648494D02*
X139340206Y-100553256D01*
X139340206Y-100553256D02*
X139387825Y-100505637D01*
X139387825Y-100505637D02*
X139483063Y-100458018D01*
X139483063Y-100458018D02*
X139673539Y-100410399D01*
X139673539Y-100410399D02*
X139911634Y-100410399D01*
X139911634Y-100410399D02*
X140102110Y-100458018D01*
X140102110Y-100458018D02*
X140197348Y-100505637D01*
X140197348Y-100505637D02*
X140244968Y-100553256D01*
X140244968Y-100553256D02*
X140292587Y-100648494D01*
X140292587Y-100648494D02*
X140292587Y-100743732D01*
X140292587Y-100743732D02*
X140244968Y-100838970D01*
X140244968Y-100838970D02*
X140197348Y-100886589D01*
X140197348Y-100886589D02*
X140102110Y-100934208D01*
X140102110Y-100934208D02*
X139911634Y-100981827D01*
X139911634Y-100981827D02*
X139673539Y-100981827D01*
X139673539Y-100981827D02*
X139483063Y-100934208D01*
X139483063Y-100934208D02*
X139387825Y-100886589D01*
X139387825Y-100886589D02*
X139340206Y-100838970D01*
X139340206Y-100838970D02*
X139292587Y-100743732D01*
X139292587Y-100124684D02*
X140292587Y-99791351D01*
X140292587Y-99791351D02*
X139292587Y-99458018D01*
X140902531Y-114505639D02*
X140902531Y-114315163D01*
X140902531Y-114315163D02*
X140950150Y-114219925D01*
X140950150Y-114219925D02*
X141045388Y-114124687D01*
X141045388Y-114124687D02*
X141235864Y-114077068D01*
X141235864Y-114077068D02*
X141569197Y-114077068D01*
X141569197Y-114077068D02*
X141759673Y-114124687D01*
X141759673Y-114124687D02*
X141854912Y-114219925D01*
X141854912Y-114219925D02*
X141902531Y-114315163D01*
X141902531Y-114315163D02*
X141902531Y-114505639D01*
X141902531Y-114505639D02*
X141854912Y-114600877D01*
X141854912Y-114600877D02*
X141759673Y-114696115D01*
X141759673Y-114696115D02*
X141569197Y-114743734D01*
X141569197Y-114743734D02*
X141235864Y-114743734D01*
X141235864Y-114743734D02*
X141045388Y-114696115D01*
X141045388Y-114696115D02*
X140950150Y-114600877D01*
X140950150Y-114600877D02*
X140902531Y-114505639D01*
X141235864Y-113219925D02*
X141902531Y-113219925D01*
X141235864Y-113648496D02*
X141759673Y-113648496D01*
X141759673Y-113648496D02*
X141854912Y-113600877D01*
X141854912Y-113600877D02*
X141902531Y-113505639D01*
X141902531Y-113505639D02*
X141902531Y-113362782D01*
X141902531Y-113362782D02*
X141854912Y-113267544D01*
X141854912Y-113267544D02*
X141807292Y-113219925D01*
X141235864Y-112886591D02*
X141235864Y-112505639D01*
X140902531Y-112743734D02*
X141759673Y-112743734D01*
X141759673Y-112743734D02*
X141854912Y-112696115D01*
X141854912Y-112696115D02*
X141902531Y-112600877D01*
X141902531Y-112600877D02*
X141902531Y-112505639D01*
X141235864Y-112172305D02*
X142235864Y-112172305D01*
X141283483Y-112172305D02*
X141235864Y-112077067D01*
X141235864Y-112077067D02*
X141235864Y-111886591D01*
X141235864Y-111886591D02*
X141283483Y-111791353D01*
X141283483Y-111791353D02*
X141331102Y-111743734D01*
X141331102Y-111743734D02*
X141426340Y-111696115D01*
X141426340Y-111696115D02*
X141712054Y-111696115D01*
X141712054Y-111696115D02*
X141807292Y-111743734D01*
X141807292Y-111743734D02*
X141854912Y-111791353D01*
X141854912Y-111791353D02*
X141902531Y-111886591D01*
X141902531Y-111886591D02*
X141902531Y-112077067D01*
X141902531Y-112077067D02*
X141854912Y-112172305D01*
X141235864Y-110838972D02*
X141902531Y-110838972D01*
X141235864Y-111267543D02*
X141759673Y-111267543D01*
X141759673Y-111267543D02*
X141854912Y-111219924D01*
X141854912Y-111219924D02*
X141902531Y-111124686D01*
X141902531Y-111124686D02*
X141902531Y-110981829D01*
X141902531Y-110981829D02*
X141854912Y-110886591D01*
X141854912Y-110886591D02*
X141807292Y-110838972D01*
X141235864Y-110505638D02*
X141235864Y-110124686D01*
X140902531Y-110362781D02*
X141759673Y-110362781D01*
X141759673Y-110362781D02*
X141854912Y-110315162D01*
X141854912Y-110315162D02*
X141902531Y-110219924D01*
X141902531Y-110219924D02*
X141902531Y-110124686D01*
X141902531Y-108600876D02*
X141378721Y-108600876D01*
X141378721Y-108600876D02*
X141283483Y-108648495D01*
X141283483Y-108648495D02*
X141235864Y-108743733D01*
X141235864Y-108743733D02*
X141235864Y-108934209D01*
X141235864Y-108934209D02*
X141283483Y-109029447D01*
X141854912Y-108600876D02*
X141902531Y-108696114D01*
X141902531Y-108696114D02*
X141902531Y-108934209D01*
X141902531Y-108934209D02*
X141854912Y-109029447D01*
X141854912Y-109029447D02*
X141759673Y-109077066D01*
X141759673Y-109077066D02*
X141664435Y-109077066D01*
X141664435Y-109077066D02*
X141569197Y-109029447D01*
X141569197Y-109029447D02*
X141521578Y-108934209D01*
X141521578Y-108934209D02*
X141521578Y-108696114D01*
X141521578Y-108696114D02*
X141473959Y-108600876D01*
X141854912Y-107696114D02*
X141902531Y-107791352D01*
X141902531Y-107791352D02*
X141902531Y-107981828D01*
X141902531Y-107981828D02*
X141854912Y-108077066D01*
X141854912Y-108077066D02*
X141807292Y-108124685D01*
X141807292Y-108124685D02*
X141712054Y-108172304D01*
X141712054Y-108172304D02*
X141426340Y-108172304D01*
X141426340Y-108172304D02*
X141331102Y-108124685D01*
X141331102Y-108124685D02*
X141283483Y-108077066D01*
X141283483Y-108077066D02*
X141235864Y-107981828D01*
X141235864Y-107981828D02*
X141235864Y-107791352D01*
X141235864Y-107791352D02*
X141283483Y-107696114D01*
X141854912Y-106838971D02*
X141902531Y-106934209D01*
X141902531Y-106934209D02*
X141902531Y-107124685D01*
X141902531Y-107124685D02*
X141854912Y-107219923D01*
X141854912Y-107219923D02*
X141807292Y-107267542D01*
X141807292Y-107267542D02*
X141712054Y-107315161D01*
X141712054Y-107315161D02*
X141426340Y-107315161D01*
X141426340Y-107315161D02*
X141331102Y-107267542D01*
X141331102Y-107267542D02*
X141283483Y-107219923D01*
X141283483Y-107219923D02*
X141235864Y-107124685D01*
X141235864Y-107124685D02*
X141235864Y-106934209D01*
X141235864Y-106934209D02*
X141283483Y-106838971D01*
X141235864Y-105981828D02*
X141902531Y-105981828D01*
X141235864Y-106410399D02*
X141759673Y-106410399D01*
X141759673Y-106410399D02*
X141854912Y-106362780D01*
X141854912Y-106362780D02*
X141902531Y-106267542D01*
X141902531Y-106267542D02*
X141902531Y-106124685D01*
X141902531Y-106124685D02*
X141854912Y-106029447D01*
X141854912Y-106029447D02*
X141807292Y-105981828D01*
X141902531Y-105505637D02*
X141235864Y-105505637D01*
X141426340Y-105505637D02*
X141331102Y-105458018D01*
X141331102Y-105458018D02*
X141283483Y-105410399D01*
X141283483Y-105410399D02*
X141235864Y-105315161D01*
X141235864Y-105315161D02*
X141235864Y-105219923D01*
X141902531Y-104458018D02*
X141378721Y-104458018D01*
X141378721Y-104458018D02*
X141283483Y-104505637D01*
X141283483Y-104505637D02*
X141235864Y-104600875D01*
X141235864Y-104600875D02*
X141235864Y-104791351D01*
X141235864Y-104791351D02*
X141283483Y-104886589D01*
X141854912Y-104458018D02*
X141902531Y-104553256D01*
X141902531Y-104553256D02*
X141902531Y-104791351D01*
X141902531Y-104791351D02*
X141854912Y-104886589D01*
X141854912Y-104886589D02*
X141759673Y-104934208D01*
X141759673Y-104934208D02*
X141664435Y-104934208D01*
X141664435Y-104934208D02*
X141569197Y-104886589D01*
X141569197Y-104886589D02*
X141521578Y-104791351D01*
X141521578Y-104791351D02*
X141521578Y-104553256D01*
X141521578Y-104553256D02*
X141473959Y-104458018D01*
X141854912Y-103553256D02*
X141902531Y-103648494D01*
X141902531Y-103648494D02*
X141902531Y-103838970D01*
X141902531Y-103838970D02*
X141854912Y-103934208D01*
X141854912Y-103934208D02*
X141807292Y-103981827D01*
X141807292Y-103981827D02*
X141712054Y-104029446D01*
X141712054Y-104029446D02*
X141426340Y-104029446D01*
X141426340Y-104029446D02*
X141331102Y-103981827D01*
X141331102Y-103981827D02*
X141283483Y-103934208D01*
X141283483Y-103934208D02*
X141235864Y-103838970D01*
X141235864Y-103838970D02*
X141235864Y-103648494D01*
X141235864Y-103648494D02*
X141283483Y-103553256D01*
X141235864Y-103219922D02*
X141902531Y-102981827D01*
X141235864Y-102743732D02*
X141902531Y-102981827D01*
X141902531Y-102981827D02*
X142140626Y-103077065D01*
X142140626Y-103077065D02*
X142188245Y-103124684D01*
X142188245Y-103124684D02*
X142235864Y-103219922D01*
X141807292Y-102362779D02*
X141854912Y-102315160D01*
X141854912Y-102315160D02*
X141902531Y-102362779D01*
X141902531Y-102362779D02*
X141854912Y-102410398D01*
X141854912Y-102410398D02*
X141807292Y-102362779D01*
X141807292Y-102362779D02*
X141902531Y-102362779D01*
X141283483Y-102362779D02*
X141331102Y-102315160D01*
X141331102Y-102315160D02*
X141378721Y-102362779D01*
X141378721Y-102362779D02*
X141331102Y-102410398D01*
X141331102Y-102410398D02*
X141283483Y-102362779D01*
X141283483Y-102362779D02*
X141378721Y-102362779D01*
X141331102Y-101124684D02*
X141331102Y-100362780D01*
X141712054Y-100743732D02*
X140950150Y-100743732D01*
X141902531Y-100362780D02*
X141902531Y-101124684D01*
X140902531Y-99696113D02*
X140902531Y-99600875D01*
X140902531Y-99600875D02*
X140950150Y-99505637D01*
X140950150Y-99505637D02*
X140997769Y-99458018D01*
X140997769Y-99458018D02*
X141093007Y-99410399D01*
X141093007Y-99410399D02*
X141283483Y-99362780D01*
X141283483Y-99362780D02*
X141521578Y-99362780D01*
X141521578Y-99362780D02*
X141712054Y-99410399D01*
X141712054Y-99410399D02*
X141807292Y-99458018D01*
X141807292Y-99458018D02*
X141854912Y-99505637D01*
X141854912Y-99505637D02*
X141902531Y-99600875D01*
X141902531Y-99600875D02*
X141902531Y-99696113D01*
X141902531Y-99696113D02*
X141854912Y-99791351D01*
X141854912Y-99791351D02*
X141807292Y-99838970D01*
X141807292Y-99838970D02*
X141712054Y-99886589D01*
X141712054Y-99886589D02*
X141521578Y-99934208D01*
X141521578Y-99934208D02*
X141283483Y-99934208D01*
X141283483Y-99934208D02*
X141093007Y-99886589D01*
X141093007Y-99886589D02*
X140997769Y-99838970D01*
X140997769Y-99838970D02*
X140950150Y-99791351D01*
X140950150Y-99791351D02*
X140902531Y-99696113D01*
X141807292Y-98934208D02*
X141854912Y-98886589D01*
X141854912Y-98886589D02*
X141902531Y-98934208D01*
X141902531Y-98934208D02*
X141854912Y-98981827D01*
X141854912Y-98981827D02*
X141807292Y-98934208D01*
X141807292Y-98934208D02*
X141902531Y-98934208D01*
X140902531Y-98267542D02*
X140902531Y-98172304D01*
X140902531Y-98172304D02*
X140950150Y-98077066D01*
X140950150Y-98077066D02*
X140997769Y-98029447D01*
X140997769Y-98029447D02*
X141093007Y-97981828D01*
X141093007Y-97981828D02*
X141283483Y-97934209D01*
X141283483Y-97934209D02*
X141521578Y-97934209D01*
X141521578Y-97934209D02*
X141712054Y-97981828D01*
X141712054Y-97981828D02*
X141807292Y-98029447D01*
X141807292Y-98029447D02*
X141854912Y-98077066D01*
X141854912Y-98077066D02*
X141902531Y-98172304D01*
X141902531Y-98172304D02*
X141902531Y-98267542D01*
X141902531Y-98267542D02*
X141854912Y-98362780D01*
X141854912Y-98362780D02*
X141807292Y-98410399D01*
X141807292Y-98410399D02*
X141712054Y-98458018D01*
X141712054Y-98458018D02*
X141521578Y-98505637D01*
X141521578Y-98505637D02*
X141283483Y-98505637D01*
X141283483Y-98505637D02*
X141093007Y-98458018D01*
X141093007Y-98458018D02*
X140997769Y-98410399D01*
X140997769Y-98410399D02*
X140950150Y-98362780D01*
X140950150Y-98362780D02*
X140902531Y-98267542D01*
X140997769Y-97553256D02*
X140950150Y-97505637D01*
X140950150Y-97505637D02*
X140902531Y-97410399D01*
X140902531Y-97410399D02*
X140902531Y-97172304D01*
X140902531Y-97172304D02*
X140950150Y-97077066D01*
X140950150Y-97077066D02*
X140997769Y-97029447D01*
X140997769Y-97029447D02*
X141093007Y-96981828D01*
X141093007Y-96981828D02*
X141188245Y-96981828D01*
X141188245Y-96981828D02*
X141331102Y-97029447D01*
X141331102Y-97029447D02*
X141902531Y-97600875D01*
X141902531Y-97600875D02*
X141902531Y-96981828D01*
X140902531Y-96077066D02*
X140902531Y-96553256D01*
X140902531Y-96553256D02*
X141378721Y-96600875D01*
X141378721Y-96600875D02*
X141331102Y-96553256D01*
X141331102Y-96553256D02*
X141283483Y-96458018D01*
X141283483Y-96458018D02*
X141283483Y-96219923D01*
X141283483Y-96219923D02*
X141331102Y-96124685D01*
X141331102Y-96124685D02*
X141378721Y-96077066D01*
X141378721Y-96077066D02*
X141473959Y-96029447D01*
X141473959Y-96029447D02*
X141712054Y-96029447D01*
X141712054Y-96029447D02*
X141807292Y-96077066D01*
X141807292Y-96077066D02*
X141854912Y-96124685D01*
X141854912Y-96124685D02*
X141902531Y-96219923D01*
X141902531Y-96219923D02*
X141902531Y-96458018D01*
X141902531Y-96458018D02*
X141854912Y-96553256D01*
X141854912Y-96553256D02*
X141807292Y-96600875D01*
X141902531Y-95648494D02*
X140902531Y-94886590D01*
X140902531Y-95505637D02*
X140950150Y-95410399D01*
X140950150Y-95410399D02*
X141045388Y-95362780D01*
X141045388Y-95362780D02*
X141140626Y-95410399D01*
X141140626Y-95410399D02*
X141188245Y-95505637D01*
X141188245Y-95505637D02*
X141140626Y-95600875D01*
X141140626Y-95600875D02*
X141045388Y-95648494D01*
X141045388Y-95648494D02*
X140950150Y-95600875D01*
X140950150Y-95600875D02*
X140902531Y-95505637D01*
X141854912Y-94934209D02*
X141759673Y-94886590D01*
X141759673Y-94886590D02*
X141664435Y-94934209D01*
X141664435Y-94934209D02*
X141616816Y-95029447D01*
X141616816Y-95029447D02*
X141664435Y-95124685D01*
X141664435Y-95124685D02*
X141759673Y-95172304D01*
X141759673Y-95172304D02*
X141854912Y-95124685D01*
X141854912Y-95124685D02*
X141902531Y-95029447D01*
X141902531Y-95029447D02*
X141854912Y-94934209D01*
X142512475Y-114838972D02*
X142512475Y-114267544D01*
X143512475Y-114553258D02*
X142512475Y-114553258D01*
X143464856Y-113553258D02*
X143512475Y-113648496D01*
X143512475Y-113648496D02*
X143512475Y-113838972D01*
X143512475Y-113838972D02*
X143464856Y-113934210D01*
X143464856Y-113934210D02*
X143369617Y-113981829D01*
X143369617Y-113981829D02*
X142988665Y-113981829D01*
X142988665Y-113981829D02*
X142893427Y-113934210D01*
X142893427Y-113934210D02*
X142845808Y-113838972D01*
X142845808Y-113838972D02*
X142845808Y-113648496D01*
X142845808Y-113648496D02*
X142893427Y-113553258D01*
X142893427Y-113553258D02*
X142988665Y-113505639D01*
X142988665Y-113505639D02*
X143083903Y-113505639D01*
X143083903Y-113505639D02*
X143179141Y-113981829D01*
X143512475Y-113077067D02*
X142845808Y-113077067D01*
X142941046Y-113077067D02*
X142893427Y-113029448D01*
X142893427Y-113029448D02*
X142845808Y-112934210D01*
X142845808Y-112934210D02*
X142845808Y-112791353D01*
X142845808Y-112791353D02*
X142893427Y-112696115D01*
X142893427Y-112696115D02*
X142988665Y-112648496D01*
X142988665Y-112648496D02*
X143512475Y-112648496D01*
X142988665Y-112648496D02*
X142893427Y-112600877D01*
X142893427Y-112600877D02*
X142845808Y-112505639D01*
X142845808Y-112505639D02*
X142845808Y-112362782D01*
X142845808Y-112362782D02*
X142893427Y-112267543D01*
X142893427Y-112267543D02*
X142988665Y-112219924D01*
X142988665Y-112219924D02*
X143512475Y-112219924D01*
X142845808Y-111743734D02*
X143845808Y-111743734D01*
X142893427Y-111743734D02*
X142845808Y-111648496D01*
X142845808Y-111648496D02*
X142845808Y-111458020D01*
X142845808Y-111458020D02*
X142893427Y-111362782D01*
X142893427Y-111362782D02*
X142941046Y-111315163D01*
X142941046Y-111315163D02*
X143036284Y-111267544D01*
X143036284Y-111267544D02*
X143321998Y-111267544D01*
X143321998Y-111267544D02*
X143417236Y-111315163D01*
X143417236Y-111315163D02*
X143464856Y-111362782D01*
X143464856Y-111362782D02*
X143512475Y-111458020D01*
X143512475Y-111458020D02*
X143512475Y-111648496D01*
X143512475Y-111648496D02*
X143464856Y-111743734D01*
X143464856Y-109648496D02*
X143512475Y-109743734D01*
X143512475Y-109743734D02*
X143512475Y-109934210D01*
X143512475Y-109934210D02*
X143464856Y-110029448D01*
X143464856Y-110029448D02*
X143417236Y-110077067D01*
X143417236Y-110077067D02*
X143321998Y-110124686D01*
X143321998Y-110124686D02*
X143036284Y-110124686D01*
X143036284Y-110124686D02*
X142941046Y-110077067D01*
X142941046Y-110077067D02*
X142893427Y-110029448D01*
X142893427Y-110029448D02*
X142845808Y-109934210D01*
X142845808Y-109934210D02*
X142845808Y-109743734D01*
X142845808Y-109743734D02*
X142893427Y-109648496D01*
X143512475Y-109077067D02*
X143464856Y-109172305D01*
X143464856Y-109172305D02*
X143417236Y-109219924D01*
X143417236Y-109219924D02*
X143321998Y-109267543D01*
X143321998Y-109267543D02*
X143036284Y-109267543D01*
X143036284Y-109267543D02*
X142941046Y-109219924D01*
X142941046Y-109219924D02*
X142893427Y-109172305D01*
X142893427Y-109172305D02*
X142845808Y-109077067D01*
X142845808Y-109077067D02*
X142845808Y-108934210D01*
X142845808Y-108934210D02*
X142893427Y-108838972D01*
X142893427Y-108838972D02*
X142941046Y-108791353D01*
X142941046Y-108791353D02*
X143036284Y-108743734D01*
X143036284Y-108743734D02*
X143321998Y-108743734D01*
X143321998Y-108743734D02*
X143417236Y-108791353D01*
X143417236Y-108791353D02*
X143464856Y-108838972D01*
X143464856Y-108838972D02*
X143512475Y-108934210D01*
X143512475Y-108934210D02*
X143512475Y-109077067D01*
X143464856Y-107934210D02*
X143512475Y-108029448D01*
X143512475Y-108029448D02*
X143512475Y-108219924D01*
X143512475Y-108219924D02*
X143464856Y-108315162D01*
X143464856Y-108315162D02*
X143369617Y-108362781D01*
X143369617Y-108362781D02*
X142988665Y-108362781D01*
X142988665Y-108362781D02*
X142893427Y-108315162D01*
X142893427Y-108315162D02*
X142845808Y-108219924D01*
X142845808Y-108219924D02*
X142845808Y-108029448D01*
X142845808Y-108029448D02*
X142893427Y-107934210D01*
X142893427Y-107934210D02*
X142988665Y-107886591D01*
X142988665Y-107886591D02*
X143083903Y-107886591D01*
X143083903Y-107886591D02*
X143179141Y-108362781D01*
X142845808Y-107600876D02*
X142845808Y-107219924D01*
X143512475Y-107458019D02*
X142655332Y-107458019D01*
X142655332Y-107458019D02*
X142560094Y-107410400D01*
X142560094Y-107410400D02*
X142512475Y-107315162D01*
X142512475Y-107315162D02*
X142512475Y-107219924D01*
X142845808Y-107029447D02*
X142845808Y-106648495D01*
X143512475Y-106886590D02*
X142655332Y-106886590D01*
X142655332Y-106886590D02*
X142560094Y-106838971D01*
X142560094Y-106838971D02*
X142512475Y-106743733D01*
X142512475Y-106743733D02*
X142512475Y-106648495D01*
X143512475Y-106315161D02*
X142845808Y-106315161D01*
X142512475Y-106315161D02*
X142560094Y-106362780D01*
X142560094Y-106362780D02*
X142607713Y-106315161D01*
X142607713Y-106315161D02*
X142560094Y-106267542D01*
X142560094Y-106267542D02*
X142512475Y-106315161D01*
X142512475Y-106315161D02*
X142607713Y-106315161D01*
X143464856Y-105410400D02*
X143512475Y-105505638D01*
X143512475Y-105505638D02*
X143512475Y-105696114D01*
X143512475Y-105696114D02*
X143464856Y-105791352D01*
X143464856Y-105791352D02*
X143417236Y-105838971D01*
X143417236Y-105838971D02*
X143321998Y-105886590D01*
X143321998Y-105886590D02*
X143036284Y-105886590D01*
X143036284Y-105886590D02*
X142941046Y-105838971D01*
X142941046Y-105838971D02*
X142893427Y-105791352D01*
X142893427Y-105791352D02*
X142845808Y-105696114D01*
X142845808Y-105696114D02*
X142845808Y-105505638D01*
X142845808Y-105505638D02*
X142893427Y-105410400D01*
X143512475Y-104981828D02*
X142845808Y-104981828D01*
X142512475Y-104981828D02*
X142560094Y-105029447D01*
X142560094Y-105029447D02*
X142607713Y-104981828D01*
X142607713Y-104981828D02*
X142560094Y-104934209D01*
X142560094Y-104934209D02*
X142512475Y-104981828D01*
X142512475Y-104981828D02*
X142607713Y-104981828D01*
X143464856Y-104124686D02*
X143512475Y-104219924D01*
X143512475Y-104219924D02*
X143512475Y-104410400D01*
X143512475Y-104410400D02*
X143464856Y-104505638D01*
X143464856Y-104505638D02*
X143369617Y-104553257D01*
X143369617Y-104553257D02*
X142988665Y-104553257D01*
X142988665Y-104553257D02*
X142893427Y-104505638D01*
X142893427Y-104505638D02*
X142845808Y-104410400D01*
X142845808Y-104410400D02*
X142845808Y-104219924D01*
X142845808Y-104219924D02*
X142893427Y-104124686D01*
X142893427Y-104124686D02*
X142988665Y-104077067D01*
X142988665Y-104077067D02*
X143083903Y-104077067D01*
X143083903Y-104077067D02*
X143179141Y-104553257D01*
X142845808Y-103648495D02*
X143512475Y-103648495D01*
X142941046Y-103648495D02*
X142893427Y-103600876D01*
X142893427Y-103600876D02*
X142845808Y-103505638D01*
X142845808Y-103505638D02*
X142845808Y-103362781D01*
X142845808Y-103362781D02*
X142893427Y-103267543D01*
X142893427Y-103267543D02*
X142988665Y-103219924D01*
X142988665Y-103219924D02*
X143512475Y-103219924D01*
X142845808Y-102886590D02*
X142845808Y-102505638D01*
X142512475Y-102743733D02*
X143369617Y-102743733D01*
X143369617Y-102743733D02*
X143464856Y-102696114D01*
X143464856Y-102696114D02*
X143512475Y-102600876D01*
X143512475Y-102600876D02*
X143512475Y-102505638D01*
X143417236Y-102172304D02*
X143464856Y-102124685D01*
X143464856Y-102124685D02*
X143512475Y-102172304D01*
X143512475Y-102172304D02*
X143464856Y-102219923D01*
X143464856Y-102219923D02*
X143417236Y-102172304D01*
X143417236Y-102172304D02*
X143512475Y-102172304D01*
X142893427Y-102172304D02*
X142941046Y-102124685D01*
X142941046Y-102124685D02*
X142988665Y-102172304D01*
X142988665Y-102172304D02*
X142941046Y-102219923D01*
X142941046Y-102219923D02*
X142893427Y-102172304D01*
X142893427Y-102172304D02*
X142988665Y-102172304D01*
X142941046Y-100934209D02*
X142941046Y-100172305D01*
X143321998Y-100553257D02*
X142560094Y-100553257D01*
X143512475Y-100172305D02*
X143512475Y-100934209D01*
X142607713Y-99743733D02*
X142560094Y-99696114D01*
X142560094Y-99696114D02*
X142512475Y-99600876D01*
X142512475Y-99600876D02*
X142512475Y-99362781D01*
X142512475Y-99362781D02*
X142560094Y-99267543D01*
X142560094Y-99267543D02*
X142607713Y-99219924D01*
X142607713Y-99219924D02*
X142702951Y-99172305D01*
X142702951Y-99172305D02*
X142798189Y-99172305D01*
X142798189Y-99172305D02*
X142941046Y-99219924D01*
X142941046Y-99219924D02*
X143512475Y-99791352D01*
X143512475Y-99791352D02*
X143512475Y-99172305D01*
X142845808Y-98743733D02*
X143845808Y-98743733D01*
X142893427Y-98743733D02*
X142845808Y-98648495D01*
X142845808Y-98648495D02*
X142845808Y-98458019D01*
X142845808Y-98458019D02*
X142893427Y-98362781D01*
X142893427Y-98362781D02*
X142941046Y-98315162D01*
X142941046Y-98315162D02*
X143036284Y-98267543D01*
X143036284Y-98267543D02*
X143321998Y-98267543D01*
X143321998Y-98267543D02*
X143417236Y-98315162D01*
X143417236Y-98315162D02*
X143464856Y-98362781D01*
X143464856Y-98362781D02*
X143512475Y-98458019D01*
X143512475Y-98458019D02*
X143512475Y-98648495D01*
X143512475Y-98648495D02*
X143464856Y-98743733D01*
X142845808Y-97838971D02*
X143845808Y-97838971D01*
X142893427Y-97838971D02*
X142845808Y-97743733D01*
X142845808Y-97743733D02*
X142845808Y-97553257D01*
X142845808Y-97553257D02*
X142893427Y-97458019D01*
X142893427Y-97458019D02*
X142941046Y-97410400D01*
X142941046Y-97410400D02*
X143036284Y-97362781D01*
X143036284Y-97362781D02*
X143321998Y-97362781D01*
X143321998Y-97362781D02*
X143417236Y-97410400D01*
X143417236Y-97410400D02*
X143464856Y-97458019D01*
X143464856Y-97458019D02*
X143512475Y-97553257D01*
X143512475Y-97553257D02*
X143512475Y-97743733D01*
X143512475Y-97743733D02*
X143464856Y-97838971D01*
X143512475Y-96934209D02*
X142845808Y-96934209D01*
X142941046Y-96934209D02*
X142893427Y-96886590D01*
X142893427Y-96886590D02*
X142845808Y-96791352D01*
X142845808Y-96791352D02*
X142845808Y-96648495D01*
X142845808Y-96648495D02*
X142893427Y-96553257D01*
X142893427Y-96553257D02*
X142988665Y-96505638D01*
X142988665Y-96505638D02*
X143512475Y-96505638D01*
X142988665Y-96505638D02*
X142893427Y-96458019D01*
X142893427Y-96458019D02*
X142845808Y-96362781D01*
X142845808Y-96362781D02*
X142845808Y-96219924D01*
X142845808Y-96219924D02*
X142893427Y-96124685D01*
X142893427Y-96124685D02*
X142988665Y-96077066D01*
X142988665Y-96077066D02*
X143512475Y-96077066D01*
X142464856Y-94886591D02*
X143750570Y-95743733D01*
X142512475Y-94410400D02*
X142560094Y-94505638D01*
X142560094Y-94505638D02*
X142655332Y-94553257D01*
X142655332Y-94553257D02*
X142750570Y-94505638D01*
X142750570Y-94505638D02*
X142798189Y-94410400D01*
X142798189Y-94410400D02*
X142750570Y-94315162D01*
X142750570Y-94315162D02*
X142655332Y-94267543D01*
X142655332Y-94267543D02*
X142560094Y-94315162D01*
X142560094Y-94315162D02*
X142512475Y-94410400D01*
X143417236Y-93219924D02*
X143464856Y-93267543D01*
X143464856Y-93267543D02*
X143512475Y-93410400D01*
X143512475Y-93410400D02*
X143512475Y-93505638D01*
X143512475Y-93505638D02*
X143464856Y-93648495D01*
X143464856Y-93648495D02*
X143369617Y-93743733D01*
X143369617Y-93743733D02*
X143274379Y-93791352D01*
X143274379Y-93791352D02*
X143083903Y-93838971D01*
X143083903Y-93838971D02*
X142941046Y-93838971D01*
X142941046Y-93838971D02*
X142750570Y-93791352D01*
X142750570Y-93791352D02*
X142655332Y-93743733D01*
X142655332Y-93743733D02*
X142560094Y-93648495D01*
X142560094Y-93648495D02*
X142512475Y-93505638D01*
X142512475Y-93505638D02*
X142512475Y-93410400D01*
X142512475Y-93410400D02*
X142560094Y-93267543D01*
X142560094Y-93267543D02*
X142607713Y-93219924D01*
X144122419Y-114505639D02*
X144122419Y-114315163D01*
X144122419Y-114315163D02*
X144170038Y-114219925D01*
X144170038Y-114219925D02*
X144265276Y-114124687D01*
X144265276Y-114124687D02*
X144455752Y-114077068D01*
X144455752Y-114077068D02*
X144789085Y-114077068D01*
X144789085Y-114077068D02*
X144979561Y-114124687D01*
X144979561Y-114124687D02*
X145074800Y-114219925D01*
X145074800Y-114219925D02*
X145122419Y-114315163D01*
X145122419Y-114315163D02*
X145122419Y-114505639D01*
X145122419Y-114505639D02*
X145074800Y-114600877D01*
X145074800Y-114600877D02*
X144979561Y-114696115D01*
X144979561Y-114696115D02*
X144789085Y-114743734D01*
X144789085Y-114743734D02*
X144455752Y-114743734D01*
X144455752Y-114743734D02*
X144265276Y-114696115D01*
X144265276Y-114696115D02*
X144170038Y-114600877D01*
X144170038Y-114600877D02*
X144122419Y-114505639D01*
X144455752Y-113219925D02*
X145122419Y-113219925D01*
X144455752Y-113648496D02*
X144979561Y-113648496D01*
X144979561Y-113648496D02*
X145074800Y-113600877D01*
X145074800Y-113600877D02*
X145122419Y-113505639D01*
X145122419Y-113505639D02*
X145122419Y-113362782D01*
X145122419Y-113362782D02*
X145074800Y-113267544D01*
X145074800Y-113267544D02*
X145027180Y-113219925D01*
X144455752Y-112886591D02*
X144455752Y-112505639D01*
X144122419Y-112743734D02*
X144979561Y-112743734D01*
X144979561Y-112743734D02*
X145074800Y-112696115D01*
X145074800Y-112696115D02*
X145122419Y-112600877D01*
X145122419Y-112600877D02*
X145122419Y-112505639D01*
X144455752Y-112172305D02*
X145455752Y-112172305D01*
X144503371Y-112172305D02*
X144455752Y-112077067D01*
X144455752Y-112077067D02*
X144455752Y-111886591D01*
X144455752Y-111886591D02*
X144503371Y-111791353D01*
X144503371Y-111791353D02*
X144550990Y-111743734D01*
X144550990Y-111743734D02*
X144646228Y-111696115D01*
X144646228Y-111696115D02*
X144931942Y-111696115D01*
X144931942Y-111696115D02*
X145027180Y-111743734D01*
X145027180Y-111743734D02*
X145074800Y-111791353D01*
X145074800Y-111791353D02*
X145122419Y-111886591D01*
X145122419Y-111886591D02*
X145122419Y-112077067D01*
X145122419Y-112077067D02*
X145074800Y-112172305D01*
X144455752Y-110838972D02*
X145122419Y-110838972D01*
X144455752Y-111267543D02*
X144979561Y-111267543D01*
X144979561Y-111267543D02*
X145074800Y-111219924D01*
X145074800Y-111219924D02*
X145122419Y-111124686D01*
X145122419Y-111124686D02*
X145122419Y-110981829D01*
X145122419Y-110981829D02*
X145074800Y-110886591D01*
X145074800Y-110886591D02*
X145027180Y-110838972D01*
X144455752Y-110505638D02*
X144455752Y-110124686D01*
X144122419Y-110362781D02*
X144979561Y-110362781D01*
X144979561Y-110362781D02*
X145074800Y-110315162D01*
X145074800Y-110315162D02*
X145122419Y-110219924D01*
X145122419Y-110219924D02*
X145122419Y-110124686D01*
X145074800Y-108600876D02*
X145122419Y-108696114D01*
X145122419Y-108696114D02*
X145122419Y-108886590D01*
X145122419Y-108886590D02*
X145074800Y-108981828D01*
X145074800Y-108981828D02*
X145027180Y-109029447D01*
X145027180Y-109029447D02*
X144931942Y-109077066D01*
X144931942Y-109077066D02*
X144646228Y-109077066D01*
X144646228Y-109077066D02*
X144550990Y-109029447D01*
X144550990Y-109029447D02*
X144503371Y-108981828D01*
X144503371Y-108981828D02*
X144455752Y-108886590D01*
X144455752Y-108886590D02*
X144455752Y-108696114D01*
X144455752Y-108696114D02*
X144503371Y-108600876D01*
X144455752Y-107743733D02*
X145122419Y-107743733D01*
X144455752Y-108172304D02*
X144979561Y-108172304D01*
X144979561Y-108172304D02*
X145074800Y-108124685D01*
X145074800Y-108124685D02*
X145122419Y-108029447D01*
X145122419Y-108029447D02*
X145122419Y-107886590D01*
X145122419Y-107886590D02*
X145074800Y-107791352D01*
X145074800Y-107791352D02*
X145027180Y-107743733D01*
X145122419Y-107267542D02*
X144455752Y-107267542D01*
X144646228Y-107267542D02*
X144550990Y-107219923D01*
X144550990Y-107219923D02*
X144503371Y-107172304D01*
X144503371Y-107172304D02*
X144455752Y-107077066D01*
X144455752Y-107077066D02*
X144455752Y-106981828D01*
X145122419Y-106648494D02*
X144455752Y-106648494D01*
X144646228Y-106648494D02*
X144550990Y-106600875D01*
X144550990Y-106600875D02*
X144503371Y-106553256D01*
X144503371Y-106553256D02*
X144455752Y-106458018D01*
X144455752Y-106458018D02*
X144455752Y-106362780D01*
X145074800Y-105648494D02*
X145122419Y-105743732D01*
X145122419Y-105743732D02*
X145122419Y-105934208D01*
X145122419Y-105934208D02*
X145074800Y-106029446D01*
X145074800Y-106029446D02*
X144979561Y-106077065D01*
X144979561Y-106077065D02*
X144598609Y-106077065D01*
X144598609Y-106077065D02*
X144503371Y-106029446D01*
X144503371Y-106029446D02*
X144455752Y-105934208D01*
X144455752Y-105934208D02*
X144455752Y-105743732D01*
X144455752Y-105743732D02*
X144503371Y-105648494D01*
X144503371Y-105648494D02*
X144598609Y-105600875D01*
X144598609Y-105600875D02*
X144693847Y-105600875D01*
X144693847Y-105600875D02*
X144789085Y-106077065D01*
X144455752Y-105172303D02*
X145122419Y-105172303D01*
X144550990Y-105172303D02*
X144503371Y-105124684D01*
X144503371Y-105124684D02*
X144455752Y-105029446D01*
X144455752Y-105029446D02*
X144455752Y-104886589D01*
X144455752Y-104886589D02*
X144503371Y-104791351D01*
X144503371Y-104791351D02*
X144598609Y-104743732D01*
X144598609Y-104743732D02*
X145122419Y-104743732D01*
X144455752Y-104410398D02*
X144455752Y-104029446D01*
X144122419Y-104267541D02*
X144979561Y-104267541D01*
X144979561Y-104267541D02*
X145074800Y-104219922D01*
X145074800Y-104219922D02*
X145122419Y-104124684D01*
X145122419Y-104124684D02*
X145122419Y-104029446D01*
X145027180Y-103696112D02*
X145074800Y-103648493D01*
X145074800Y-103648493D02*
X145122419Y-103696112D01*
X145122419Y-103696112D02*
X145074800Y-103743731D01*
X145074800Y-103743731D02*
X145027180Y-103696112D01*
X145027180Y-103696112D02*
X145122419Y-103696112D01*
X144503371Y-103696112D02*
X144550990Y-103648493D01*
X144550990Y-103648493D02*
X144598609Y-103696112D01*
X144598609Y-103696112D02*
X144550990Y-103743731D01*
X144550990Y-103743731D02*
X144503371Y-103696112D01*
X144503371Y-103696112D02*
X144598609Y-103696112D01*
X144455752Y-101696113D02*
X144741466Y-102458017D01*
X144741466Y-102458017D02*
X145027180Y-101696113D01*
X144550990Y-100458017D02*
X144550990Y-99696113D01*
X144931942Y-100077065D02*
X144170038Y-100077065D01*
X145122419Y-99696113D02*
X145122419Y-100458017D01*
X145122419Y-98696113D02*
X145122419Y-99267541D01*
X145122419Y-98981827D02*
X144122419Y-98981827D01*
X144122419Y-98981827D02*
X144265276Y-99077065D01*
X144265276Y-99077065D02*
X144360514Y-99172303D01*
X144360514Y-99172303D02*
X144408133Y-99267541D01*
X144122419Y-98077065D02*
X144122419Y-97981827D01*
X144122419Y-97981827D02*
X144170038Y-97886589D01*
X144170038Y-97886589D02*
X144217657Y-97838970D01*
X144217657Y-97838970D02*
X144312895Y-97791351D01*
X144312895Y-97791351D02*
X144503371Y-97743732D01*
X144503371Y-97743732D02*
X144741466Y-97743732D01*
X144741466Y-97743732D02*
X144931942Y-97791351D01*
X144931942Y-97791351D02*
X145027180Y-97838970D01*
X145027180Y-97838970D02*
X145074800Y-97886589D01*
X145074800Y-97886589D02*
X145122419Y-97981827D01*
X145122419Y-97981827D02*
X145122419Y-98077065D01*
X145122419Y-98077065D02*
X145074800Y-98172303D01*
X145074800Y-98172303D02*
X145027180Y-98219922D01*
X145027180Y-98219922D02*
X144931942Y-98267541D01*
X144931942Y-98267541D02*
X144741466Y-98315160D01*
X144741466Y-98315160D02*
X144503371Y-98315160D01*
X144503371Y-98315160D02*
X144312895Y-98267541D01*
X144312895Y-98267541D02*
X144217657Y-98219922D01*
X144217657Y-98219922D02*
X144170038Y-98172303D01*
X144170038Y-98172303D02*
X144122419Y-98077065D01*
X145122419Y-97315160D02*
X144455752Y-97315160D01*
X144550990Y-97315160D02*
X144503371Y-97267541D01*
X144503371Y-97267541D02*
X144455752Y-97172303D01*
X144455752Y-97172303D02*
X144455752Y-97029446D01*
X144455752Y-97029446D02*
X144503371Y-96934208D01*
X144503371Y-96934208D02*
X144598609Y-96886589D01*
X144598609Y-96886589D02*
X145122419Y-96886589D01*
X144598609Y-96886589D02*
X144503371Y-96838970D01*
X144503371Y-96838970D02*
X144455752Y-96743732D01*
X144455752Y-96743732D02*
X144455752Y-96600875D01*
X144455752Y-96600875D02*
X144503371Y-96505636D01*
X144503371Y-96505636D02*
X144598609Y-96458017D01*
X144598609Y-96458017D02*
X145122419Y-96458017D01*
X144836704Y-96029446D02*
X144836704Y-95553256D01*
X145122419Y-96124684D02*
X144122419Y-95791351D01*
X144122419Y-95791351D02*
X145122419Y-95458018D01*
D14*
X177369819Y-96163220D02*
X176369819Y-96163220D01*
X176369819Y-96163220D02*
X176369819Y-95782268D01*
X176369819Y-95782268D02*
X176417438Y-95687030D01*
X176417438Y-95687030D02*
X176465057Y-95639411D01*
X176465057Y-95639411D02*
X176560295Y-95591792D01*
X176560295Y-95591792D02*
X176703152Y-95591792D01*
X176703152Y-95591792D02*
X176798390Y-95639411D01*
X176798390Y-95639411D02*
X176846009Y-95687030D01*
X176846009Y-95687030D02*
X176893628Y-95782268D01*
X176893628Y-95782268D02*
X176893628Y-96163220D01*
X177369819Y-95020363D02*
X177322200Y-95115601D01*
X177322200Y-95115601D02*
X177274580Y-95163220D01*
X177274580Y-95163220D02*
X177179342Y-95210839D01*
X177179342Y-95210839D02*
X176893628Y-95210839D01*
X176893628Y-95210839D02*
X176798390Y-95163220D01*
X176798390Y-95163220D02*
X176750771Y-95115601D01*
X176750771Y-95115601D02*
X176703152Y-95020363D01*
X176703152Y-95020363D02*
X176703152Y-94877506D01*
X176703152Y-94877506D02*
X176750771Y-94782268D01*
X176750771Y-94782268D02*
X176798390Y-94734649D01*
X176798390Y-94734649D02*
X176893628Y-94687030D01*
X176893628Y-94687030D02*
X177179342Y-94687030D01*
X177179342Y-94687030D02*
X177274580Y-94734649D01*
X177274580Y-94734649D02*
X177322200Y-94782268D01*
X177322200Y-94782268D02*
X177369819Y-94877506D01*
X177369819Y-94877506D02*
X177369819Y-95020363D01*
X176703152Y-94353696D02*
X177369819Y-94163220D01*
X177369819Y-94163220D02*
X176893628Y-93972744D01*
X176893628Y-93972744D02*
X177369819Y-93782268D01*
X177369819Y-93782268D02*
X176703152Y-93591792D01*
X177322200Y-92829887D02*
X177369819Y-92925125D01*
X177369819Y-92925125D02*
X177369819Y-93115601D01*
X177369819Y-93115601D02*
X177322200Y-93210839D01*
X177322200Y-93210839D02*
X177226961Y-93258458D01*
X177226961Y-93258458D02*
X176846009Y-93258458D01*
X176846009Y-93258458D02*
X176750771Y-93210839D01*
X176750771Y-93210839D02*
X176703152Y-93115601D01*
X176703152Y-93115601D02*
X176703152Y-92925125D01*
X176703152Y-92925125D02*
X176750771Y-92829887D01*
X176750771Y-92829887D02*
X176846009Y-92782268D01*
X176846009Y-92782268D02*
X176941247Y-92782268D01*
X176941247Y-92782268D02*
X177036485Y-93258458D01*
X177369819Y-92353696D02*
X176703152Y-92353696D01*
X176893628Y-92353696D02*
X176798390Y-92306077D01*
X176798390Y-92306077D02*
X176750771Y-92258458D01*
X176750771Y-92258458D02*
X176703152Y-92163220D01*
X176703152Y-92163220D02*
X176703152Y-92067982D01*
X177369819Y-90972743D02*
X176703152Y-90972743D01*
X176369819Y-90972743D02*
X176417438Y-91020362D01*
X176417438Y-91020362D02*
X176465057Y-90972743D01*
X176465057Y-90972743D02*
X176417438Y-90925124D01*
X176417438Y-90925124D02*
X176369819Y-90972743D01*
X176369819Y-90972743D02*
X176465057Y-90972743D01*
X176703152Y-90496553D02*
X177369819Y-90496553D01*
X176798390Y-90496553D02*
X176750771Y-90448934D01*
X176750771Y-90448934D02*
X176703152Y-90353696D01*
X176703152Y-90353696D02*
X176703152Y-90210839D01*
X176703152Y-90210839D02*
X176750771Y-90115601D01*
X176750771Y-90115601D02*
X176846009Y-90067982D01*
X176846009Y-90067982D02*
X177369819Y-90067982D01*
X176703152Y-89591791D02*
X177703152Y-89591791D01*
X176750771Y-89591791D02*
X176703152Y-89496553D01*
X176703152Y-89496553D02*
X176703152Y-89306077D01*
X176703152Y-89306077D02*
X176750771Y-89210839D01*
X176750771Y-89210839D02*
X176798390Y-89163220D01*
X176798390Y-89163220D02*
X176893628Y-89115601D01*
X176893628Y-89115601D02*
X177179342Y-89115601D01*
X177179342Y-89115601D02*
X177274580Y-89163220D01*
X177274580Y-89163220D02*
X177322200Y-89210839D01*
X177322200Y-89210839D02*
X177369819Y-89306077D01*
X177369819Y-89306077D02*
X177369819Y-89496553D01*
X177369819Y-89496553D02*
X177322200Y-89591791D01*
X176703152Y-88258458D02*
X177369819Y-88258458D01*
X176703152Y-88687029D02*
X177226961Y-88687029D01*
X177226961Y-88687029D02*
X177322200Y-88639410D01*
X177322200Y-88639410D02*
X177369819Y-88544172D01*
X177369819Y-88544172D02*
X177369819Y-88401315D01*
X177369819Y-88401315D02*
X177322200Y-88306077D01*
X177322200Y-88306077D02*
X177274580Y-88258458D01*
X176703152Y-87925124D02*
X176703152Y-87544172D01*
X176369819Y-87782267D02*
X177226961Y-87782267D01*
X177226961Y-87782267D02*
X177322200Y-87734648D01*
X177322200Y-87734648D02*
X177369819Y-87639410D01*
X177369819Y-87639410D02*
X177369819Y-87544172D01*
X177274580Y-87210838D02*
X177322200Y-87163219D01*
X177322200Y-87163219D02*
X177369819Y-87210838D01*
X177369819Y-87210838D02*
X177322200Y-87258457D01*
X177322200Y-87258457D02*
X177274580Y-87210838D01*
X177274580Y-87210838D02*
X177369819Y-87210838D01*
X176750771Y-87210838D02*
X176798390Y-87163219D01*
X176798390Y-87163219D02*
X176846009Y-87210838D01*
X176846009Y-87210838D02*
X176798390Y-87258457D01*
X176798390Y-87258457D02*
X176750771Y-87210838D01*
X176750771Y-87210838D02*
X176846009Y-87210838D01*
X176369819Y-86067981D02*
X176369819Y-85401315D01*
X176369819Y-85401315D02*
X177369819Y-85829886D01*
X176988866Y-85163219D02*
X176941247Y-85115600D01*
X176941247Y-85115600D02*
X176893628Y-85020362D01*
X176893628Y-85020362D02*
X176988866Y-84829886D01*
X176988866Y-84829886D02*
X176941247Y-84734648D01*
X176941247Y-84734648D02*
X176893628Y-84687029D01*
X177369819Y-83782267D02*
X177369819Y-84353695D01*
X177369819Y-84067981D02*
X176369819Y-84067981D01*
X176369819Y-84067981D02*
X176512676Y-84163219D01*
X176512676Y-84163219D02*
X176607914Y-84258457D01*
X176607914Y-84258457D02*
X176655533Y-84353695D01*
X176369819Y-82877505D02*
X176369819Y-83353695D01*
X176369819Y-83353695D02*
X176846009Y-83401314D01*
X176846009Y-83401314D02*
X176798390Y-83353695D01*
X176798390Y-83353695D02*
X176750771Y-83258457D01*
X176750771Y-83258457D02*
X176750771Y-83020362D01*
X176750771Y-83020362D02*
X176798390Y-82925124D01*
X176798390Y-82925124D02*
X176846009Y-82877505D01*
X176846009Y-82877505D02*
X176941247Y-82829886D01*
X176941247Y-82829886D02*
X177179342Y-82829886D01*
X177179342Y-82829886D02*
X177274580Y-82877505D01*
X177274580Y-82877505D02*
X177322200Y-82925124D01*
X177322200Y-82925124D02*
X177369819Y-83020362D01*
X177369819Y-83020362D02*
X177369819Y-83258457D01*
X177369819Y-83258457D02*
X177322200Y-83353695D01*
X177322200Y-83353695D02*
X177274580Y-83401314D01*
X176369819Y-82544171D02*
X177369819Y-82210838D01*
X177369819Y-82210838D02*
X176369819Y-81877505D01*
X177322200Y-81496552D02*
X177369819Y-81496552D01*
X177369819Y-81496552D02*
X177465057Y-81544171D01*
X177465057Y-81544171D02*
X177512676Y-81591790D01*
X177369819Y-79782267D02*
X177369819Y-80353695D01*
X177369819Y-80067981D02*
X176369819Y-80067981D01*
X176369819Y-80067981D02*
X176512676Y-80163219D01*
X176512676Y-80163219D02*
X176607914Y-80258457D01*
X176607914Y-80258457D02*
X176655533Y-80353695D01*
X176369819Y-79163219D02*
X176369819Y-79067981D01*
X176369819Y-79067981D02*
X176417438Y-78972743D01*
X176417438Y-78972743D02*
X176465057Y-78925124D01*
X176465057Y-78925124D02*
X176560295Y-78877505D01*
X176560295Y-78877505D02*
X176750771Y-78829886D01*
X176750771Y-78829886D02*
X176988866Y-78829886D01*
X176988866Y-78829886D02*
X177179342Y-78877505D01*
X177179342Y-78877505D02*
X177274580Y-78925124D01*
X177274580Y-78925124D02*
X177322200Y-78972743D01*
X177322200Y-78972743D02*
X177369819Y-79067981D01*
X177369819Y-79067981D02*
X177369819Y-79163219D01*
X177369819Y-79163219D02*
X177322200Y-79258457D01*
X177322200Y-79258457D02*
X177274580Y-79306076D01*
X177274580Y-79306076D02*
X177179342Y-79353695D01*
X177179342Y-79353695D02*
X176988866Y-79401314D01*
X176988866Y-79401314D02*
X176750771Y-79401314D01*
X176750771Y-79401314D02*
X176560295Y-79353695D01*
X176560295Y-79353695D02*
X176465057Y-79306076D01*
X176465057Y-79306076D02*
X176417438Y-79258457D01*
X176417438Y-79258457D02*
X176369819Y-79163219D01*
X177369819Y-78401314D02*
X176703152Y-78401314D01*
X176798390Y-78401314D02*
X176750771Y-78353695D01*
X176750771Y-78353695D02*
X176703152Y-78258457D01*
X176703152Y-78258457D02*
X176703152Y-78115600D01*
X176703152Y-78115600D02*
X176750771Y-78020362D01*
X176750771Y-78020362D02*
X176846009Y-77972743D01*
X176846009Y-77972743D02*
X177369819Y-77972743D01*
X176846009Y-77972743D02*
X176750771Y-77925124D01*
X176750771Y-77925124D02*
X176703152Y-77829886D01*
X176703152Y-77829886D02*
X176703152Y-77687029D01*
X176703152Y-77687029D02*
X176750771Y-77591790D01*
X176750771Y-77591790D02*
X176846009Y-77544171D01*
X176846009Y-77544171D02*
X177369819Y-77544171D01*
X177084104Y-77115600D02*
X177084104Y-76639410D01*
X177369819Y-77210838D02*
X176369819Y-76877505D01*
X176369819Y-76877505D02*
X177369819Y-76544172D01*
D11*
X153750000Y-81618633D02*
X153679166Y-82185300D01*
X153679166Y-82185300D02*
X153704166Y-82251966D01*
X153704166Y-82251966D02*
X153733333Y-82285300D01*
X153733333Y-82285300D02*
X153795833Y-82318633D01*
X153795833Y-82318633D02*
X153929166Y-82318633D01*
X153929166Y-82318633D02*
X154000000Y-82285300D01*
X154000000Y-82285300D02*
X154037500Y-82251966D01*
X154037500Y-82251966D02*
X154079166Y-82185300D01*
X154079166Y-82185300D02*
X154150000Y-81618633D01*
X154762499Y-82318633D02*
X154362499Y-82318633D01*
X154562499Y-82318633D02*
X154649999Y-81618633D01*
X154649999Y-81618633D02*
X154570833Y-81718633D01*
X154570833Y-81718633D02*
X154495833Y-81785300D01*
X154495833Y-81785300D02*
X154424999Y-81818633D01*
X162687500Y-84051966D02*
X162650000Y-84085300D01*
X162650000Y-84085300D02*
X162545833Y-84118633D01*
X162545833Y-84118633D02*
X162479167Y-84118633D01*
X162479167Y-84118633D02*
X162383333Y-84085300D01*
X162383333Y-84085300D02*
X162325000Y-84018633D01*
X162325000Y-84018633D02*
X162300000Y-83951966D01*
X162300000Y-83951966D02*
X162283333Y-83818633D01*
X162283333Y-83818633D02*
X162295833Y-83718633D01*
X162295833Y-83718633D02*
X162345833Y-83585300D01*
X162345833Y-83585300D02*
X162387500Y-83518633D01*
X162387500Y-83518633D02*
X162462500Y-83451966D01*
X162462500Y-83451966D02*
X162566667Y-83418633D01*
X162566667Y-83418633D02*
X162633333Y-83418633D01*
X162633333Y-83418633D02*
X162729167Y-83451966D01*
X162729167Y-83451966D02*
X162758333Y-83485300D01*
X163000000Y-83418633D02*
X163433333Y-83418633D01*
X163433333Y-83418633D02*
X163166667Y-83685300D01*
X163166667Y-83685300D02*
X163266667Y-83685300D01*
X163266667Y-83685300D02*
X163329167Y-83718633D01*
X163329167Y-83718633D02*
X163358333Y-83751966D01*
X163358333Y-83751966D02*
X163383333Y-83818633D01*
X163383333Y-83818633D02*
X163362500Y-83985300D01*
X163362500Y-83985300D02*
X163320833Y-84051966D01*
X163320833Y-84051966D02*
X163283333Y-84085300D01*
X163283333Y-84085300D02*
X163212500Y-84118633D01*
X163212500Y-84118633D02*
X163012500Y-84118633D01*
X163012500Y-84118633D02*
X162950000Y-84085300D01*
X162950000Y-84085300D02*
X162920833Y-84051966D01*
X183850000Y-102068633D02*
X183787500Y-102568633D01*
X183787500Y-102568633D02*
X183741666Y-102668633D01*
X183741666Y-102668633D02*
X183666666Y-102735300D01*
X183666666Y-102735300D02*
X183562500Y-102768633D01*
X183562500Y-102768633D02*
X183495833Y-102768633D01*
X184454166Y-102301966D02*
X184395833Y-102768633D01*
X184320833Y-102035300D02*
X184091666Y-102535300D01*
X184091666Y-102535300D02*
X184524999Y-102535300D01*
X159787500Y-69551966D02*
X159750000Y-69585300D01*
X159750000Y-69585300D02*
X159645833Y-69618633D01*
X159645833Y-69618633D02*
X159579167Y-69618633D01*
X159579167Y-69618633D02*
X159483333Y-69585300D01*
X159483333Y-69585300D02*
X159425000Y-69518633D01*
X159425000Y-69518633D02*
X159400000Y-69451966D01*
X159400000Y-69451966D02*
X159383333Y-69318633D01*
X159383333Y-69318633D02*
X159395833Y-69218633D01*
X159395833Y-69218633D02*
X159445833Y-69085300D01*
X159445833Y-69085300D02*
X159487500Y-69018633D01*
X159487500Y-69018633D02*
X159562500Y-68951966D01*
X159562500Y-68951966D02*
X159666667Y-68918633D01*
X159666667Y-68918633D02*
X159733333Y-68918633D01*
X159733333Y-68918633D02*
X159829167Y-68951966D01*
X159829167Y-68951966D02*
X159858333Y-68985300D01*
X160500000Y-68918633D02*
X160166667Y-68918633D01*
X160166667Y-68918633D02*
X160091667Y-69251966D01*
X160091667Y-69251966D02*
X160129167Y-69218633D01*
X160129167Y-69218633D02*
X160200000Y-69185300D01*
X160200000Y-69185300D02*
X160366667Y-69185300D01*
X160366667Y-69185300D02*
X160429167Y-69218633D01*
X160429167Y-69218633D02*
X160458333Y-69251966D01*
X160458333Y-69251966D02*
X160483333Y-69318633D01*
X160483333Y-69318633D02*
X160462500Y-69485300D01*
X160462500Y-69485300D02*
X160420833Y-69551966D01*
X160420833Y-69551966D02*
X160383333Y-69585300D01*
X160383333Y-69585300D02*
X160312500Y-69618633D01*
X160312500Y-69618633D02*
X160145833Y-69618633D01*
X160145833Y-69618633D02*
X160083333Y-69585300D01*
X160083333Y-69585300D02*
X160054167Y-69551966D01*
X121550000Y-85618633D02*
X121487500Y-86118633D01*
X121487500Y-86118633D02*
X121441666Y-86218633D01*
X121441666Y-86218633D02*
X121366666Y-86285300D01*
X121366666Y-86285300D02*
X121262500Y-86318633D01*
X121262500Y-86318633D02*
X121195833Y-86318633D01*
X122162499Y-86318633D02*
X121762499Y-86318633D01*
X121962499Y-86318633D02*
X122049999Y-85618633D01*
X122049999Y-85618633D02*
X121970833Y-85718633D01*
X121970833Y-85718633D02*
X121895833Y-85785300D01*
X121895833Y-85785300D02*
X121824999Y-85818633D01*
X144220833Y-67285300D02*
X144158333Y-67251966D01*
X144158333Y-67251966D02*
X144100000Y-67185300D01*
X144100000Y-67185300D02*
X144012500Y-67085300D01*
X144012500Y-67085300D02*
X143950000Y-67051966D01*
X143950000Y-67051966D02*
X143883333Y-67051966D01*
X143895833Y-67218633D02*
X143833333Y-67185300D01*
X143833333Y-67185300D02*
X143775000Y-67118633D01*
X143775000Y-67118633D02*
X143758333Y-66985300D01*
X143758333Y-66985300D02*
X143787500Y-66751966D01*
X143787500Y-66751966D02*
X143837500Y-66618633D01*
X143837500Y-66618633D02*
X143912500Y-66551966D01*
X143912500Y-66551966D02*
X143983333Y-66518633D01*
X143983333Y-66518633D02*
X144116666Y-66518633D01*
X144116666Y-66518633D02*
X144179166Y-66551966D01*
X144179166Y-66551966D02*
X144237500Y-66618633D01*
X144237500Y-66618633D02*
X144254166Y-66751966D01*
X144254166Y-66751966D02*
X144225000Y-66985300D01*
X144225000Y-66985300D02*
X144175000Y-67118633D01*
X144175000Y-67118633D02*
X144100000Y-67185300D01*
X144100000Y-67185300D02*
X144029166Y-67218633D01*
X144029166Y-67218633D02*
X143895833Y-67218633D01*
X144516666Y-66518633D02*
X144949999Y-66518633D01*
X144949999Y-66518633D02*
X144683333Y-66785300D01*
X144683333Y-66785300D02*
X144783333Y-66785300D01*
X144783333Y-66785300D02*
X144845833Y-66818633D01*
X144845833Y-66818633D02*
X144874999Y-66851966D01*
X144874999Y-66851966D02*
X144899999Y-66918633D01*
X144899999Y-66918633D02*
X144879166Y-67085300D01*
X144879166Y-67085300D02*
X144837499Y-67151966D01*
X144837499Y-67151966D02*
X144799999Y-67185300D01*
X144799999Y-67185300D02*
X144729166Y-67218633D01*
X144729166Y-67218633D02*
X144529166Y-67218633D01*
X144529166Y-67218633D02*
X144466666Y-67185300D01*
X144466666Y-67185300D02*
X144437499Y-67151966D01*
X136487500Y-82151966D02*
X136450000Y-82185300D01*
X136450000Y-82185300D02*
X136345833Y-82218633D01*
X136345833Y-82218633D02*
X136279167Y-82218633D01*
X136279167Y-82218633D02*
X136183333Y-82185300D01*
X136183333Y-82185300D02*
X136125000Y-82118633D01*
X136125000Y-82118633D02*
X136100000Y-82051966D01*
X136100000Y-82051966D02*
X136083333Y-81918633D01*
X136083333Y-81918633D02*
X136095833Y-81818633D01*
X136095833Y-81818633D02*
X136145833Y-81685300D01*
X136145833Y-81685300D02*
X136187500Y-81618633D01*
X136187500Y-81618633D02*
X136262500Y-81551966D01*
X136262500Y-81551966D02*
X136366667Y-81518633D01*
X136366667Y-81518633D02*
X136433333Y-81518633D01*
X136433333Y-81518633D02*
X136529167Y-81551966D01*
X136529167Y-81551966D02*
X136558333Y-81585300D01*
X136800000Y-81518633D02*
X137266667Y-81518633D01*
X137266667Y-81518633D02*
X136879167Y-82218633D01*
X141729167Y-63818633D02*
X141816667Y-63118633D01*
X141816667Y-63118633D02*
X141983333Y-63118633D01*
X141983333Y-63118633D02*
X142079167Y-63151966D01*
X142079167Y-63151966D02*
X142137500Y-63218633D01*
X142137500Y-63218633D02*
X142162500Y-63285300D01*
X142162500Y-63285300D02*
X142179167Y-63418633D01*
X142179167Y-63418633D02*
X142166667Y-63518633D01*
X142166667Y-63518633D02*
X142116667Y-63651966D01*
X142116667Y-63651966D02*
X142075000Y-63718633D01*
X142075000Y-63718633D02*
X142000000Y-63785300D01*
X142000000Y-63785300D02*
X141895833Y-63818633D01*
X141895833Y-63818633D02*
X141729167Y-63818633D01*
X142475000Y-63185300D02*
X142512500Y-63151966D01*
X142512500Y-63151966D02*
X142583333Y-63118633D01*
X142583333Y-63118633D02*
X142750000Y-63118633D01*
X142750000Y-63118633D02*
X142812500Y-63151966D01*
X142812500Y-63151966D02*
X142841667Y-63185300D01*
X142841667Y-63185300D02*
X142866667Y-63251966D01*
X142866667Y-63251966D02*
X142858333Y-63318633D01*
X142858333Y-63318633D02*
X142812500Y-63418633D01*
X142812500Y-63418633D02*
X142362500Y-63818633D01*
X142362500Y-63818633D02*
X142795833Y-63818633D01*
X121550000Y-90818633D02*
X121487500Y-91318633D01*
X121487500Y-91318633D02*
X121441666Y-91418633D01*
X121441666Y-91418633D02*
X121366666Y-91485300D01*
X121366666Y-91485300D02*
X121262500Y-91518633D01*
X121262500Y-91518633D02*
X121195833Y-91518633D01*
X121816666Y-90818633D02*
X122249999Y-90818633D01*
X122249999Y-90818633D02*
X121983333Y-91085300D01*
X121983333Y-91085300D02*
X122083333Y-91085300D01*
X122083333Y-91085300D02*
X122145833Y-91118633D01*
X122145833Y-91118633D02*
X122174999Y-91151966D01*
X122174999Y-91151966D02*
X122199999Y-91218633D01*
X122199999Y-91218633D02*
X122179166Y-91385300D01*
X122179166Y-91385300D02*
X122137499Y-91451966D01*
X122137499Y-91451966D02*
X122099999Y-91485300D01*
X122099999Y-91485300D02*
X122029166Y-91518633D01*
X122029166Y-91518633D02*
X121829166Y-91518633D01*
X121829166Y-91518633D02*
X121766666Y-91485300D01*
X121766666Y-91485300D02*
X121737499Y-91451966D01*
X162087500Y-60668633D02*
X162016666Y-61235300D01*
X162016666Y-61235300D02*
X162041666Y-61301966D01*
X162041666Y-61301966D02*
X162070833Y-61335300D01*
X162070833Y-61335300D02*
X162133333Y-61368633D01*
X162133333Y-61368633D02*
X162266666Y-61368633D01*
X162266666Y-61368633D02*
X162337500Y-61335300D01*
X162337500Y-61335300D02*
X162375000Y-61301966D01*
X162375000Y-61301966D02*
X162416666Y-61235300D01*
X162416666Y-61235300D02*
X162487500Y-60668633D01*
X162754166Y-60668633D02*
X163187499Y-60668633D01*
X163187499Y-60668633D02*
X162920833Y-60935300D01*
X162920833Y-60935300D02*
X163020833Y-60935300D01*
X163020833Y-60935300D02*
X163083333Y-60968633D01*
X163083333Y-60968633D02*
X163112499Y-61001966D01*
X163112499Y-61001966D02*
X163137499Y-61068633D01*
X163137499Y-61068633D02*
X163116666Y-61235300D01*
X163116666Y-61235300D02*
X163074999Y-61301966D01*
X163074999Y-61301966D02*
X163037499Y-61335300D01*
X163037499Y-61335300D02*
X162966666Y-61368633D01*
X162966666Y-61368633D02*
X162766666Y-61368633D01*
X162766666Y-61368633D02*
X162704166Y-61335300D01*
X162704166Y-61335300D02*
X162674999Y-61301966D01*
X155079167Y-69618633D02*
X154887500Y-69285300D01*
X154679167Y-69618633D02*
X154766667Y-68918633D01*
X154766667Y-68918633D02*
X155033333Y-68918633D01*
X155033333Y-68918633D02*
X155095833Y-68951966D01*
X155095833Y-68951966D02*
X155125000Y-68985300D01*
X155125000Y-68985300D02*
X155150000Y-69051966D01*
X155150000Y-69051966D02*
X155137500Y-69151966D01*
X155137500Y-69151966D02*
X155095833Y-69218633D01*
X155095833Y-69218633D02*
X155058333Y-69251966D01*
X155058333Y-69251966D02*
X154987500Y-69285300D01*
X154987500Y-69285300D02*
X154720833Y-69285300D01*
X155800000Y-68918633D02*
X155466667Y-68918633D01*
X155466667Y-68918633D02*
X155391667Y-69251966D01*
X155391667Y-69251966D02*
X155429167Y-69218633D01*
X155429167Y-69218633D02*
X155500000Y-69185300D01*
X155500000Y-69185300D02*
X155666667Y-69185300D01*
X155666667Y-69185300D02*
X155729167Y-69218633D01*
X155729167Y-69218633D02*
X155758333Y-69251966D01*
X155758333Y-69251966D02*
X155783333Y-69318633D01*
X155783333Y-69318633D02*
X155762500Y-69485300D01*
X155762500Y-69485300D02*
X155720833Y-69551966D01*
X155720833Y-69551966D02*
X155683333Y-69585300D01*
X155683333Y-69585300D02*
X155612500Y-69618633D01*
X155612500Y-69618633D02*
X155445833Y-69618633D01*
X155445833Y-69618633D02*
X155383333Y-69585300D01*
X155383333Y-69585300D02*
X155354167Y-69551966D01*
X168129167Y-68068633D02*
X167937500Y-67735300D01*
X167729167Y-68068633D02*
X167816667Y-67368633D01*
X167816667Y-67368633D02*
X168083333Y-67368633D01*
X168083333Y-67368633D02*
X168145833Y-67401966D01*
X168145833Y-67401966D02*
X168175000Y-67435300D01*
X168175000Y-67435300D02*
X168200000Y-67501966D01*
X168200000Y-67501966D02*
X168187500Y-67601966D01*
X168187500Y-67601966D02*
X168145833Y-67668633D01*
X168145833Y-67668633D02*
X168108333Y-67701966D01*
X168108333Y-67701966D02*
X168037500Y-67735300D01*
X168037500Y-67735300D02*
X167770833Y-67735300D01*
X168462500Y-68068633D02*
X168595833Y-68068633D01*
X168595833Y-68068633D02*
X168666667Y-68035300D01*
X168666667Y-68035300D02*
X168704167Y-68001966D01*
X168704167Y-68001966D02*
X168783333Y-67901966D01*
X168783333Y-67901966D02*
X168833333Y-67768633D01*
X168833333Y-67768633D02*
X168866667Y-67501966D01*
X168866667Y-67501966D02*
X168841667Y-67435300D01*
X168841667Y-67435300D02*
X168812500Y-67401966D01*
X168812500Y-67401966D02*
X168750000Y-67368633D01*
X168750000Y-67368633D02*
X168616667Y-67368633D01*
X168616667Y-67368633D02*
X168545833Y-67401966D01*
X168545833Y-67401966D02*
X168508333Y-67435300D01*
X168508333Y-67435300D02*
X168466667Y-67501966D01*
X168466667Y-67501966D02*
X168445833Y-67668633D01*
X168445833Y-67668633D02*
X168470833Y-67735300D01*
X168470833Y-67735300D02*
X168500000Y-67768633D01*
X168500000Y-67768633D02*
X168562500Y-67801966D01*
X168562500Y-67801966D02*
X168695833Y-67801966D01*
X168695833Y-67801966D02*
X168766667Y-67768633D01*
X168766667Y-67768633D02*
X168804167Y-67735300D01*
X168804167Y-67735300D02*
X168845833Y-67668633D01*
X172520548Y-107818376D02*
X172517601Y-107868463D01*
X172517601Y-107868463D02*
X172467515Y-107965690D01*
X172467515Y-107965690D02*
X172420374Y-108012830D01*
X172420374Y-108012830D02*
X172329039Y-108057025D01*
X172329039Y-108057025D02*
X172240651Y-108051132D01*
X172240651Y-108051132D02*
X172175833Y-108021669D01*
X172175833Y-108021669D02*
X172069767Y-107939174D01*
X172069767Y-107939174D02*
X172007895Y-107859624D01*
X172007895Y-107859624D02*
X171948970Y-107729988D01*
X171948970Y-107729988D02*
X171931292Y-107653385D01*
X171931292Y-107653385D02*
X171937184Y-107553211D01*
X171937184Y-107553211D02*
X171987271Y-107455984D01*
X171987271Y-107455984D02*
X172034412Y-107408843D01*
X172034412Y-107408843D02*
X172125746Y-107364649D01*
X172125746Y-107364649D02*
X172169940Y-107367596D01*
X172697324Y-107075914D02*
X172986060Y-107447145D01*
X172414482Y-106981633D02*
X172605990Y-107497232D01*
X172605990Y-107497232D02*
X172912403Y-107190819D01*
X156137500Y-60618633D02*
X156066666Y-61185300D01*
X156066666Y-61185300D02*
X156091666Y-61251966D01*
X156091666Y-61251966D02*
X156120833Y-61285300D01*
X156120833Y-61285300D02*
X156183333Y-61318633D01*
X156183333Y-61318633D02*
X156316666Y-61318633D01*
X156316666Y-61318633D02*
X156387500Y-61285300D01*
X156387500Y-61285300D02*
X156425000Y-61251966D01*
X156425000Y-61251966D02*
X156466666Y-61185300D01*
X156466666Y-61185300D02*
X156537500Y-60618633D01*
X156829166Y-60685300D02*
X156866666Y-60651966D01*
X156866666Y-60651966D02*
X156937499Y-60618633D01*
X156937499Y-60618633D02*
X157104166Y-60618633D01*
X157104166Y-60618633D02*
X157166666Y-60651966D01*
X157166666Y-60651966D02*
X157195833Y-60685300D01*
X157195833Y-60685300D02*
X157220833Y-60751966D01*
X157220833Y-60751966D02*
X157212499Y-60818633D01*
X157212499Y-60818633D02*
X157166666Y-60918633D01*
X157166666Y-60918633D02*
X156716666Y-61318633D01*
X156716666Y-61318633D02*
X157149999Y-61318633D01*
X153218633Y-66354167D02*
X152885300Y-66545833D01*
X153218633Y-66754167D02*
X152518633Y-66666667D01*
X152518633Y-66666667D02*
X152518633Y-66400000D01*
X152518633Y-66400000D02*
X152551966Y-66337500D01*
X152551966Y-66337500D02*
X152585300Y-66308333D01*
X152585300Y-66308333D02*
X152651966Y-66283333D01*
X152651966Y-66283333D02*
X152751966Y-66295833D01*
X152751966Y-66295833D02*
X152818633Y-66337500D01*
X152818633Y-66337500D02*
X152851966Y-66375000D01*
X152851966Y-66375000D02*
X152885300Y-66445833D01*
X152885300Y-66445833D02*
X152885300Y-66712500D01*
X153218633Y-65687500D02*
X153218633Y-66087500D01*
X153218633Y-65887500D02*
X152518633Y-65800000D01*
X152518633Y-65800000D02*
X152618633Y-65879167D01*
X152618633Y-65879167D02*
X152685300Y-65954167D01*
X152685300Y-65954167D02*
X152718633Y-66025000D01*
X152518633Y-65166666D02*
X152518633Y-65100000D01*
X152518633Y-65100000D02*
X152551966Y-65037500D01*
X152551966Y-65037500D02*
X152585300Y-65008333D01*
X152585300Y-65008333D02*
X152651966Y-64983333D01*
X152651966Y-64983333D02*
X152785300Y-64966666D01*
X152785300Y-64966666D02*
X152951966Y-64987500D01*
X152951966Y-64987500D02*
X153085300Y-65037500D01*
X153085300Y-65037500D02*
X153151966Y-65079166D01*
X153151966Y-65079166D02*
X153185300Y-65116666D01*
X153185300Y-65116666D02*
X153218633Y-65187500D01*
X153218633Y-65187500D02*
X153218633Y-65254166D01*
X153218633Y-65254166D02*
X153185300Y-65316666D01*
X153185300Y-65316666D02*
X153151966Y-65345833D01*
X153151966Y-65345833D02*
X153085300Y-65370833D01*
X153085300Y-65370833D02*
X152951966Y-65387500D01*
X152951966Y-65387500D02*
X152785300Y-65366666D01*
X152785300Y-65366666D02*
X152651966Y-65316666D01*
X152651966Y-65316666D02*
X152585300Y-65275000D01*
X152585300Y-65275000D02*
X152551966Y-65237500D01*
X152551966Y-65237500D02*
X152518633Y-65166666D01*
X159487500Y-61451966D02*
X159450000Y-61485300D01*
X159450000Y-61485300D02*
X159345833Y-61518633D01*
X159345833Y-61518633D02*
X159279167Y-61518633D01*
X159279167Y-61518633D02*
X159183333Y-61485300D01*
X159183333Y-61485300D02*
X159125000Y-61418633D01*
X159125000Y-61418633D02*
X159100000Y-61351966D01*
X159100000Y-61351966D02*
X159083333Y-61218633D01*
X159083333Y-61218633D02*
X159095833Y-61118633D01*
X159095833Y-61118633D02*
X159145833Y-60985300D01*
X159145833Y-60985300D02*
X159187500Y-60918633D01*
X159187500Y-60918633D02*
X159262500Y-60851966D01*
X159262500Y-60851966D02*
X159366667Y-60818633D01*
X159366667Y-60818633D02*
X159433333Y-60818633D01*
X159433333Y-60818633D02*
X159529167Y-60851966D01*
X159529167Y-60851966D02*
X159558333Y-60885300D01*
X160166667Y-60818633D02*
X160033333Y-60818633D01*
X160033333Y-60818633D02*
X159962500Y-60851966D01*
X159962500Y-60851966D02*
X159925000Y-60885300D01*
X159925000Y-60885300D02*
X159845833Y-60985300D01*
X159845833Y-60985300D02*
X159795833Y-61118633D01*
X159795833Y-61118633D02*
X159762500Y-61385300D01*
X159762500Y-61385300D02*
X159787500Y-61451966D01*
X159787500Y-61451966D02*
X159816667Y-61485300D01*
X159816667Y-61485300D02*
X159879167Y-61518633D01*
X159879167Y-61518633D02*
X160012500Y-61518633D01*
X160012500Y-61518633D02*
X160083333Y-61485300D01*
X160083333Y-61485300D02*
X160120833Y-61451966D01*
X160120833Y-61451966D02*
X160162500Y-61385300D01*
X160162500Y-61385300D02*
X160183333Y-61218633D01*
X160183333Y-61218633D02*
X160158333Y-61151966D01*
X160158333Y-61151966D02*
X160129167Y-61118633D01*
X160129167Y-61118633D02*
X160066667Y-61085300D01*
X160066667Y-61085300D02*
X159933333Y-61085300D01*
X159933333Y-61085300D02*
X159862500Y-61118633D01*
X159862500Y-61118633D02*
X159825000Y-61151966D01*
X159825000Y-61151966D02*
X159783333Y-61218633D01*
X164579167Y-66518633D02*
X164387500Y-66185300D01*
X164179167Y-66518633D02*
X164266667Y-65818633D01*
X164266667Y-65818633D02*
X164533333Y-65818633D01*
X164533333Y-65818633D02*
X164595833Y-65851966D01*
X164595833Y-65851966D02*
X164625000Y-65885300D01*
X164625000Y-65885300D02*
X164650000Y-65951966D01*
X164650000Y-65951966D02*
X164637500Y-66051966D01*
X164637500Y-66051966D02*
X164595833Y-66118633D01*
X164595833Y-66118633D02*
X164558333Y-66151966D01*
X164558333Y-66151966D02*
X164487500Y-66185300D01*
X164487500Y-66185300D02*
X164220833Y-66185300D01*
X164925000Y-65885300D02*
X164962500Y-65851966D01*
X164962500Y-65851966D02*
X165033333Y-65818633D01*
X165033333Y-65818633D02*
X165200000Y-65818633D01*
X165200000Y-65818633D02*
X165262500Y-65851966D01*
X165262500Y-65851966D02*
X165291667Y-65885300D01*
X165291667Y-65885300D02*
X165316667Y-65951966D01*
X165316667Y-65951966D02*
X165308333Y-66018633D01*
X165308333Y-66018633D02*
X165262500Y-66118633D01*
X165262500Y-66118633D02*
X164812500Y-66518633D01*
X164812500Y-66518633D02*
X165245833Y-66518633D01*
X180479167Y-83818633D02*
X180566667Y-83118633D01*
X180566667Y-83118633D02*
X180733333Y-83118633D01*
X180733333Y-83118633D02*
X180829167Y-83151966D01*
X180829167Y-83151966D02*
X180887500Y-83218633D01*
X180887500Y-83218633D02*
X180912500Y-83285300D01*
X180912500Y-83285300D02*
X180929167Y-83418633D01*
X180929167Y-83418633D02*
X180916667Y-83518633D01*
X180916667Y-83518633D02*
X180866667Y-83651966D01*
X180866667Y-83651966D02*
X180825000Y-83718633D01*
X180825000Y-83718633D02*
X180750000Y-83785300D01*
X180750000Y-83785300D02*
X180645833Y-83818633D01*
X180645833Y-83818633D02*
X180479167Y-83818633D01*
X181545833Y-83818633D02*
X181145833Y-83818633D01*
X181345833Y-83818633D02*
X181433333Y-83118633D01*
X181433333Y-83118633D02*
X181354167Y-83218633D01*
X181354167Y-83218633D02*
X181279167Y-83285300D01*
X181279167Y-83285300D02*
X181208333Y-83318633D01*
X168898618Y-98257716D02*
X168895671Y-98307803D01*
X168895671Y-98307803D02*
X168845585Y-98405030D01*
X168845585Y-98405030D02*
X168798444Y-98452170D01*
X168798444Y-98452170D02*
X168707109Y-98496365D01*
X168707109Y-98496365D02*
X168618721Y-98490472D01*
X168618721Y-98490472D02*
X168553903Y-98461009D01*
X168553903Y-98461009D02*
X168447837Y-98378514D01*
X168447837Y-98378514D02*
X168385965Y-98298964D01*
X168385965Y-98298964D02*
X168327040Y-98169328D01*
X168327040Y-98169328D02*
X168309362Y-98092725D01*
X168309362Y-98092725D02*
X168315254Y-97992551D01*
X168315254Y-97992551D02*
X168365341Y-97895324D01*
X168365341Y-97895324D02*
X168412482Y-97848183D01*
X168412482Y-97848183D02*
X168503816Y-97803989D01*
X168503816Y-97803989D02*
X168548010Y-97806936D01*
X168975221Y-97709708D02*
X168907456Y-97730332D01*
X168907456Y-97730332D02*
X168863262Y-97727386D01*
X168863262Y-97727386D02*
X168798444Y-97697923D01*
X168798444Y-97697923D02*
X168777820Y-97671407D01*
X168777820Y-97671407D02*
X168760142Y-97594804D01*
X168760142Y-97594804D02*
X168763089Y-97544717D01*
X168763089Y-97544717D02*
X168789605Y-97471060D01*
X168789605Y-97471060D02*
X168883886Y-97376779D01*
X168883886Y-97376779D02*
X168951651Y-97356155D01*
X168951651Y-97356155D02*
X168995845Y-97359101D01*
X168995845Y-97359101D02*
X169060663Y-97388564D01*
X169060663Y-97388564D02*
X169081287Y-97415081D01*
X169081287Y-97415081D02*
X169098964Y-97491684D01*
X169098964Y-97491684D02*
X169096018Y-97541770D01*
X169096018Y-97541770D02*
X169069502Y-97615427D01*
X169069502Y-97615427D02*
X168975221Y-97709708D01*
X168975221Y-97709708D02*
X168948704Y-97783365D01*
X168948704Y-97783365D02*
X168945758Y-97833452D01*
X168945758Y-97833452D02*
X168963436Y-97910055D01*
X168963436Y-97910055D02*
X169045931Y-98016121D01*
X169045931Y-98016121D02*
X169110750Y-98045584D01*
X169110750Y-98045584D02*
X169154944Y-98048530D01*
X169154944Y-98048530D02*
X169222708Y-98027906D01*
X169222708Y-98027906D02*
X169316989Y-97933626D01*
X169316989Y-97933626D02*
X169343506Y-97859969D01*
X169343506Y-97859969D02*
X169346452Y-97809882D01*
X169346452Y-97809882D02*
X169328774Y-97733279D01*
X169328774Y-97733279D02*
X169246278Y-97627213D01*
X169246278Y-97627213D02*
X169181460Y-97597750D01*
X169181460Y-97597750D02*
X169137266Y-97594804D01*
X169137266Y-97594804D02*
X169069502Y-97615427D01*
X149918633Y-68254167D02*
X149585300Y-68445833D01*
X149918633Y-68654167D02*
X149218633Y-68566667D01*
X149218633Y-68566667D02*
X149218633Y-68300000D01*
X149218633Y-68300000D02*
X149251966Y-68237500D01*
X149251966Y-68237500D02*
X149285300Y-68208333D01*
X149285300Y-68208333D02*
X149351966Y-68183333D01*
X149351966Y-68183333D02*
X149451966Y-68195833D01*
X149451966Y-68195833D02*
X149518633Y-68237500D01*
X149518633Y-68237500D02*
X149551966Y-68275000D01*
X149551966Y-68275000D02*
X149585300Y-68345833D01*
X149585300Y-68345833D02*
X149585300Y-68612500D01*
X149918633Y-67587500D02*
X149918633Y-67987500D01*
X149918633Y-67787500D02*
X149218633Y-67700000D01*
X149218633Y-67700000D02*
X149318633Y-67779167D01*
X149318633Y-67779167D02*
X149385300Y-67854167D01*
X149385300Y-67854167D02*
X149418633Y-67925000D01*
X149285300Y-67241666D02*
X149251966Y-67204166D01*
X149251966Y-67204166D02*
X149218633Y-67133333D01*
X149218633Y-67133333D02*
X149218633Y-66966666D01*
X149218633Y-66966666D02*
X149251966Y-66904166D01*
X149251966Y-66904166D02*
X149285300Y-66875000D01*
X149285300Y-66875000D02*
X149351966Y-66850000D01*
X149351966Y-66850000D02*
X149418633Y-66858333D01*
X149418633Y-66858333D02*
X149518633Y-66904166D01*
X149518633Y-66904166D02*
X149918633Y-67354166D01*
X149918633Y-67354166D02*
X149918633Y-66920833D01*
X166979167Y-61568633D02*
X167066667Y-60868633D01*
X167066667Y-60868633D02*
X167233333Y-60868633D01*
X167233333Y-60868633D02*
X167329167Y-60901966D01*
X167329167Y-60901966D02*
X167387500Y-60968633D01*
X167387500Y-60968633D02*
X167412500Y-61035300D01*
X167412500Y-61035300D02*
X167429167Y-61168633D01*
X167429167Y-61168633D02*
X167416667Y-61268633D01*
X167416667Y-61268633D02*
X167366667Y-61401966D01*
X167366667Y-61401966D02*
X167325000Y-61468633D01*
X167325000Y-61468633D02*
X167250000Y-61535300D01*
X167250000Y-61535300D02*
X167145833Y-61568633D01*
X167145833Y-61568633D02*
X166979167Y-61568633D01*
X167700000Y-60868633D02*
X168133333Y-60868633D01*
X168133333Y-60868633D02*
X167866667Y-61135300D01*
X167866667Y-61135300D02*
X167966667Y-61135300D01*
X167966667Y-61135300D02*
X168029167Y-61168633D01*
X168029167Y-61168633D02*
X168058333Y-61201966D01*
X168058333Y-61201966D02*
X168083333Y-61268633D01*
X168083333Y-61268633D02*
X168062500Y-61435300D01*
X168062500Y-61435300D02*
X168020833Y-61501966D01*
X168020833Y-61501966D02*
X167983333Y-61535300D01*
X167983333Y-61535300D02*
X167912500Y-61568633D01*
X167912500Y-61568633D02*
X167712500Y-61568633D01*
X167712500Y-61568633D02*
X167650000Y-61535300D01*
X167650000Y-61535300D02*
X167620833Y-61501966D01*
X166679167Y-63718633D02*
X166487500Y-63385300D01*
X166279167Y-63718633D02*
X166366667Y-63018633D01*
X166366667Y-63018633D02*
X166633333Y-63018633D01*
X166633333Y-63018633D02*
X166695833Y-63051966D01*
X166695833Y-63051966D02*
X166725000Y-63085300D01*
X166725000Y-63085300D02*
X166750000Y-63151966D01*
X166750000Y-63151966D02*
X166737500Y-63251966D01*
X166737500Y-63251966D02*
X166695833Y-63318633D01*
X166695833Y-63318633D02*
X166658333Y-63351966D01*
X166658333Y-63351966D02*
X166587500Y-63385300D01*
X166587500Y-63385300D02*
X166320833Y-63385300D01*
X167345833Y-63718633D02*
X166945833Y-63718633D01*
X167145833Y-63718633D02*
X167233333Y-63018633D01*
X167233333Y-63018633D02*
X167154167Y-63118633D01*
X167154167Y-63118633D02*
X167079167Y-63185300D01*
X167079167Y-63185300D02*
X167008333Y-63218633D01*
X152087500Y-84451966D02*
X152050000Y-84485300D01*
X152050000Y-84485300D02*
X151945833Y-84518633D01*
X151945833Y-84518633D02*
X151879167Y-84518633D01*
X151879167Y-84518633D02*
X151783333Y-84485300D01*
X151783333Y-84485300D02*
X151725000Y-84418633D01*
X151725000Y-84418633D02*
X151700000Y-84351966D01*
X151700000Y-84351966D02*
X151683333Y-84218633D01*
X151683333Y-84218633D02*
X151695833Y-84118633D01*
X151695833Y-84118633D02*
X151745833Y-83985300D01*
X151745833Y-83985300D02*
X151787500Y-83918633D01*
X151787500Y-83918633D02*
X151862500Y-83851966D01*
X151862500Y-83851966D02*
X151966667Y-83818633D01*
X151966667Y-83818633D02*
X152033333Y-83818633D01*
X152033333Y-83818633D02*
X152129167Y-83851966D01*
X152129167Y-83851966D02*
X152158333Y-83885300D01*
X152745833Y-84518633D02*
X152345833Y-84518633D01*
X152545833Y-84518633D02*
X152633333Y-83818633D01*
X152633333Y-83818633D02*
X152554167Y-83918633D01*
X152554167Y-83918633D02*
X152479167Y-83985300D01*
X152479167Y-83985300D02*
X152408333Y-84018633D01*
X182491666Y-72951966D02*
X182587500Y-72985300D01*
X182587500Y-72985300D02*
X182616666Y-73018633D01*
X182616666Y-73018633D02*
X182641666Y-73085300D01*
X182641666Y-73085300D02*
X182629166Y-73185300D01*
X182629166Y-73185300D02*
X182587500Y-73251966D01*
X182587500Y-73251966D02*
X182550000Y-73285300D01*
X182550000Y-73285300D02*
X182479166Y-73318633D01*
X182479166Y-73318633D02*
X182212500Y-73318633D01*
X182212500Y-73318633D02*
X182300000Y-72618633D01*
X182300000Y-72618633D02*
X182533333Y-72618633D01*
X182533333Y-72618633D02*
X182595833Y-72651966D01*
X182595833Y-72651966D02*
X182625000Y-72685300D01*
X182625000Y-72685300D02*
X182650000Y-72751966D01*
X182650000Y-72751966D02*
X182641666Y-72818633D01*
X182641666Y-72818633D02*
X182600000Y-72885300D01*
X182600000Y-72885300D02*
X182562500Y-72918633D01*
X182562500Y-72918633D02*
X182491666Y-72951966D01*
X182491666Y-72951966D02*
X182258333Y-72951966D01*
X182900000Y-72618633D02*
X183300000Y-72618633D01*
X183012500Y-73318633D02*
X183100000Y-72618633D01*
X183812499Y-73318633D02*
X183412499Y-73318633D01*
X183612499Y-73318633D02*
X183699999Y-72618633D01*
X183699999Y-72618633D02*
X183620833Y-72718633D01*
X183620833Y-72718633D02*
X183545833Y-72785300D01*
X183545833Y-72785300D02*
X183474999Y-72818633D01*
X144479167Y-64518633D02*
X144287500Y-64185300D01*
X144079167Y-64518633D02*
X144166667Y-63818633D01*
X144166667Y-63818633D02*
X144433333Y-63818633D01*
X144433333Y-63818633D02*
X144495833Y-63851966D01*
X144495833Y-63851966D02*
X144525000Y-63885300D01*
X144525000Y-63885300D02*
X144550000Y-63951966D01*
X144550000Y-63951966D02*
X144537500Y-64051966D01*
X144537500Y-64051966D02*
X144495833Y-64118633D01*
X144495833Y-64118633D02*
X144458333Y-64151966D01*
X144458333Y-64151966D02*
X144387500Y-64185300D01*
X144387500Y-64185300D02*
X144120833Y-64185300D01*
X144800000Y-63818633D02*
X145266667Y-63818633D01*
X145266667Y-63818633D02*
X144879167Y-64518633D01*
X155079167Y-70546133D02*
X154887500Y-70212800D01*
X154679167Y-70546133D02*
X154766667Y-69846133D01*
X154766667Y-69846133D02*
X155033333Y-69846133D01*
X155033333Y-69846133D02*
X155095833Y-69879466D01*
X155095833Y-69879466D02*
X155125000Y-69912800D01*
X155125000Y-69912800D02*
X155150000Y-69979466D01*
X155150000Y-69979466D02*
X155137500Y-70079466D01*
X155137500Y-70079466D02*
X155095833Y-70146133D01*
X155095833Y-70146133D02*
X155058333Y-70179466D01*
X155058333Y-70179466D02*
X154987500Y-70212800D01*
X154987500Y-70212800D02*
X154720833Y-70212800D01*
X155766667Y-69846133D02*
X155633333Y-69846133D01*
X155633333Y-69846133D02*
X155562500Y-69879466D01*
X155562500Y-69879466D02*
X155525000Y-69912800D01*
X155525000Y-69912800D02*
X155445833Y-70012800D01*
X155445833Y-70012800D02*
X155395833Y-70146133D01*
X155395833Y-70146133D02*
X155362500Y-70412800D01*
X155362500Y-70412800D02*
X155387500Y-70479466D01*
X155387500Y-70479466D02*
X155416667Y-70512800D01*
X155416667Y-70512800D02*
X155479167Y-70546133D01*
X155479167Y-70546133D02*
X155612500Y-70546133D01*
X155612500Y-70546133D02*
X155683333Y-70512800D01*
X155683333Y-70512800D02*
X155720833Y-70479466D01*
X155720833Y-70479466D02*
X155762500Y-70412800D01*
X155762500Y-70412800D02*
X155783333Y-70246133D01*
X155783333Y-70246133D02*
X155758333Y-70179466D01*
X155758333Y-70179466D02*
X155729167Y-70146133D01*
X155729167Y-70146133D02*
X155666667Y-70112800D01*
X155666667Y-70112800D02*
X155533333Y-70112800D01*
X155533333Y-70112800D02*
X155462500Y-70146133D01*
X155462500Y-70146133D02*
X155425000Y-70179466D01*
X155425000Y-70179466D02*
X155383333Y-70246133D01*
X160587500Y-84251966D02*
X160550000Y-84285300D01*
X160550000Y-84285300D02*
X160445833Y-84318633D01*
X160445833Y-84318633D02*
X160379167Y-84318633D01*
X160379167Y-84318633D02*
X160283333Y-84285300D01*
X160283333Y-84285300D02*
X160225000Y-84218633D01*
X160225000Y-84218633D02*
X160200000Y-84151966D01*
X160200000Y-84151966D02*
X160183333Y-84018633D01*
X160183333Y-84018633D02*
X160195833Y-83918633D01*
X160195833Y-83918633D02*
X160245833Y-83785300D01*
X160245833Y-83785300D02*
X160287500Y-83718633D01*
X160287500Y-83718633D02*
X160362500Y-83651966D01*
X160362500Y-83651966D02*
X160466667Y-83618633D01*
X160466667Y-83618633D02*
X160533333Y-83618633D01*
X160533333Y-83618633D02*
X160629167Y-83651966D01*
X160629167Y-83651966D02*
X160658333Y-83685300D01*
X160925000Y-83685300D02*
X160962500Y-83651966D01*
X160962500Y-83651966D02*
X161033333Y-83618633D01*
X161033333Y-83618633D02*
X161200000Y-83618633D01*
X161200000Y-83618633D02*
X161262500Y-83651966D01*
X161262500Y-83651966D02*
X161291667Y-83685300D01*
X161291667Y-83685300D02*
X161316667Y-83751966D01*
X161316667Y-83751966D02*
X161308333Y-83818633D01*
X161308333Y-83818633D02*
X161262500Y-83918633D01*
X161262500Y-83918633D02*
X160812500Y-84318633D01*
X160812500Y-84318633D02*
X161245833Y-84318633D01*
X153120833Y-60285300D02*
X153058333Y-60251966D01*
X153058333Y-60251966D02*
X153000000Y-60185300D01*
X153000000Y-60185300D02*
X152912500Y-60085300D01*
X152912500Y-60085300D02*
X152850000Y-60051966D01*
X152850000Y-60051966D02*
X152783333Y-60051966D01*
X152795833Y-60218633D02*
X152733333Y-60185300D01*
X152733333Y-60185300D02*
X152675000Y-60118633D01*
X152675000Y-60118633D02*
X152658333Y-59985300D01*
X152658333Y-59985300D02*
X152687500Y-59751966D01*
X152687500Y-59751966D02*
X152737500Y-59618633D01*
X152737500Y-59618633D02*
X152812500Y-59551966D01*
X152812500Y-59551966D02*
X152883333Y-59518633D01*
X152883333Y-59518633D02*
X153016666Y-59518633D01*
X153016666Y-59518633D02*
X153079166Y-59551966D01*
X153079166Y-59551966D02*
X153137500Y-59618633D01*
X153137500Y-59618633D02*
X153154166Y-59751966D01*
X153154166Y-59751966D02*
X153125000Y-59985300D01*
X153125000Y-59985300D02*
X153075000Y-60118633D01*
X153075000Y-60118633D02*
X153000000Y-60185300D01*
X153000000Y-60185300D02*
X152929166Y-60218633D01*
X152929166Y-60218633D02*
X152795833Y-60218633D01*
X153762499Y-60218633D02*
X153362499Y-60218633D01*
X153562499Y-60218633D02*
X153649999Y-59518633D01*
X153649999Y-59518633D02*
X153570833Y-59618633D01*
X153570833Y-59618633D02*
X153495833Y-59685300D01*
X153495833Y-59685300D02*
X153424999Y-59718633D01*
X153279167Y-61818633D02*
X153087500Y-61485300D01*
X152879167Y-61818633D02*
X152966667Y-61118633D01*
X152966667Y-61118633D02*
X153233333Y-61118633D01*
X153233333Y-61118633D02*
X153295833Y-61151966D01*
X153295833Y-61151966D02*
X153325000Y-61185300D01*
X153325000Y-61185300D02*
X153350000Y-61251966D01*
X153350000Y-61251966D02*
X153337500Y-61351966D01*
X153337500Y-61351966D02*
X153295833Y-61418633D01*
X153295833Y-61418633D02*
X153258333Y-61451966D01*
X153258333Y-61451966D02*
X153187500Y-61485300D01*
X153187500Y-61485300D02*
X152920833Y-61485300D01*
X153937500Y-61351966D02*
X153879167Y-61818633D01*
X153804167Y-61085300D02*
X153575000Y-61585300D01*
X153575000Y-61585300D02*
X154008333Y-61585300D01*
X144420833Y-61635300D02*
X144358333Y-61601966D01*
X144358333Y-61601966D02*
X144300000Y-61535300D01*
X144300000Y-61535300D02*
X144212500Y-61435300D01*
X144212500Y-61435300D02*
X144150000Y-61401966D01*
X144150000Y-61401966D02*
X144083333Y-61401966D01*
X144095833Y-61568633D02*
X144033333Y-61535300D01*
X144033333Y-61535300D02*
X143975000Y-61468633D01*
X143975000Y-61468633D02*
X143958333Y-61335300D01*
X143958333Y-61335300D02*
X143987500Y-61101966D01*
X143987500Y-61101966D02*
X144037500Y-60968633D01*
X144037500Y-60968633D02*
X144112500Y-60901966D01*
X144112500Y-60901966D02*
X144183333Y-60868633D01*
X144183333Y-60868633D02*
X144316666Y-60868633D01*
X144316666Y-60868633D02*
X144379166Y-60901966D01*
X144379166Y-60901966D02*
X144437500Y-60968633D01*
X144437500Y-60968633D02*
X144454166Y-61101966D01*
X144454166Y-61101966D02*
X144425000Y-61335300D01*
X144425000Y-61335300D02*
X144375000Y-61468633D01*
X144375000Y-61468633D02*
X144300000Y-61535300D01*
X144300000Y-61535300D02*
X144229166Y-61568633D01*
X144229166Y-61568633D02*
X144095833Y-61568633D01*
X144741666Y-60935300D02*
X144779166Y-60901966D01*
X144779166Y-60901966D02*
X144849999Y-60868633D01*
X144849999Y-60868633D02*
X145016666Y-60868633D01*
X145016666Y-60868633D02*
X145079166Y-60901966D01*
X145079166Y-60901966D02*
X145108333Y-60935300D01*
X145108333Y-60935300D02*
X145133333Y-61001966D01*
X145133333Y-61001966D02*
X145124999Y-61068633D01*
X145124999Y-61068633D02*
X145079166Y-61168633D01*
X145079166Y-61168633D02*
X144629166Y-61568633D01*
X144629166Y-61568633D02*
X145062499Y-61568633D01*
X152166666Y-103285300D02*
X152262499Y-103318633D01*
X152262499Y-103318633D02*
X152429166Y-103318633D01*
X152429166Y-103318633D02*
X152499999Y-103285300D01*
X152499999Y-103285300D02*
X152537499Y-103251966D01*
X152537499Y-103251966D02*
X152579166Y-103185300D01*
X152579166Y-103185300D02*
X152587499Y-103118633D01*
X152587499Y-103118633D02*
X152562499Y-103051966D01*
X152562499Y-103051966D02*
X152533333Y-103018633D01*
X152533333Y-103018633D02*
X152470833Y-102985300D01*
X152470833Y-102985300D02*
X152341666Y-102951966D01*
X152341666Y-102951966D02*
X152279166Y-102918633D01*
X152279166Y-102918633D02*
X152249999Y-102885300D01*
X152249999Y-102885300D02*
X152224999Y-102818633D01*
X152224999Y-102818633D02*
X152233333Y-102751966D01*
X152233333Y-102751966D02*
X152274999Y-102685300D01*
X152274999Y-102685300D02*
X152312499Y-102651966D01*
X152312499Y-102651966D02*
X152383333Y-102618633D01*
X152383333Y-102618633D02*
X152549999Y-102618633D01*
X152549999Y-102618633D02*
X152645833Y-102651966D01*
X152883333Y-102618633D02*
X152962500Y-103318633D01*
X152962500Y-103318633D02*
X153158333Y-102818633D01*
X153158333Y-102818633D02*
X153229166Y-103318633D01*
X153229166Y-103318633D02*
X153483333Y-102618633D01*
X154029166Y-103318633D02*
X153629166Y-103318633D01*
X153829166Y-103318633D02*
X153916666Y-102618633D01*
X153916666Y-102618633D02*
X153837500Y-102718633D01*
X153837500Y-102718633D02*
X153762500Y-102785300D01*
X153762500Y-102785300D02*
X153691666Y-102818633D01*
X159779167Y-70526133D02*
X159587500Y-70192800D01*
X159379167Y-70526133D02*
X159466667Y-69826133D01*
X159466667Y-69826133D02*
X159733333Y-69826133D01*
X159733333Y-69826133D02*
X159795833Y-69859466D01*
X159795833Y-69859466D02*
X159825000Y-69892800D01*
X159825000Y-69892800D02*
X159850000Y-69959466D01*
X159850000Y-69959466D02*
X159837500Y-70059466D01*
X159837500Y-70059466D02*
X159795833Y-70126133D01*
X159795833Y-70126133D02*
X159758333Y-70159466D01*
X159758333Y-70159466D02*
X159687500Y-70192800D01*
X159687500Y-70192800D02*
X159420833Y-70192800D01*
X160100000Y-69826133D02*
X160533333Y-69826133D01*
X160533333Y-69826133D02*
X160266667Y-70092800D01*
X160266667Y-70092800D02*
X160366667Y-70092800D01*
X160366667Y-70092800D02*
X160429167Y-70126133D01*
X160429167Y-70126133D02*
X160458333Y-70159466D01*
X160458333Y-70159466D02*
X160483333Y-70226133D01*
X160483333Y-70226133D02*
X160462500Y-70392800D01*
X160462500Y-70392800D02*
X160420833Y-70459466D01*
X160420833Y-70459466D02*
X160383333Y-70492800D01*
X160383333Y-70492800D02*
X160312500Y-70526133D01*
X160312500Y-70526133D02*
X160112500Y-70526133D01*
X160112500Y-70526133D02*
X160050000Y-70492800D01*
X160050000Y-70492800D02*
X160020833Y-70459466D01*
X141079167Y-68018633D02*
X140887500Y-67685300D01*
X140679167Y-68018633D02*
X140766667Y-67318633D01*
X140766667Y-67318633D02*
X141033333Y-67318633D01*
X141033333Y-67318633D02*
X141095833Y-67351966D01*
X141095833Y-67351966D02*
X141125000Y-67385300D01*
X141125000Y-67385300D02*
X141150000Y-67451966D01*
X141150000Y-67451966D02*
X141137500Y-67551966D01*
X141137500Y-67551966D02*
X141095833Y-67618633D01*
X141095833Y-67618633D02*
X141058333Y-67651966D01*
X141058333Y-67651966D02*
X140987500Y-67685300D01*
X140987500Y-67685300D02*
X140720833Y-67685300D01*
X141529167Y-67618633D02*
X141466667Y-67585300D01*
X141466667Y-67585300D02*
X141437500Y-67551966D01*
X141437500Y-67551966D02*
X141412500Y-67485300D01*
X141412500Y-67485300D02*
X141416667Y-67451966D01*
X141416667Y-67451966D02*
X141458333Y-67385300D01*
X141458333Y-67385300D02*
X141495833Y-67351966D01*
X141495833Y-67351966D02*
X141566667Y-67318633D01*
X141566667Y-67318633D02*
X141700000Y-67318633D01*
X141700000Y-67318633D02*
X141762500Y-67351966D01*
X141762500Y-67351966D02*
X141791667Y-67385300D01*
X141791667Y-67385300D02*
X141816667Y-67451966D01*
X141816667Y-67451966D02*
X141812500Y-67485300D01*
X141812500Y-67485300D02*
X141770833Y-67551966D01*
X141770833Y-67551966D02*
X141733333Y-67585300D01*
X141733333Y-67585300D02*
X141662500Y-67618633D01*
X141662500Y-67618633D02*
X141529167Y-67618633D01*
X141529167Y-67618633D02*
X141458333Y-67651966D01*
X141458333Y-67651966D02*
X141420833Y-67685300D01*
X141420833Y-67685300D02*
X141379167Y-67751966D01*
X141379167Y-67751966D02*
X141362500Y-67885300D01*
X141362500Y-67885300D02*
X141387500Y-67951966D01*
X141387500Y-67951966D02*
X141416667Y-67985300D01*
X141416667Y-67985300D02*
X141479167Y-68018633D01*
X141479167Y-68018633D02*
X141612500Y-68018633D01*
X141612500Y-68018633D02*
X141683333Y-67985300D01*
X141683333Y-67985300D02*
X141720833Y-67951966D01*
X141720833Y-67951966D02*
X141762500Y-67885300D01*
X141762500Y-67885300D02*
X141779167Y-67751966D01*
X141779167Y-67751966D02*
X141754167Y-67685300D01*
X141754167Y-67685300D02*
X141725000Y-67651966D01*
X141725000Y-67651966D02*
X141662500Y-67618633D01*
X151245833Y-69318633D02*
X151054166Y-68985300D01*
X150845833Y-69318633D02*
X150933333Y-68618633D01*
X150933333Y-68618633D02*
X151199999Y-68618633D01*
X151199999Y-68618633D02*
X151262499Y-68651966D01*
X151262499Y-68651966D02*
X151291666Y-68685300D01*
X151291666Y-68685300D02*
X151316666Y-68751966D01*
X151316666Y-68751966D02*
X151304166Y-68851966D01*
X151304166Y-68851966D02*
X151262499Y-68918633D01*
X151262499Y-68918633D02*
X151224999Y-68951966D01*
X151224999Y-68951966D02*
X151154166Y-68985300D01*
X151154166Y-68985300D02*
X150887499Y-68985300D01*
X151912499Y-69318633D02*
X151512499Y-69318633D01*
X151712499Y-69318633D02*
X151799999Y-68618633D01*
X151799999Y-68618633D02*
X151720833Y-68718633D01*
X151720833Y-68718633D02*
X151645833Y-68785300D01*
X151645833Y-68785300D02*
X151574999Y-68818633D01*
X152579166Y-69318633D02*
X152179166Y-69318633D01*
X152379166Y-69318633D02*
X152466666Y-68618633D01*
X152466666Y-68618633D02*
X152387500Y-68718633D01*
X152387500Y-68718633D02*
X152312500Y-68785300D01*
X152312500Y-68785300D02*
X152241666Y-68818633D01*
D15*
%TO.C,kibuzzard-678D0B69*%
G36*
X153108345Y-116548755D02*
G01*
X153138082Y-116620678D01*
X153105579Y-116696750D01*
X153037114Y-116721646D01*
X152887736Y-116721646D01*
X152887736Y-116519710D01*
X153035731Y-116519710D01*
X153108345Y-116548755D01*
G37*
G36*
X157072384Y-116548755D02*
G01*
X157102121Y-116620678D01*
X157070309Y-116696750D01*
X157003919Y-116721646D01*
X156851775Y-116721646D01*
X156851775Y-116519710D01*
X157001153Y-116519710D01*
X157072384Y-116548755D01*
G37*
G36*
X153994583Y-116526452D02*
G01*
X154067543Y-116579876D01*
X154117335Y-116658887D01*
X154133933Y-116753458D01*
X154117508Y-116848721D01*
X154068234Y-116927040D01*
X153995101Y-116979426D01*
X153907100Y-116996888D01*
X153821865Y-116978907D01*
X153748732Y-116924965D01*
X153698421Y-116846127D01*
X153681651Y-116753458D01*
X153698248Y-116658887D01*
X153748041Y-116579876D01*
X153821346Y-116526452D01*
X153908483Y-116508645D01*
X153994583Y-116526452D01*
G37*
G36*
X158296104Y-116526452D02*
G01*
X158369064Y-116579876D01*
X158418857Y-116658887D01*
X158435454Y-116753458D01*
X158419030Y-116848721D01*
X158369756Y-116927040D01*
X158296623Y-116979426D01*
X158208621Y-116996888D01*
X158123386Y-116978907D01*
X158050254Y-116924965D01*
X157999942Y-116846127D01*
X157983172Y-116753458D01*
X157999769Y-116658887D01*
X158049562Y-116579876D01*
X158122868Y-116526452D01*
X158210005Y-116508645D01*
X158296104Y-116526452D01*
G37*
G36*
X159794058Y-115908291D02*
G01*
X159876161Y-115920470D01*
X159956675Y-115940638D01*
X160034824Y-115968600D01*
X160109856Y-116004087D01*
X160181048Y-116046758D01*
X160247715Y-116096202D01*
X160309215Y-116151942D01*
X160364955Y-116213442D01*
X160414399Y-116280109D01*
X160457070Y-116351301D01*
X160492557Y-116426333D01*
X160520520Y-116504483D01*
X160540687Y-116584996D01*
X160552866Y-116667099D01*
X160556939Y-116750000D01*
X160552866Y-116832901D01*
X160540687Y-116915004D01*
X160520520Y-116995517D01*
X160492557Y-117073667D01*
X160457070Y-117148699D01*
X160414399Y-117219891D01*
X160364955Y-117286558D01*
X160309215Y-117348058D01*
X160247715Y-117403798D01*
X160181048Y-117453242D01*
X160109856Y-117495913D01*
X160034824Y-117531400D01*
X159956675Y-117559362D01*
X159876161Y-117579530D01*
X159794058Y-117591709D01*
X159711157Y-117595781D01*
X159595897Y-117595781D01*
X158871139Y-117595781D01*
X158215537Y-117595781D01*
X157205855Y-117595781D01*
X155894652Y-117595781D01*
X154807515Y-117595781D01*
X153914016Y-117595781D01*
X152760489Y-117595781D01*
X152634624Y-117595781D01*
X152288843Y-117595781D01*
X152205942Y-117591709D01*
X152123839Y-117579530D01*
X152043325Y-117559362D01*
X151965176Y-117531400D01*
X151890144Y-117495913D01*
X151818952Y-117453242D01*
X151752285Y-117403798D01*
X151690785Y-117348058D01*
X151635045Y-117286558D01*
X151585601Y-117219891D01*
X151542930Y-117148699D01*
X151507443Y-117073667D01*
X151479480Y-116995517D01*
X151459313Y-116915004D01*
X151447134Y-116832901D01*
X151443061Y-116750000D01*
X151447134Y-116667099D01*
X151459313Y-116584996D01*
X151479480Y-116504483D01*
X151507443Y-116426333D01*
X151523463Y-116392462D01*
X152634624Y-116392462D01*
X152634624Y-117106155D01*
X152636699Y-117153873D01*
X152649839Y-117191909D01*
X152688566Y-117223721D01*
X152760489Y-117233402D01*
X152833794Y-117223721D01*
X152872522Y-117192600D01*
X152885662Y-117155256D01*
X152887736Y-117107538D01*
X152887736Y-116974758D01*
X153035731Y-116974758D01*
X153092266Y-116969225D01*
X153151222Y-116952628D01*
X153210005Y-116925657D01*
X153266021Y-116889004D01*
X153315641Y-116840422D01*
X153355233Y-116777663D01*
X153361792Y-116758990D01*
X153428538Y-116758990D01*
X153437442Y-116856933D01*
X153464154Y-116947441D01*
X153508673Y-117030515D01*
X153571000Y-117106155D01*
X153645862Y-117169087D01*
X153727985Y-117214039D01*
X153817370Y-117241010D01*
X153914016Y-117250000D01*
X154008025Y-117240880D01*
X154095032Y-117213520D01*
X154175037Y-117167920D01*
X154248041Y-117104080D01*
X154308855Y-117027446D01*
X154352294Y-116943465D01*
X154378357Y-116852135D01*
X154387045Y-116753458D01*
X154378227Y-116653052D01*
X154351775Y-116560685D01*
X154307688Y-116476357D01*
X154245966Y-116400069D01*
X154171623Y-116336834D01*
X154162134Y-116331604D01*
X154433379Y-116331604D01*
X154439603Y-116433956D01*
X154688566Y-117147649D01*
X154701014Y-117177386D01*
X154738359Y-117213347D01*
X154807515Y-117233402D01*
X154886007Y-117209889D01*
X154930613Y-117139350D01*
X155060627Y-116714730D01*
X155190641Y-117140733D01*
X155198248Y-117160788D01*
X155216229Y-117189834D01*
X155254956Y-117220954D01*
X155313739Y-117233402D01*
X155390848Y-117211964D01*
X155434071Y-117147649D01*
X155681651Y-116433956D01*
X155684777Y-116392462D01*
X155768787Y-116392462D01*
X155768787Y-117107538D01*
X155770862Y-117155256D01*
X155784002Y-117193292D01*
X155822729Y-117225104D01*
X155894652Y-117234786D01*
X156403642Y-117234786D01*
X156451360Y-117232711D01*
X156489396Y-117219571D01*
X156521208Y-117180844D01*
X156530890Y-117108921D01*
X156521208Y-117035615D01*
X156490088Y-116996888D01*
X156452743Y-116983748D01*
X156405025Y-116981674D01*
X156021899Y-116981674D01*
X156021899Y-116858575D01*
X156275012Y-116858575D01*
X156320655Y-116856501D01*
X156355233Y-116845436D01*
X156382204Y-116813624D01*
X156389811Y-116752075D01*
X156382204Y-116689142D01*
X156355924Y-116655947D01*
X156322729Y-116644882D01*
X156277778Y-116642808D01*
X156021899Y-116642808D01*
X156021899Y-116519710D01*
X156403642Y-116519710D01*
X156451360Y-116517635D01*
X156489396Y-116504495D01*
X156521208Y-116465768D01*
X156530890Y-116393845D01*
X156530707Y-116392462D01*
X156598663Y-116392462D01*
X156598663Y-117106155D01*
X156600738Y-117153873D01*
X156613877Y-117191909D01*
X156652605Y-117223721D01*
X156724527Y-117233402D01*
X156797833Y-117223721D01*
X156836561Y-117192600D01*
X156849700Y-117155256D01*
X156851775Y-117107538D01*
X156851775Y-116973375D01*
X156980406Y-116973375D01*
X157128400Y-117173928D01*
X157205855Y-117238243D01*
X157304057Y-117200207D01*
X157370447Y-117118603D01*
X157333103Y-117023167D01*
X157233518Y-116890387D01*
X157301137Y-116815084D01*
X157326582Y-116758990D01*
X157730060Y-116758990D01*
X157738964Y-116856933D01*
X157765675Y-116947441D01*
X157810195Y-117030515D01*
X157872522Y-117106155D01*
X157947384Y-117169087D01*
X158029507Y-117214039D01*
X158118891Y-117241010D01*
X158215537Y-117250000D01*
X158309546Y-117240880D01*
X158396554Y-117213520D01*
X158476559Y-117167920D01*
X158549562Y-117104080D01*
X158610376Y-117027446D01*
X158653815Y-116943465D01*
X158679878Y-116852135D01*
X158688566Y-116753458D01*
X158679749Y-116653052D01*
X158653296Y-116560685D01*
X158609209Y-116476357D01*
X158547487Y-116400069D01*
X158535292Y-116389696D01*
X158746657Y-116389696D01*
X158746657Y-117107538D01*
X158749424Y-117155947D01*
X158762563Y-117193983D01*
X158799908Y-117225104D01*
X158871139Y-117234786D01*
X158944444Y-117225104D01*
X158983172Y-117193983D01*
X158996312Y-117156639D01*
X158998386Y-117108921D01*
X158998386Y-116724412D01*
X159356616Y-117197441D01*
X159397418Y-117227178D01*
X159468649Y-117234786D01*
X159541955Y-117225104D01*
X159580682Y-117193983D01*
X159593822Y-117156639D01*
X159595897Y-117108921D01*
X159595897Y-116395228D01*
X159593822Y-116347510D01*
X159580682Y-116309474D01*
X159541955Y-116277663D01*
X159470032Y-116267981D01*
X159398110Y-116277663D01*
X159359382Y-116307400D01*
X159345551Y-116344053D01*
X159342785Y-116389696D01*
X159342785Y-116786653D01*
X158997003Y-116321923D01*
X158972107Y-116293568D01*
X158936837Y-116276279D01*
X158873905Y-116267981D01*
X158801291Y-116276971D01*
X158763255Y-116306708D01*
X158749424Y-116343361D01*
X158746657Y-116389696D01*
X158535292Y-116389696D01*
X158473144Y-116336834D01*
X158391194Y-116291667D01*
X158301637Y-116264566D01*
X158204472Y-116255533D01*
X158109296Y-116264696D01*
X158021554Y-116292185D01*
X157941246Y-116338001D01*
X157868373Y-116402144D01*
X157807861Y-116479426D01*
X157764638Y-116564661D01*
X157738704Y-116657849D01*
X157730060Y-116758990D01*
X157326582Y-116758990D01*
X157341709Y-116725642D01*
X157355233Y-116622061D01*
X157346588Y-116539938D01*
X157320655Y-116465076D01*
X157281063Y-116401279D01*
X157231443Y-116352351D01*
X157175772Y-116315698D01*
X157118027Y-116288728D01*
X157060108Y-116272130D01*
X157003919Y-116266598D01*
X156725911Y-116266598D01*
X156652605Y-116276279D01*
X156613877Y-116308091D01*
X156600738Y-116346127D01*
X156598663Y-116392462D01*
X156530707Y-116392462D01*
X156521208Y-116320539D01*
X156490088Y-116281812D01*
X156452743Y-116268672D01*
X156405025Y-116266598D01*
X155898801Y-116266598D01*
X155797142Y-116293568D01*
X155768787Y-116392462D01*
X155684777Y-116392462D01*
X155689258Y-116332988D01*
X155602812Y-116272130D01*
X155498386Y-116266598D01*
X155442370Y-116352351D01*
X155298525Y-116775588D01*
X155185108Y-116360650D01*
X155180959Y-116349585D01*
X155174043Y-116332296D01*
X155165053Y-116315007D01*
X155149839Y-116297026D01*
X155128400Y-116281812D01*
X155097971Y-116270055D01*
X155057861Y-116266598D01*
X154978331Y-116289765D01*
X154936146Y-116359267D01*
X154822729Y-116772822D01*
X154678884Y-116352351D01*
X154622868Y-116267289D01*
X154519825Y-116273513D01*
X154433379Y-116331604D01*
X154162134Y-116331604D01*
X154089673Y-116291667D01*
X154000115Y-116264566D01*
X153902951Y-116255533D01*
X153807774Y-116264696D01*
X153720032Y-116292185D01*
X153639725Y-116338001D01*
X153566851Y-116402144D01*
X153506339Y-116479426D01*
X153463117Y-116564661D01*
X153437183Y-116657849D01*
X153428538Y-116758990D01*
X153361792Y-116758990D01*
X153381166Y-116703838D01*
X153389811Y-116622061D01*
X153380994Y-116539938D01*
X153354541Y-116465076D01*
X153314603Y-116401279D01*
X153265330Y-116352351D01*
X153210005Y-116315698D01*
X153151913Y-116288728D01*
X153093476Y-116272130D01*
X153037114Y-116266598D01*
X152761872Y-116266598D01*
X152688566Y-116276279D01*
X152649839Y-116308091D01*
X152636699Y-116346127D01*
X152634624Y-116392462D01*
X151523463Y-116392462D01*
X151542930Y-116351301D01*
X151585601Y-116280109D01*
X151635045Y-116213442D01*
X151690785Y-116151942D01*
X151752285Y-116096202D01*
X151818952Y-116046758D01*
X151890144Y-116004087D01*
X151965176Y-115968600D01*
X152043325Y-115940638D01*
X152123839Y-115920470D01*
X152205942Y-115908291D01*
X152288843Y-115904219D01*
X152634624Y-115904219D01*
X159595897Y-115904219D01*
X159711157Y-115904219D01*
X159794058Y-115908291D01*
G37*
D16*
%TO.C,U1*%
X153800000Y-88700000D02*
X153800000Y-88000000D01*
X154900000Y-88700000D02*
X153800000Y-88700000D01*
X158100000Y-83300000D02*
X159200000Y-83300000D01*
X159200000Y-83300000D02*
X159200000Y-84000000D01*
X159200000Y-88000000D02*
X159200000Y-88700000D01*
X159200000Y-88700000D02*
X158100000Y-88700000D01*
X153900000Y-83400000D02*
X153600000Y-83000000D01*
X154200000Y-83000000D01*
X153900000Y-83400000D01*
G36*
X153900000Y-83400000D02*
G01*
X153600000Y-83000000D01*
X154200000Y-83000000D01*
X153900000Y-83400000D01*
G37*
%TO.C,C3*%
X162065000Y-85738748D02*
X162065000Y-86261252D01*
X163535000Y-85738748D02*
X163535000Y-86261252D01*
%TO.C,J4*%
X179200000Y-88200000D02*
X179200000Y-90200000D01*
X179440000Y-88440000D02*
X179440000Y-101550000D01*
X181440000Y-88200000D02*
X179200000Y-88200000D01*
X181500000Y-88450000D02*
X181500000Y-101550000D01*
X182784000Y-97740000D02*
X182726000Y-97681000D01*
X183024000Y-97570000D02*
X182931000Y-97476000D01*
X185069000Y-100025000D02*
X184976000Y-99931000D01*
X185275000Y-99820000D02*
X185216000Y-99761000D01*
X186500000Y-88450000D02*
X186500000Y-101550000D01*
X188560000Y-88440000D02*
X179440000Y-88440000D01*
X188560000Y-88450000D02*
X188560000Y-101550000D01*
X188560000Y-101560000D02*
X179440000Y-101560000D01*
X182319550Y-91279383D02*
G75*
G02*
X182516000Y-90461000I1680445J29385D01*
G01*
X182516648Y-92038712D02*
G75*
G02*
X182320000Y-91250000I1483352J788712D01*
G01*
X183210911Y-89766047D02*
G75*
G02*
X184789000Y-89766000I789089J-1483948D01*
G01*
X184789089Y-92733953D02*
G75*
G02*
X183211000Y-92734000I-789089J1483953D01*
G01*
X185483953Y-90460911D02*
G75*
G02*
X185484000Y-92039000I-1483948J-789089D01*
G01*
X185680000Y-98750000D02*
G75*
G02*
X182320000Y-98750000I-1680000J0D01*
G01*
X182320000Y-98750000D02*
G75*
G02*
X185680000Y-98750000I1680000J0D01*
G01*
%TO.C,C5*%
X159365580Y-65690000D02*
X159084420Y-65690000D01*
X159365580Y-66710000D02*
X159084420Y-66710000D01*
D11*
%TO.C,J1*%
X109520000Y-73000000D02*
X115220000Y-73000000D01*
X109520000Y-85000000D02*
X109520000Y-73000000D01*
X115120000Y-85000000D02*
X109520000Y-85000000D01*
X118520000Y-73000000D02*
X125320000Y-73000000D01*
X118520000Y-85000000D02*
X125320000Y-85000000D01*
X128520000Y-82700000D02*
X128520000Y-75200000D01*
D15*
%TO.C,kibuzzard-678D0758*%
G36*
X122030019Y-105794854D02*
G01*
X122059921Y-105867177D01*
X122027237Y-105943672D01*
X121958391Y-105968707D01*
X121808183Y-105968707D01*
X121808183Y-105765647D01*
X121957000Y-105765647D01*
X122030019Y-105794854D01*
G37*
G36*
X119261938Y-105772427D02*
G01*
X119335304Y-105826147D01*
X119385373Y-105905598D01*
X119402063Y-106000695D01*
X119385547Y-106096488D01*
X119335999Y-106175243D01*
X119262459Y-106227921D01*
X119173968Y-106245480D01*
X119088259Y-106227399D01*
X119014720Y-106173157D01*
X118964128Y-106093880D01*
X118947265Y-106000695D01*
X118963955Y-105905598D01*
X119014024Y-105826147D01*
X119087738Y-105772427D01*
X119175359Y-105754520D01*
X119261938Y-105772427D01*
G37*
G36*
X125238050Y-105156377D02*
G01*
X125320340Y-105168583D01*
X125401036Y-105188797D01*
X125479363Y-105216823D01*
X125554566Y-105252391D01*
X125625920Y-105295159D01*
X125692739Y-105344715D01*
X125754379Y-105400582D01*
X125810246Y-105462222D01*
X125859802Y-105529040D01*
X125902570Y-105600395D01*
X125938138Y-105675597D01*
X125966164Y-105753924D01*
X125986377Y-105834621D01*
X125998584Y-105916910D01*
X126002666Y-106000000D01*
X125998584Y-106083090D01*
X125986377Y-106165379D01*
X125966164Y-106246076D01*
X125938138Y-106324403D01*
X125902570Y-106399605D01*
X125859802Y-106470960D01*
X125810246Y-106537778D01*
X125754379Y-106599418D01*
X125692739Y-106655285D01*
X125625920Y-106704841D01*
X125554566Y-106747609D01*
X125479363Y-106783177D01*
X125401036Y-106811203D01*
X125320340Y-106831417D01*
X125238050Y-106843623D01*
X125154961Y-106847705D01*
X125039059Y-106847705D01*
X124937529Y-106847705D01*
X123714998Y-106847705D01*
X122799838Y-106847705D01*
X121680227Y-106847705D01*
X121058530Y-106847705D01*
X120143370Y-106847705D01*
X119180923Y-106847705D01*
X118692745Y-106847705D01*
X118345039Y-106847705D01*
X118261950Y-106843623D01*
X118179660Y-106831417D01*
X118098964Y-106811203D01*
X118020637Y-106783177D01*
X117945434Y-106747609D01*
X117874080Y-106704841D01*
X117807261Y-106655285D01*
X117745621Y-106599418D01*
X117689754Y-106537778D01*
X117640198Y-106470960D01*
X117597430Y-106399605D01*
X117561862Y-106324403D01*
X117533836Y-106246076D01*
X117513623Y-106165379D01*
X117501416Y-106083090D01*
X117497641Y-106006259D01*
X118692745Y-106006259D01*
X118701698Y-106104746D01*
X118728558Y-106195758D01*
X118773325Y-106279294D01*
X118835999Y-106355355D01*
X118911277Y-106418637D01*
X118993857Y-106463839D01*
X119083739Y-106490960D01*
X119180923Y-106500000D01*
X119275455Y-106490829D01*
X119362946Y-106463317D01*
X119443396Y-106417463D01*
X119516806Y-106353268D01*
X119577958Y-106276208D01*
X119621639Y-106191759D01*
X119647847Y-106099922D01*
X119656583Y-106000695D01*
X119647717Y-105899731D01*
X119621117Y-105806850D01*
X119576785Y-105722053D01*
X119514720Y-105645341D01*
X119505726Y-105637691D01*
X119714998Y-105637691D01*
X119714998Y-106027121D01*
X119721952Y-106111266D01*
X119742814Y-106194019D01*
X119776715Y-106272949D01*
X119822786Y-106345619D01*
X119882765Y-106408380D01*
X119958391Y-106457580D01*
X120046361Y-106489395D01*
X120143370Y-106500000D01*
X120240554Y-106489569D01*
X120329045Y-106458275D01*
X120405366Y-106409771D01*
X120466041Y-106347705D01*
X120512807Y-106275556D01*
X120547404Y-106196801D01*
X120568788Y-106114047D01*
X120575916Y-106029903D01*
X120575916Y-105639082D01*
X120574888Y-105615438D01*
X120635721Y-105615438D01*
X120644066Y-105678025D01*
X120670491Y-105710709D01*
X120701785Y-105721836D01*
X120741423Y-105723922D01*
X120934747Y-105723922D01*
X120934747Y-106359527D01*
X120936834Y-106406120D01*
X120949351Y-106443672D01*
X120986903Y-106474965D01*
X121058530Y-106484701D01*
X121130853Y-106474965D01*
X121169796Y-106444367D01*
X121183009Y-106407510D01*
X121185095Y-106360918D01*
X121185095Y-105723922D01*
X121377028Y-105723922D01*
X121416667Y-105721836D01*
X121448656Y-105710709D01*
X121475777Y-105678025D01*
X121481276Y-105637691D01*
X121553662Y-105637691D01*
X121553662Y-106355355D01*
X121555749Y-106403338D01*
X121568962Y-106441586D01*
X121607904Y-106473574D01*
X121680227Y-106483310D01*
X121753941Y-106473574D01*
X121792884Y-106442281D01*
X121806096Y-106404729D01*
X121808183Y-106356745D01*
X121808183Y-106223227D01*
X121957000Y-106223227D01*
X122013850Y-106217663D01*
X122073134Y-106200974D01*
X122132244Y-106173853D01*
X122188572Y-106136996D01*
X122238468Y-106088143D01*
X122278280Y-106025035D01*
X122304358Y-105950800D01*
X122313051Y-105868567D01*
X122304184Y-105785987D01*
X122277585Y-105710709D01*
X122237425Y-105646558D01*
X122228495Y-105637691D01*
X122371465Y-105637691D01*
X122371465Y-106027121D01*
X122378419Y-106111266D01*
X122399281Y-106194019D01*
X122433183Y-106272949D01*
X122479254Y-106345619D01*
X122539233Y-106408380D01*
X122614859Y-106457580D01*
X122702828Y-106489395D01*
X122799838Y-106500000D01*
X122897021Y-106489569D01*
X122985512Y-106458275D01*
X123061834Y-106409771D01*
X123122508Y-106347705D01*
X123169274Y-106275556D01*
X123203871Y-106196801D01*
X123225255Y-106114047D01*
X123232383Y-106029903D01*
X123232383Y-105639082D01*
X123231355Y-105615438D01*
X123292188Y-105615438D01*
X123300533Y-105678025D01*
X123326959Y-105710709D01*
X123358252Y-105721836D01*
X123397891Y-105723922D01*
X123591215Y-105723922D01*
X123591215Y-106359527D01*
X123593301Y-106406120D01*
X123605818Y-106443672D01*
X123643370Y-106474965D01*
X123714998Y-106484701D01*
X123787320Y-106474965D01*
X123826263Y-106444367D01*
X123839476Y-106407510D01*
X123841562Y-106360918D01*
X123841562Y-105917246D01*
X124506375Y-105917246D01*
X124513329Y-105981224D01*
X124544274Y-106016690D01*
X124606514Y-106028512D01*
X124937529Y-106028512D01*
X125007070Y-106015994D01*
X125031409Y-105981919D01*
X125039059Y-105918637D01*
X125030714Y-105854659D01*
X125000811Y-105820236D01*
X124938920Y-105808762D01*
X124607904Y-105808762D01*
X124541145Y-105821280D01*
X124514720Y-105854659D01*
X124506375Y-105917246D01*
X123841562Y-105917246D01*
X123841562Y-105723922D01*
X124033496Y-105723922D01*
X124073134Y-105721836D01*
X124105123Y-105710709D01*
X124132244Y-105678025D01*
X124140589Y-105616829D01*
X124132244Y-105555633D01*
X124105818Y-105522949D01*
X124074525Y-105511822D01*
X124034886Y-105509736D01*
X123399281Y-105509736D01*
X123359643Y-105511822D01*
X123327654Y-105522949D01*
X123300533Y-105554937D01*
X123292188Y-105615438D01*
X123231355Y-105615438D01*
X123230297Y-105591099D01*
X123217084Y-105552156D01*
X123178141Y-105519471D01*
X123105818Y-105509736D01*
X123033496Y-105519471D01*
X122994553Y-105549374D01*
X122980644Y-105585535D01*
X122977863Y-105630737D01*
X122977863Y-106025730D01*
X122966041Y-106114743D01*
X122930575Y-106184284D01*
X122875290Y-106229138D01*
X122804010Y-106244089D01*
X122744553Y-106234875D01*
X122696917Y-106207232D01*
X122641284Y-106125174D01*
X122627376Y-106027121D01*
X122627376Y-105639082D01*
X122624594Y-105589708D01*
X122610686Y-105550765D01*
X122572439Y-105519471D01*
X122499420Y-105509736D01*
X122425707Y-105519471D01*
X122386764Y-105551460D01*
X122373551Y-105589708D01*
X122371465Y-105637691D01*
X122228495Y-105637691D01*
X122187877Y-105597357D01*
X122132244Y-105560501D01*
X122073829Y-105533380D01*
X122015067Y-105516690D01*
X121958391Y-105511127D01*
X121681618Y-105511127D01*
X121607904Y-105520862D01*
X121568962Y-105552851D01*
X121555749Y-105591099D01*
X121553662Y-105637691D01*
X121481276Y-105637691D01*
X121484121Y-105616829D01*
X121475777Y-105555633D01*
X121449351Y-105522949D01*
X121418057Y-105511822D01*
X121378419Y-105509736D01*
X120742814Y-105509736D01*
X120703176Y-105511822D01*
X120671187Y-105522949D01*
X120644066Y-105554937D01*
X120635721Y-105615438D01*
X120574888Y-105615438D01*
X120573829Y-105591099D01*
X120560617Y-105552156D01*
X120521674Y-105519471D01*
X120449351Y-105509736D01*
X120377028Y-105519471D01*
X120338085Y-105549374D01*
X120324177Y-105585535D01*
X120321395Y-105630737D01*
X120321395Y-106025730D01*
X120309573Y-106114743D01*
X120274108Y-106184284D01*
X120218822Y-106229138D01*
X120147543Y-106244089D01*
X120088085Y-106234875D01*
X120040450Y-106207232D01*
X119984817Y-106125174D01*
X119970909Y-106027121D01*
X119970909Y-105639082D01*
X119968127Y-105589708D01*
X119954219Y-105550765D01*
X119915971Y-105519471D01*
X119842953Y-105509736D01*
X119769240Y-105519471D01*
X119730297Y-105551460D01*
X119717084Y-105589708D01*
X119714998Y-105637691D01*
X119505726Y-105637691D01*
X119439963Y-105581754D01*
X119357557Y-105536335D01*
X119267501Y-105509084D01*
X119169796Y-105500000D01*
X119074090Y-105509214D01*
X118985860Y-105536857D01*
X118905105Y-105582928D01*
X118831827Y-105647427D01*
X118770978Y-105725139D01*
X118727515Y-105810848D01*
X118701437Y-105904555D01*
X118692745Y-106006259D01*
X117497641Y-106006259D01*
X117497334Y-106000000D01*
X117501416Y-105916910D01*
X117513623Y-105834621D01*
X117533836Y-105753924D01*
X117561862Y-105675597D01*
X117597430Y-105600395D01*
X117640198Y-105529040D01*
X117689754Y-105462222D01*
X117745621Y-105400582D01*
X117807261Y-105344715D01*
X117874080Y-105295159D01*
X117945434Y-105252391D01*
X118020637Y-105216823D01*
X118098964Y-105188797D01*
X118179660Y-105168583D01*
X118261950Y-105156377D01*
X118345039Y-105152295D01*
X118692745Y-105152295D01*
X125039059Y-105152295D01*
X125154961Y-105152295D01*
X125238050Y-105156377D01*
G37*
D16*
%TO.C,Q3*%
X147100000Y-65340000D02*
X146450000Y-65340000D01*
X147100000Y-65340000D02*
X147750000Y-65340000D01*
X147100000Y-68460000D02*
X146450000Y-68460000D01*
X147100000Y-68460000D02*
X147750000Y-68460000D01*
X148502500Y-68740000D02*
X148022500Y-68740000D01*
X148262500Y-68410000D01*
X148502500Y-68740000D01*
G36*
X148502500Y-68740000D02*
G01*
X148022500Y-68740000D01*
X148262500Y-68410000D01*
X148502500Y-68740000D01*
G37*
%TO.C,C7*%
X134065000Y-81638748D02*
X134065000Y-82161252D01*
X135535000Y-81638748D02*
X135535000Y-82161252D01*
%TO.C,D2*%
X141290000Y-65045000D02*
X141290000Y-61955000D01*
X135740000Y-63500462D02*
G75*
G02*
X141290000Y-61955170I2990000J462D01*
G01*
X141290000Y-65044830D02*
G75*
G02*
X135740000Y-63499538I-2560000J1544830D01*
G01*
X141230000Y-63500000D02*
G75*
G02*
X136230000Y-63500000I-2500000J0D01*
G01*
X136230000Y-63500000D02*
G75*
G02*
X141230000Y-63500000I2500000J0D01*
G01*
D11*
%TO.C,J3*%
X109520000Y-92050000D02*
X115220000Y-92050000D01*
X109520000Y-104050000D02*
X109520000Y-92050000D01*
X115120000Y-104050000D02*
X109520000Y-104050000D01*
X118520000Y-92050000D02*
X125320000Y-92050000D01*
X118520000Y-104050000D02*
X125320000Y-104050000D01*
X128520000Y-101750000D02*
X128520000Y-94250000D01*
D16*
%TO.C,U3*%
X162537500Y-61890000D02*
X161887500Y-61890000D01*
X162537500Y-61890000D02*
X163187500Y-61890000D01*
X162537500Y-65010000D02*
X161887500Y-65010000D01*
X162537500Y-65010000D02*
X163187500Y-65010000D01*
X161375000Y-61940000D02*
X161135000Y-61610000D01*
X161615000Y-61610000D01*
X161375000Y-61940000D01*
G36*
X161375000Y-61940000D02*
G01*
X161135000Y-61610000D01*
X161615000Y-61610000D01*
X161375000Y-61940000D01*
G37*
%TO.C,R5*%
X155737742Y-65677500D02*
X156212258Y-65677500D01*
X155737742Y-66722500D02*
X156212258Y-66722500D01*
D15*
%TO.C,kibuzzard-678D073D*%
G36*
X121974386Y-70544854D02*
G01*
X122004288Y-70617177D01*
X121971604Y-70693672D01*
X121902759Y-70718707D01*
X121752550Y-70718707D01*
X121752550Y-70515647D01*
X121901368Y-70515647D01*
X121974386Y-70544854D01*
G37*
G36*
X119206305Y-70522427D02*
G01*
X119279671Y-70576147D01*
X119329740Y-70655598D01*
X119346430Y-70750695D01*
X119329914Y-70846488D01*
X119280366Y-70925243D01*
X119206827Y-70977921D01*
X119118336Y-70995480D01*
X119032626Y-70977399D01*
X118959087Y-70923157D01*
X118908496Y-70843880D01*
X118891632Y-70750695D01*
X118908322Y-70655598D01*
X118958391Y-70576147D01*
X119032105Y-70522427D01*
X119119727Y-70504520D01*
X119206305Y-70522427D01*
G37*
G36*
X125293683Y-69906377D02*
G01*
X125375973Y-69918583D01*
X125456669Y-69938797D01*
X125534996Y-69966823D01*
X125610199Y-70002391D01*
X125681553Y-70045159D01*
X125748372Y-70094715D01*
X125810011Y-70150582D01*
X125865878Y-70212222D01*
X125915434Y-70279040D01*
X125958203Y-70350395D01*
X125993771Y-70425597D01*
X126021797Y-70503924D01*
X126042010Y-70584621D01*
X126054217Y-70666910D01*
X126058299Y-70750000D01*
X126054217Y-70833090D01*
X126042010Y-70915379D01*
X126021797Y-70996076D01*
X125993771Y-71074403D01*
X125958203Y-71149605D01*
X125915434Y-71220960D01*
X125865878Y-71287778D01*
X125810011Y-71349418D01*
X125748372Y-71405285D01*
X125681553Y-71454841D01*
X125610199Y-71497609D01*
X125534996Y-71533177D01*
X125456669Y-71561203D01*
X125375973Y-71581417D01*
X125293683Y-71593623D01*
X125210593Y-71597705D01*
X125094692Y-71597705D01*
X124773412Y-71597705D01*
X123659365Y-71597705D01*
X122744205Y-71597705D01*
X121624594Y-71597705D01*
X121002898Y-71597705D01*
X120087738Y-71597705D01*
X119125290Y-71597705D01*
X118637112Y-71597705D01*
X118289407Y-71597705D01*
X118206317Y-71593623D01*
X118124028Y-71581417D01*
X118043331Y-71561203D01*
X117965004Y-71533177D01*
X117889801Y-71497609D01*
X117818447Y-71454841D01*
X117751628Y-71405285D01*
X117689989Y-71349418D01*
X117634122Y-71287778D01*
X117584566Y-71220960D01*
X117541797Y-71149605D01*
X117506229Y-71074403D01*
X117478203Y-70996076D01*
X117457990Y-70915379D01*
X117445783Y-70833090D01*
X117442008Y-70756259D01*
X118637112Y-70756259D01*
X118646065Y-70854746D01*
X118672925Y-70945758D01*
X118717692Y-71029294D01*
X118780366Y-71105355D01*
X118855644Y-71168637D01*
X118938224Y-71213839D01*
X119028106Y-71240960D01*
X119125290Y-71250000D01*
X119219822Y-71240829D01*
X119307313Y-71213317D01*
X119387764Y-71167463D01*
X119461173Y-71103268D01*
X119522326Y-71026208D01*
X119566006Y-70941759D01*
X119592214Y-70849922D01*
X119600950Y-70750695D01*
X119592084Y-70649731D01*
X119565485Y-70556850D01*
X119521152Y-70472053D01*
X119459087Y-70395341D01*
X119450093Y-70387691D01*
X119659365Y-70387691D01*
X119659365Y-70777121D01*
X119666319Y-70861266D01*
X119687181Y-70944019D01*
X119721083Y-71022949D01*
X119767153Y-71095619D01*
X119827133Y-71158380D01*
X119902759Y-71207580D01*
X119990728Y-71239395D01*
X120087738Y-71250000D01*
X120184921Y-71239569D01*
X120273412Y-71208275D01*
X120349733Y-71159771D01*
X120410408Y-71097705D01*
X120457174Y-71025556D01*
X120491771Y-70946801D01*
X120513155Y-70864047D01*
X120520283Y-70779903D01*
X120520283Y-70389082D01*
X120519255Y-70365438D01*
X120580088Y-70365438D01*
X120588433Y-70428025D01*
X120614859Y-70460709D01*
X120646152Y-70471836D01*
X120685790Y-70473922D01*
X120879115Y-70473922D01*
X120879115Y-71109527D01*
X120881201Y-71156120D01*
X120893718Y-71193672D01*
X120931270Y-71224965D01*
X121002898Y-71234701D01*
X121075220Y-71224965D01*
X121114163Y-71194367D01*
X121127376Y-71157510D01*
X121129462Y-71110918D01*
X121129462Y-70473922D01*
X121321395Y-70473922D01*
X121361034Y-70471836D01*
X121393023Y-70460709D01*
X121420144Y-70428025D01*
X121425644Y-70387691D01*
X121498030Y-70387691D01*
X121498030Y-71105355D01*
X121500116Y-71153338D01*
X121513329Y-71191586D01*
X121552272Y-71223574D01*
X121624594Y-71233310D01*
X121698308Y-71223574D01*
X121737251Y-71192281D01*
X121750464Y-71154729D01*
X121752550Y-71106745D01*
X121752550Y-70973227D01*
X121901368Y-70973227D01*
X121958217Y-70967663D01*
X122017501Y-70950974D01*
X122076611Y-70923853D01*
X122132939Y-70886996D01*
X122182835Y-70838143D01*
X122222647Y-70775035D01*
X122248725Y-70700800D01*
X122257418Y-70618567D01*
X122248551Y-70535987D01*
X122221952Y-70460709D01*
X122181792Y-70396558D01*
X122172862Y-70387691D01*
X122315832Y-70387691D01*
X122315832Y-70777121D01*
X122322786Y-70861266D01*
X122343649Y-70944019D01*
X122377550Y-71022949D01*
X122423621Y-71095619D01*
X122483600Y-71158380D01*
X122559226Y-71207580D01*
X122647195Y-71239395D01*
X122744205Y-71250000D01*
X122841389Y-71239569D01*
X122929880Y-71208275D01*
X123006201Y-71159771D01*
X123066875Y-71097705D01*
X123113642Y-71025556D01*
X123148238Y-70946801D01*
X123169622Y-70864047D01*
X123176750Y-70779903D01*
X123176750Y-70389082D01*
X123175722Y-70365438D01*
X123236555Y-70365438D01*
X123244900Y-70428025D01*
X123271326Y-70460709D01*
X123302619Y-70471836D01*
X123342258Y-70473922D01*
X123535582Y-70473922D01*
X123535582Y-71109527D01*
X123537668Y-71156120D01*
X123550185Y-71193672D01*
X123587738Y-71224965D01*
X123659365Y-71234701D01*
X123731688Y-71224965D01*
X123770631Y-71194367D01*
X123783843Y-71157510D01*
X123785930Y-71110918D01*
X123785930Y-70867524D01*
X124452133Y-70867524D01*
X124460478Y-70934284D01*
X124487599Y-70969054D01*
X124519587Y-70980876D01*
X124559226Y-70982962D01*
X124659365Y-70982962D01*
X124659365Y-71073366D01*
X124661451Y-71115786D01*
X124673273Y-71150556D01*
X124708044Y-71179764D01*
X124773412Y-71188804D01*
X124840172Y-71179764D01*
X124874942Y-71151252D01*
X124886764Y-71117177D01*
X124888850Y-71074757D01*
X124888850Y-70982962D01*
X124987599Y-70982962D01*
X125027237Y-70980876D01*
X125059226Y-70969054D01*
X125086347Y-70934284D01*
X125094692Y-70868915D01*
X125085651Y-70801460D01*
X125057140Y-70765994D01*
X125023064Y-70754172D01*
X124980644Y-70752086D01*
X124888850Y-70752086D01*
X124888850Y-70661683D01*
X124886764Y-70619263D01*
X124874942Y-70585188D01*
X124840172Y-70556676D01*
X124774803Y-70547636D01*
X124708044Y-70555981D01*
X124673273Y-70583797D01*
X124661451Y-70617872D01*
X124659365Y-70660292D01*
X124659365Y-70752086D01*
X124568962Y-70752086D01*
X124525846Y-70754172D01*
X124490380Y-70765994D01*
X124461173Y-70800765D01*
X124452133Y-70867524D01*
X123785930Y-70867524D01*
X123785930Y-70473922D01*
X123977863Y-70473922D01*
X124017501Y-70471836D01*
X124049490Y-70460709D01*
X124076611Y-70428025D01*
X124084956Y-70366829D01*
X124076611Y-70305633D01*
X124050185Y-70272949D01*
X124018892Y-70261822D01*
X123979254Y-70259736D01*
X123343649Y-70259736D01*
X123304010Y-70261822D01*
X123272021Y-70272949D01*
X123244900Y-70304937D01*
X123236555Y-70365438D01*
X123175722Y-70365438D01*
X123174664Y-70341099D01*
X123161451Y-70302156D01*
X123122508Y-70269471D01*
X123050185Y-70259736D01*
X122977863Y-70269471D01*
X122938920Y-70299374D01*
X122925012Y-70335535D01*
X122922230Y-70380737D01*
X122922230Y-70775730D01*
X122910408Y-70864743D01*
X122874942Y-70934284D01*
X122819657Y-70979138D01*
X122748377Y-70994089D01*
X122688920Y-70984875D01*
X122641284Y-70957232D01*
X122585651Y-70875174D01*
X122571743Y-70777121D01*
X122571743Y-70389082D01*
X122568962Y-70339708D01*
X122555053Y-70300765D01*
X122516806Y-70269471D01*
X122443788Y-70259736D01*
X122370074Y-70269471D01*
X122331131Y-70301460D01*
X122317918Y-70339708D01*
X122315832Y-70387691D01*
X122172862Y-70387691D01*
X122132244Y-70347357D01*
X122076611Y-70310501D01*
X122018197Y-70283380D01*
X121959434Y-70266690D01*
X121902759Y-70261127D01*
X121625985Y-70261127D01*
X121552272Y-70270862D01*
X121513329Y-70302851D01*
X121500116Y-70341099D01*
X121498030Y-70387691D01*
X121425644Y-70387691D01*
X121428489Y-70366829D01*
X121420144Y-70305633D01*
X121393718Y-70272949D01*
X121362425Y-70261822D01*
X121322786Y-70259736D01*
X120687181Y-70259736D01*
X120647543Y-70261822D01*
X120615554Y-70272949D01*
X120588433Y-70304937D01*
X120580088Y-70365438D01*
X120519255Y-70365438D01*
X120518197Y-70341099D01*
X120504984Y-70302156D01*
X120466041Y-70269471D01*
X120393718Y-70259736D01*
X120321395Y-70269471D01*
X120282453Y-70299374D01*
X120268544Y-70335535D01*
X120265763Y-70380737D01*
X120265763Y-70775730D01*
X120253941Y-70864743D01*
X120218475Y-70934284D01*
X120163190Y-70979138D01*
X120091910Y-70994089D01*
X120032453Y-70984875D01*
X119984817Y-70957232D01*
X119929184Y-70875174D01*
X119915276Y-70777121D01*
X119915276Y-70389082D01*
X119912494Y-70339708D01*
X119898586Y-70300765D01*
X119860338Y-70269471D01*
X119787320Y-70259736D01*
X119713607Y-70269471D01*
X119674664Y-70301460D01*
X119661451Y-70339708D01*
X119659365Y-70387691D01*
X119450093Y-70387691D01*
X119384330Y-70331754D01*
X119301924Y-70286335D01*
X119211868Y-70259084D01*
X119114163Y-70250000D01*
X119018457Y-70259214D01*
X118930227Y-70286857D01*
X118849473Y-70332928D01*
X118776194Y-70397427D01*
X118715345Y-70475139D01*
X118671882Y-70560848D01*
X118645804Y-70654555D01*
X118637112Y-70756259D01*
X117442008Y-70756259D01*
X117441701Y-70750000D01*
X117445783Y-70666910D01*
X117457990Y-70584621D01*
X117478203Y-70503924D01*
X117506229Y-70425597D01*
X117541797Y-70350395D01*
X117584566Y-70279040D01*
X117634122Y-70212222D01*
X117689989Y-70150582D01*
X117751628Y-70094715D01*
X117818447Y-70045159D01*
X117889801Y-70002391D01*
X117965004Y-69966823D01*
X118043331Y-69938797D01*
X118124028Y-69918583D01*
X118206317Y-69906377D01*
X118289407Y-69902295D01*
X118637112Y-69902295D01*
X125094692Y-69902295D01*
X125210593Y-69902295D01*
X125293683Y-69906377D01*
G37*
D16*
%TO.C,R9*%
X170262742Y-67227500D02*
X170737258Y-67227500D01*
X170262742Y-68272500D02*
X170737258Y-68272500D01*
%TO.C,C4*%
X165902406Y-104944365D02*
X167104487Y-106146447D01*
X169052964Y-101793806D02*
X165902406Y-104944365D01*
X169805635Y-108847594D02*
X168603553Y-107645513D01*
X170558306Y-101793806D02*
X169052964Y-101793806D01*
X170558306Y-101793806D02*
X171007717Y-102243217D01*
X172956194Y-104191694D02*
X172506783Y-103742283D01*
X172956194Y-104191694D02*
X172956194Y-105697036D01*
X172956194Y-105697036D02*
X169805635Y-108847594D01*
X173560372Y-103572578D02*
X173118430Y-104014520D01*
X173560372Y-104014520D02*
X173118430Y-103572578D01*
%TO.C,U2*%
X156587500Y-61840000D02*
X155787500Y-61840000D01*
X156587500Y-61840000D02*
X157387500Y-61840000D01*
X156587500Y-64960000D02*
X155787500Y-64960000D01*
X156587500Y-64960000D02*
X157387500Y-64960000D01*
X155287500Y-61890000D02*
X155047500Y-61560000D01*
X155527500Y-61560000D01*
X155287500Y-61890000D01*
G36*
X155287500Y-61890000D02*
G01*
X155047500Y-61560000D01*
X155527500Y-61560000D01*
X155287500Y-61890000D01*
G37*
%TO.C,R10*%
X151227500Y-65312258D02*
X151227500Y-64837742D01*
X152272500Y-65312258D02*
X152272500Y-64837742D01*
%TO.C,C6*%
X159090000Y-63259420D02*
X159090000Y-63540580D01*
X160110000Y-63259420D02*
X160110000Y-63540580D01*
%TO.C,R2*%
X162712258Y-65677500D02*
X162237742Y-65677500D01*
X162712258Y-66722500D02*
X162237742Y-66722500D01*
%TO.C,D1*%
X182000000Y-81290000D02*
X182000000Y-85150000D01*
X184000000Y-81290000D02*
X182000000Y-81290000D01*
X184000000Y-81290000D02*
X184000000Y-85150000D01*
%TO.C,C8*%
X166665010Y-99045543D02*
X166295543Y-99415010D01*
X167704457Y-100084990D02*
X167334990Y-100454457D01*
%TO.C,R12*%
X149477500Y-64837742D02*
X149477500Y-65312258D01*
X150522500Y-64837742D02*
X150522500Y-65312258D01*
%TO.C,D3*%
X168160000Y-61955000D02*
X168160000Y-65045000D01*
X168160000Y-61955170D02*
G75*
G02*
X173710000Y-63500462I2560000J-1544830D01*
G01*
X173710000Y-63499538D02*
G75*
G02*
X168160000Y-65044830I-2990000J-462D01*
G01*
X173220000Y-63500000D02*
G75*
G02*
X168220000Y-63500000I-2500000J0D01*
G01*
X168220000Y-63500000D02*
G75*
G02*
X173220000Y-63500000I2500000J0D01*
G01*
%TO.C,R1*%
X164877500Y-63637258D02*
X164877500Y-63162742D01*
X165922500Y-63637258D02*
X165922500Y-63162742D01*
%TO.C,C1*%
X151740000Y-86059420D02*
X151740000Y-86340580D01*
X152760000Y-86059420D02*
X152760000Y-86340580D01*
D15*
%TO.C,kibuzzard-678D07AC*%
G36*
X175196750Y-64969850D02*
G01*
X175221646Y-65036240D01*
X175221646Y-65188384D01*
X175019710Y-65188384D01*
X175019710Y-65039006D01*
X175048755Y-64967775D01*
X175120678Y-64938038D01*
X175196750Y-64969850D01*
G37*
G36*
X175196750Y-68934580D02*
G01*
X175221646Y-69003045D01*
X175221646Y-69152423D01*
X175019710Y-69152423D01*
X175019710Y-69004428D01*
X175048755Y-68931814D01*
X175120678Y-68902077D01*
X175196750Y-68934580D01*
G37*
G36*
X175339039Y-60723999D02*
G01*
X175413209Y-60774829D01*
X175463520Y-60849172D01*
X175480290Y-60936655D01*
X175480290Y-61048688D01*
X175019710Y-61048688D01*
X175019710Y-60938038D01*
X175036653Y-60849518D01*
X175087483Y-60774829D01*
X175162172Y-60723999D01*
X175250692Y-60707056D01*
X175339039Y-60723999D01*
G37*
G36*
X175348721Y-61629428D02*
G01*
X175427040Y-61678702D01*
X175479426Y-61751835D01*
X175496888Y-61839836D01*
X175478907Y-61925071D01*
X175424965Y-61998204D01*
X175346127Y-62048515D01*
X175253458Y-62065286D01*
X175158887Y-62048688D01*
X175079876Y-61998896D01*
X175026452Y-61925590D01*
X175008645Y-61838453D01*
X175026452Y-61752354D01*
X175079876Y-61679394D01*
X175158887Y-61629601D01*
X175253458Y-61613004D01*
X175348721Y-61629428D01*
G37*
G36*
X175348721Y-62626662D02*
G01*
X175427040Y-62675936D01*
X175479426Y-62749069D01*
X175496888Y-62837070D01*
X175478907Y-62922305D01*
X175424965Y-62995438D01*
X175346127Y-63045749D01*
X175253458Y-63062520D01*
X175158887Y-63045922D01*
X175079876Y-62996129D01*
X175026452Y-62922824D01*
X175008645Y-62835687D01*
X175026452Y-62749587D01*
X175079876Y-62676627D01*
X175158887Y-62626835D01*
X175253458Y-62610237D01*
X175348721Y-62626662D01*
G37*
G36*
X175348721Y-67922651D02*
G01*
X175427040Y-67971925D01*
X175479426Y-68045058D01*
X175496888Y-68133059D01*
X175478907Y-68218294D01*
X175424965Y-68291427D01*
X175346127Y-68341738D01*
X175253458Y-68358508D01*
X175158887Y-68341911D01*
X175079876Y-68292118D01*
X175026452Y-68218813D01*
X175008645Y-68131676D01*
X175026452Y-68045576D01*
X175079876Y-67972616D01*
X175158887Y-67922824D01*
X175253458Y-67906226D01*
X175348721Y-67922651D01*
G37*
G36*
X176095781Y-61832921D02*
G01*
X176095781Y-62830154D01*
X176095781Y-63794193D01*
X176095781Y-64834304D01*
X176095781Y-66145507D01*
X176095781Y-67232644D01*
X176095781Y-68126143D01*
X176095781Y-69279670D01*
X176095781Y-69405535D01*
X176095781Y-69751316D01*
X176091709Y-69834217D01*
X176079530Y-69916320D01*
X176059362Y-69996834D01*
X176031400Y-70074983D01*
X175995913Y-70150015D01*
X175953242Y-70221207D01*
X175903798Y-70287874D01*
X175848058Y-70349374D01*
X175786558Y-70405114D01*
X175719891Y-70454558D01*
X175648699Y-70497229D01*
X175573667Y-70532716D01*
X175495517Y-70560679D01*
X175415004Y-70580846D01*
X175332901Y-70593025D01*
X175250000Y-70597098D01*
X175167099Y-70593025D01*
X175084996Y-70580846D01*
X175004483Y-70560679D01*
X174926333Y-70532716D01*
X174851301Y-70497229D01*
X174780109Y-70454558D01*
X174713442Y-70405114D01*
X174651942Y-70349374D01*
X174596202Y-70287874D01*
X174546758Y-70221207D01*
X174504087Y-70150015D01*
X174468600Y-70074983D01*
X174440638Y-69996834D01*
X174420470Y-69916320D01*
X174408291Y-69834217D01*
X174404219Y-69751316D01*
X174404219Y-69405535D01*
X174404219Y-69003045D01*
X174766598Y-69003045D01*
X174766598Y-69278287D01*
X174776279Y-69351593D01*
X174808091Y-69390320D01*
X174846127Y-69403460D01*
X174892462Y-69405535D01*
X175606155Y-69405535D01*
X175653873Y-69403460D01*
X175691909Y-69390320D01*
X175723721Y-69351593D01*
X175733402Y-69279670D01*
X175723721Y-69206365D01*
X175692600Y-69167637D01*
X175655256Y-69154497D01*
X175607538Y-69152423D01*
X175474758Y-69152423D01*
X175474758Y-69004428D01*
X175469225Y-68947893D01*
X175452628Y-68888937D01*
X175425657Y-68830154D01*
X175389004Y-68774138D01*
X175340422Y-68724518D01*
X175277663Y-68684926D01*
X175203838Y-68658993D01*
X175122061Y-68650348D01*
X175039938Y-68659165D01*
X174965076Y-68685618D01*
X174901279Y-68725555D01*
X174852351Y-68774829D01*
X174815698Y-68830154D01*
X174788728Y-68888246D01*
X174772130Y-68946683D01*
X174766598Y-69003045D01*
X174404219Y-69003045D01*
X174404219Y-68137208D01*
X174755533Y-68137208D01*
X174764696Y-68232385D01*
X174792185Y-68320127D01*
X174838001Y-68400434D01*
X174902144Y-68473308D01*
X174979426Y-68533820D01*
X175064661Y-68577042D01*
X175157849Y-68602976D01*
X175258990Y-68611621D01*
X175356933Y-68602717D01*
X175447441Y-68576005D01*
X175530515Y-68531486D01*
X175606155Y-68469159D01*
X175669087Y-68394297D01*
X175714039Y-68312174D01*
X175741010Y-68222789D01*
X175750000Y-68126143D01*
X175740880Y-68032134D01*
X175713520Y-67945127D01*
X175667920Y-67865122D01*
X175604080Y-67792118D01*
X175527446Y-67731304D01*
X175443465Y-67687865D01*
X175352135Y-67661802D01*
X175253458Y-67653114D01*
X175153052Y-67661932D01*
X175060685Y-67688384D01*
X174976357Y-67732471D01*
X174900069Y-67794193D01*
X174836834Y-67868536D01*
X174791667Y-67950486D01*
X174764566Y-68040044D01*
X174755533Y-68137208D01*
X174404219Y-68137208D01*
X174404219Y-66541773D01*
X174766598Y-66541773D01*
X174852351Y-66597789D01*
X175275588Y-66741634D01*
X174860650Y-66855051D01*
X174849585Y-66859200D01*
X174832296Y-66866116D01*
X174815007Y-66875106D01*
X174797026Y-66890320D01*
X174781812Y-66911759D01*
X174770055Y-66942188D01*
X174766598Y-66982298D01*
X174789765Y-67061828D01*
X174859267Y-67104013D01*
X175272822Y-67217430D01*
X174852351Y-67361275D01*
X174767289Y-67417291D01*
X174773513Y-67520334D01*
X174831604Y-67606780D01*
X174933956Y-67600555D01*
X175647649Y-67351593D01*
X175677386Y-67339145D01*
X175713347Y-67301800D01*
X175733402Y-67232644D01*
X175709889Y-67154152D01*
X175639350Y-67109546D01*
X175214730Y-66979532D01*
X175640733Y-66849518D01*
X175660788Y-66841911D01*
X175689834Y-66823930D01*
X175720954Y-66785203D01*
X175733402Y-66726420D01*
X175711964Y-66649311D01*
X175647649Y-66606088D01*
X174933956Y-66358508D01*
X174832988Y-66350901D01*
X174772130Y-66437347D01*
X174766598Y-66541773D01*
X174404219Y-66541773D01*
X174404219Y-65635134D01*
X174766598Y-65635134D01*
X174766598Y-66141358D01*
X174793568Y-66243017D01*
X174892462Y-66271372D01*
X175607538Y-66271372D01*
X175655256Y-66269297D01*
X175693292Y-66256157D01*
X175725104Y-66217430D01*
X175734786Y-66145507D01*
X175734786Y-65636517D01*
X175732711Y-65588799D01*
X175719571Y-65550763D01*
X175680844Y-65518951D01*
X175608921Y-65509269D01*
X175535615Y-65518951D01*
X175496888Y-65550071D01*
X175483748Y-65587416D01*
X175481674Y-65635134D01*
X175481674Y-66018260D01*
X175358575Y-66018260D01*
X175358575Y-65765147D01*
X175356501Y-65719504D01*
X175345436Y-65684926D01*
X175313624Y-65657955D01*
X175252075Y-65650348D01*
X175189142Y-65657955D01*
X175155947Y-65684235D01*
X175144882Y-65717430D01*
X175142808Y-65762381D01*
X175142808Y-66018260D01*
X175019710Y-66018260D01*
X175019710Y-65636517D01*
X175017635Y-65588799D01*
X175004495Y-65550763D01*
X174965768Y-65518951D01*
X174893845Y-65509269D01*
X174820539Y-65518951D01*
X174781812Y-65550071D01*
X174768672Y-65587416D01*
X174766598Y-65635134D01*
X174404219Y-65635134D01*
X174404219Y-65036240D01*
X174766598Y-65036240D01*
X174766598Y-65314248D01*
X174776279Y-65387554D01*
X174808091Y-65426282D01*
X174846127Y-65439421D01*
X174892462Y-65441496D01*
X175606155Y-65441496D01*
X175653873Y-65439421D01*
X175691909Y-65426282D01*
X175723721Y-65387554D01*
X175733402Y-65315632D01*
X175723721Y-65242326D01*
X175692600Y-65203598D01*
X175655256Y-65190459D01*
X175607538Y-65188384D01*
X175473375Y-65188384D01*
X175473375Y-65059753D01*
X175673928Y-64911759D01*
X175738243Y-64834304D01*
X175700207Y-64736102D01*
X175618603Y-64669712D01*
X175523167Y-64707056D01*
X175390387Y-64806641D01*
X175315084Y-64739022D01*
X175225642Y-64698450D01*
X175122061Y-64684926D01*
X175039938Y-64693571D01*
X174965076Y-64719504D01*
X174901279Y-64759096D01*
X174852351Y-64808716D01*
X174815698Y-64864387D01*
X174788728Y-64922132D01*
X174772130Y-64980051D01*
X174766598Y-65036240D01*
X174404219Y-65036240D01*
X174404219Y-63784511D01*
X174750000Y-63784511D01*
X174758947Y-63883189D01*
X174785788Y-63974518D01*
X174830524Y-64058500D01*
X174893154Y-64135134D01*
X174968318Y-64198974D01*
X175050657Y-64244573D01*
X175140171Y-64271933D01*
X175236860Y-64281053D01*
X175338261Y-64272063D01*
X175432227Y-64245092D01*
X175518759Y-64200141D01*
X175597856Y-64137208D01*
X175663814Y-64061828D01*
X175710927Y-63979532D01*
X175739194Y-63890320D01*
X175748617Y-63794193D01*
X175742623Y-63688153D01*
X175724643Y-63596867D01*
X175694675Y-63520334D01*
X175662690Y-63469504D01*
X175624827Y-63430431D01*
X175545297Y-63397236D01*
X175261757Y-63397236D01*
X175227178Y-63397928D01*
X175196750Y-63404152D01*
X175169087Y-63420749D01*
X175151107Y-63453253D01*
X175141425Y-63506503D01*
X175141425Y-63748550D01*
X175143499Y-63785894D01*
X175154564Y-63816323D01*
X175187068Y-63841911D01*
X175247925Y-63849518D01*
X175310166Y-63842603D01*
X175342669Y-63819089D01*
X175353734Y-63790044D01*
X175355809Y-63752699D01*
X175355809Y-63650348D01*
X175474758Y-63650348D01*
X175488243Y-63709131D01*
X175492739Y-63788661D01*
X175473721Y-63878218D01*
X175416667Y-63956019D01*
X175334371Y-64009961D01*
X175239627Y-64027941D01*
X175147822Y-64010652D01*
X175071577Y-63958785D01*
X175020228Y-63882367D01*
X175003112Y-63791427D01*
X175012794Y-63706019D01*
X175041840Y-63635134D01*
X175073651Y-63560445D01*
X175055325Y-63509269D01*
X175000346Y-63458094D01*
X174922891Y-63426282D01*
X174882780Y-63439421D01*
X174853734Y-63465009D01*
X174826072Y-63503737D01*
X174794087Y-63563038D01*
X174770055Y-63635825D01*
X174755014Y-63712762D01*
X174750000Y-63784511D01*
X174404219Y-63784511D01*
X174404219Y-62841219D01*
X174755533Y-62841219D01*
X174764696Y-62936396D01*
X174792185Y-63024138D01*
X174838001Y-63104446D01*
X174902144Y-63177319D01*
X174979426Y-63237831D01*
X175064661Y-63281053D01*
X175157849Y-63306987D01*
X175258990Y-63315632D01*
X175356933Y-63306728D01*
X175447441Y-63280016D01*
X175530515Y-63235497D01*
X175606155Y-63173170D01*
X175669087Y-63098308D01*
X175714039Y-63016185D01*
X175741010Y-62926800D01*
X175750000Y-62830154D01*
X175740880Y-62736145D01*
X175713520Y-62649138D01*
X175667920Y-62569133D01*
X175604080Y-62496129D01*
X175527446Y-62435315D01*
X175443465Y-62391876D01*
X175352135Y-62365813D01*
X175253458Y-62357125D01*
X175153052Y-62365943D01*
X175060685Y-62392395D01*
X174976357Y-62436482D01*
X174900069Y-62498204D01*
X174836834Y-62572547D01*
X174791667Y-62654497D01*
X174764566Y-62744055D01*
X174755533Y-62841219D01*
X174404219Y-62841219D01*
X174404219Y-61843986D01*
X174755533Y-61843986D01*
X174764696Y-61939162D01*
X174792185Y-62026904D01*
X174838001Y-62107212D01*
X174902144Y-62180085D01*
X174979426Y-62240597D01*
X175064661Y-62283820D01*
X175157849Y-62309753D01*
X175258990Y-62318398D01*
X175356933Y-62309494D01*
X175447441Y-62282782D01*
X175530515Y-62238263D01*
X175606155Y-62175936D01*
X175669087Y-62101074D01*
X175714039Y-62018951D01*
X175741010Y-61929567D01*
X175750000Y-61832921D01*
X175740880Y-61738911D01*
X175713520Y-61651904D01*
X175667920Y-61571899D01*
X175604080Y-61498896D01*
X175527446Y-61438081D01*
X175443465Y-61394643D01*
X175352135Y-61368579D01*
X175253458Y-61359892D01*
X175153052Y-61368709D01*
X175060685Y-61395161D01*
X174976357Y-61439248D01*
X174900069Y-61500970D01*
X174836834Y-61575313D01*
X174791667Y-61657264D01*
X174764566Y-61746821D01*
X174755533Y-61843986D01*
X174404219Y-61843986D01*
X174404219Y-60936655D01*
X174766598Y-60936655D01*
X174766598Y-61174553D01*
X174775588Y-61247858D01*
X174806708Y-61286586D01*
X174844744Y-61299726D01*
X174891079Y-61301800D01*
X175606155Y-61301800D01*
X175655256Y-61298342D01*
X175693983Y-61283820D01*
X175723721Y-61245784D01*
X175733402Y-61175936D01*
X175733402Y-60940804D01*
X175724455Y-60843553D01*
X175697614Y-60753737D01*
X175652879Y-60671354D01*
X175590249Y-60596406D01*
X175514998Y-60534079D01*
X175432400Y-60489560D01*
X175342453Y-60462848D01*
X175245159Y-60453944D01*
X175150415Y-60462848D01*
X175062586Y-60489560D01*
X174981674Y-60534079D01*
X174907676Y-60596406D01*
X174845954Y-60671095D01*
X174801867Y-60752699D01*
X174775415Y-60841219D01*
X174766598Y-60936655D01*
X174404219Y-60936655D01*
X174404219Y-60453944D01*
X174404219Y-60338684D01*
X174408291Y-60255783D01*
X174420470Y-60173680D01*
X174440638Y-60093166D01*
X174468600Y-60015017D01*
X174504087Y-59939985D01*
X174546758Y-59868793D01*
X174596202Y-59802126D01*
X174651942Y-59740626D01*
X174713442Y-59684886D01*
X174780109Y-59635442D01*
X174851301Y-59592771D01*
X174926333Y-59557284D01*
X175004483Y-59529321D01*
X175084996Y-59509154D01*
X175167099Y-59496975D01*
X175250000Y-59492902D01*
X175332901Y-59496975D01*
X175415004Y-59509154D01*
X175495517Y-59529321D01*
X175573667Y-59557284D01*
X175648699Y-59592771D01*
X175719891Y-59635442D01*
X175786558Y-59684886D01*
X175848058Y-59740626D01*
X175903798Y-59802126D01*
X175953242Y-59868793D01*
X175995913Y-59939985D01*
X176031400Y-60015017D01*
X176059362Y-60093166D01*
X176079530Y-60173680D01*
X176091709Y-60255783D01*
X176095781Y-60338684D01*
X176095781Y-60453944D01*
X176095781Y-61175936D01*
X176095781Y-61832921D01*
G37*
D16*
%TO.C,BT1*%
X181670000Y-76505000D02*
X181670000Y-73905000D01*
X184330000Y-73905000D02*
X181670000Y-73905000D01*
X184330000Y-76505000D02*
X181670000Y-76505000D01*
X184330000Y-76505000D02*
X184330000Y-73905000D01*
X184330000Y-77775000D02*
X184330000Y-79105000D01*
X184330000Y-79105000D02*
X183000000Y-79105000D01*
D15*
%TO.C,kibuzzard-678D0795*%
G36*
X134566347Y-65059592D02*
G01*
X134433653Y-64995296D01*
X134566347Y-64931001D01*
X134566347Y-65059592D01*
G37*
G36*
X134445964Y-61418005D02*
G01*
X134470588Y-61483668D01*
X134470588Y-61634147D01*
X134270862Y-61634147D01*
X134270862Y-61486404D01*
X134299590Y-61415953D01*
X134370725Y-61386541D01*
X134445964Y-61418005D01*
G37*
G36*
X134596272Y-68216740D02*
G01*
X134673735Y-68265474D01*
X134725547Y-68337807D01*
X134742818Y-68424845D01*
X134725034Y-68509147D01*
X134671683Y-68581480D01*
X134593707Y-68631240D01*
X134502052Y-68647827D01*
X134408516Y-68631411D01*
X134330369Y-68582164D01*
X134277531Y-68509660D01*
X134259918Y-68423477D01*
X134277531Y-68338320D01*
X134330369Y-68266158D01*
X134408516Y-68216911D01*
X134502052Y-68200495D01*
X134596272Y-68216740D01*
G37*
G36*
X134694254Y-65766158D02*
G01*
X134717510Y-65786678D01*
X134725034Y-65807882D01*
X134726402Y-65827034D01*
X134726402Y-66022656D01*
X134269494Y-66022656D01*
X134269494Y-65857129D01*
X134280438Y-65800358D01*
X134322845Y-65785994D01*
X134365253Y-65795570D01*
X134374829Y-65828402D01*
X134374829Y-65844818D01*
X134397401Y-65928265D01*
X134476060Y-65952889D01*
X134557456Y-65929633D01*
X134581395Y-65851657D01*
X134581395Y-65833874D01*
X134594391Y-65776418D01*
X134651163Y-65758634D01*
X134694254Y-65766158D01*
G37*
G36*
X135341997Y-61283942D02*
G01*
X135341997Y-62580796D01*
X135341997Y-63196391D01*
X135341997Y-64071904D01*
X135341997Y-64695707D01*
X135341997Y-66148511D01*
X135341997Y-67534284D01*
X135341997Y-68418005D01*
X135341997Y-69502820D01*
X135341997Y-69627307D01*
X135341997Y-69969305D01*
X135337943Y-70051835D01*
X135325819Y-70133570D01*
X135305741Y-70213723D01*
X135277904Y-70291523D01*
X135242575Y-70366219D01*
X135200095Y-70437093D01*
X135150873Y-70503462D01*
X135095382Y-70564687D01*
X135034157Y-70620177D01*
X134967789Y-70669400D01*
X134896915Y-70711880D01*
X134822218Y-70747209D01*
X134744419Y-70775046D01*
X134664266Y-70795123D01*
X134582530Y-70807247D01*
X134500000Y-70811302D01*
X134417470Y-70807247D01*
X134335734Y-70795123D01*
X134255581Y-70775046D01*
X134177782Y-70747209D01*
X134103085Y-70711880D01*
X134032211Y-70669400D01*
X133965843Y-70620177D01*
X133904618Y-70564687D01*
X133849127Y-70503462D01*
X133799905Y-70437093D01*
X133757425Y-70366219D01*
X133722096Y-70291523D01*
X133694259Y-70213723D01*
X133674181Y-70133570D01*
X133662057Y-70051835D01*
X133658003Y-69969305D01*
X133658003Y-69627307D01*
X133658003Y-69501452D01*
X134020520Y-69501452D01*
X134030096Y-69573956D01*
X134061560Y-69612259D01*
X134099179Y-69625255D01*
X134145007Y-69627307D01*
X134852257Y-69627307D01*
X134899453Y-69625255D01*
X134937073Y-69612259D01*
X134968536Y-69573956D01*
X134978112Y-69502820D01*
X134978112Y-69044544D01*
X134976060Y-69005556D01*
X134964432Y-68972725D01*
X134931601Y-68946049D01*
X134871409Y-68937841D01*
X134809850Y-68946049D01*
X134777702Y-68972725D01*
X134766758Y-69004188D01*
X134764706Y-69043176D01*
X134764706Y-69376965D01*
X134146375Y-69376965D01*
X134099179Y-69379017D01*
X134061560Y-69392013D01*
X134030096Y-69430317D01*
X134020520Y-69501452D01*
X133658003Y-69501452D01*
X133658003Y-68428949D01*
X134009576Y-68428949D01*
X134018639Y-68523084D01*
X134045828Y-68609865D01*
X134091142Y-68689294D01*
X134154583Y-68761370D01*
X134231019Y-68821220D01*
X134315321Y-68863969D01*
X134407490Y-68889619D01*
X134507524Y-68898169D01*
X134604395Y-68889363D01*
X134693912Y-68862943D01*
X134776077Y-68818911D01*
X134850889Y-68757266D01*
X134913133Y-68683224D01*
X134957592Y-68601999D01*
X134984268Y-68513593D01*
X134993160Y-68418005D01*
X134984140Y-68325024D01*
X134957079Y-68238969D01*
X134911978Y-68159840D01*
X134848837Y-68087636D01*
X134773042Y-68027487D01*
X134689979Y-67984523D01*
X134599649Y-67958745D01*
X134502052Y-67950153D01*
X134402745Y-67958874D01*
X134311389Y-67985036D01*
X134227984Y-68028641D01*
X134152531Y-68089688D01*
X134089988Y-68163217D01*
X134045315Y-68244270D01*
X134018511Y-68332848D01*
X134009576Y-68428949D01*
X133658003Y-68428949D01*
X133658003Y-66850973D01*
X134020520Y-66850973D01*
X134105335Y-66906377D01*
X134523940Y-67048648D01*
X134113543Y-67160823D01*
X134102599Y-67164927D01*
X134085499Y-67171767D01*
X134068399Y-67180659D01*
X134050616Y-67195707D01*
X134035568Y-67216911D01*
X134023940Y-67247006D01*
X134020520Y-67286678D01*
X134043434Y-67365337D01*
X134112175Y-67407061D01*
X134521204Y-67519236D01*
X134105335Y-67661507D01*
X134021204Y-67716911D01*
X134027360Y-67818826D01*
X134084815Y-67904325D01*
X134186047Y-67898169D01*
X134891929Y-67651931D01*
X134921341Y-67639619D01*
X134956908Y-67602683D01*
X134976744Y-67534284D01*
X134953488Y-67456651D01*
X134883721Y-67412533D01*
X134463748Y-67283942D01*
X134885089Y-67155351D01*
X134904925Y-67147827D01*
X134933653Y-67130043D01*
X134964432Y-67091740D01*
X134976744Y-67033600D01*
X134955540Y-66957335D01*
X134891929Y-66914585D01*
X134186047Y-66669715D01*
X134086183Y-66662191D01*
X134025992Y-66747690D01*
X134020520Y-66850973D01*
X133658003Y-66850973D01*
X133658003Y-65827034D01*
X134019152Y-65827034D01*
X134019152Y-66147143D01*
X134028728Y-66219647D01*
X134060192Y-66257950D01*
X134097811Y-66270946D01*
X134143639Y-66272998D01*
X134849521Y-66272998D01*
X134897401Y-66270946D01*
X134935705Y-66257950D01*
X134967168Y-66219647D01*
X134976744Y-66148511D01*
X134976744Y-65813354D01*
X134966712Y-65734238D01*
X134936617Y-65662875D01*
X134886457Y-65599264D01*
X134821857Y-65549332D01*
X134748442Y-65519008D01*
X134666211Y-65508292D01*
X134561218Y-65526418D01*
X134465116Y-65580796D01*
X134391929Y-65546938D01*
X134311902Y-65535652D01*
X134236130Y-65545076D01*
X134167503Y-65573348D01*
X134106019Y-65620467D01*
X134057760Y-65681115D01*
X134028804Y-65749970D01*
X134019152Y-65827034D01*
X133658003Y-65827034D01*
X133658003Y-64993928D01*
X134020520Y-64993928D01*
X134040356Y-65060960D01*
X134093023Y-65108839D01*
X134804378Y-65452205D01*
X134900821Y-65469989D01*
X134967168Y-65393381D01*
X134987004Y-65293518D01*
X134911081Y-65225118D01*
X134779754Y-65162191D01*
X134779754Y-64825666D01*
X134909713Y-64762738D01*
X134988372Y-64695707D01*
X134968536Y-64594476D01*
X134901505Y-64518552D01*
X134804378Y-64537020D01*
X134094391Y-64880385D01*
X134038988Y-64927239D01*
X134020520Y-64993928D01*
X133658003Y-64993928D01*
X133658003Y-63757266D01*
X134019152Y-63757266D01*
X134019152Y-64382437D01*
X134021204Y-64421425D01*
X134032148Y-64452889D01*
X134063611Y-64479564D01*
X134123119Y-64487772D01*
X134184679Y-64479564D01*
X134216826Y-64453573D01*
X134227770Y-64422793D01*
X134229822Y-64383805D01*
X134229822Y-64193655D01*
X134854993Y-64193655D01*
X134900821Y-64191603D01*
X134937756Y-64179291D01*
X134968536Y-64142355D01*
X134978112Y-64071904D01*
X134968536Y-64000768D01*
X134938440Y-63962465D01*
X134902189Y-63949469D01*
X134856361Y-63947417D01*
X134229822Y-63947417D01*
X134229822Y-63758634D01*
X134227770Y-63719647D01*
X134216826Y-63688183D01*
X134184679Y-63661507D01*
X134124487Y-63653299D01*
X134064295Y-63661507D01*
X134032148Y-63687499D01*
X134021204Y-63718279D01*
X134019152Y-63757266D01*
X133658003Y-63757266D01*
X133658003Y-62881753D01*
X134019152Y-62881753D01*
X134019152Y-63506924D01*
X134021204Y-63545912D01*
X134032148Y-63577376D01*
X134063611Y-63604051D01*
X134123119Y-63612259D01*
X134184679Y-63604051D01*
X134216826Y-63578060D01*
X134227770Y-63547280D01*
X134229822Y-63508292D01*
X134229822Y-63318142D01*
X134854993Y-63318142D01*
X134900821Y-63316090D01*
X134937756Y-63303778D01*
X134968536Y-63266842D01*
X134978112Y-63196391D01*
X134968536Y-63125255D01*
X134938440Y-63086952D01*
X134902189Y-63073956D01*
X134856361Y-63071904D01*
X134229822Y-63071904D01*
X134229822Y-62883121D01*
X134227770Y-62844134D01*
X134216826Y-62812670D01*
X134184679Y-62785994D01*
X134124487Y-62777786D01*
X134064295Y-62785994D01*
X134032148Y-62811986D01*
X134021204Y-62842766D01*
X134019152Y-62881753D01*
X133658003Y-62881753D01*
X133658003Y-62076008D01*
X134020520Y-62076008D01*
X134020520Y-62576692D01*
X134047196Y-62677239D01*
X134145007Y-62705283D01*
X134852257Y-62705283D01*
X134899453Y-62703231D01*
X134937073Y-62690235D01*
X134968536Y-62651931D01*
X134978112Y-62580796D01*
X134978112Y-62077376D01*
X134976060Y-62030180D01*
X134963064Y-61992560D01*
X134924761Y-61961097D01*
X134853625Y-61951521D01*
X134781122Y-61961097D01*
X134742818Y-61991876D01*
X134729822Y-62028812D01*
X134727770Y-62076008D01*
X134727770Y-62454941D01*
X134606019Y-62454941D01*
X134606019Y-62204599D01*
X134603967Y-62159455D01*
X134593023Y-62125255D01*
X134561560Y-62098580D01*
X134500684Y-62091056D01*
X134438440Y-62098580D01*
X134405609Y-62124571D01*
X134394665Y-62157403D01*
X134392613Y-62201863D01*
X134392613Y-62454941D01*
X134270862Y-62454941D01*
X134270862Y-62077376D01*
X134268810Y-62030180D01*
X134255814Y-61992560D01*
X134217510Y-61961097D01*
X134146375Y-61951521D01*
X134073871Y-61961097D01*
X134035568Y-61991876D01*
X134022572Y-62028812D01*
X134020520Y-62076008D01*
X133658003Y-62076008D01*
X133658003Y-61483668D01*
X134020520Y-61483668D01*
X134020520Y-61758634D01*
X134030096Y-61831138D01*
X134061560Y-61869441D01*
X134099179Y-61882437D01*
X134145007Y-61884489D01*
X134850889Y-61884489D01*
X134898085Y-61882437D01*
X134935705Y-61869441D01*
X134967168Y-61831138D01*
X134976744Y-61760002D01*
X134967168Y-61687499D01*
X134936389Y-61649195D01*
X134899453Y-61636199D01*
X134852257Y-61634147D01*
X134719562Y-61634147D01*
X134719562Y-61506924D01*
X134917921Y-61360549D01*
X134981532Y-61283942D01*
X134943912Y-61186815D01*
X134863201Y-61121151D01*
X134768810Y-61158087D01*
X134637483Y-61256582D01*
X134563003Y-61189703D01*
X134474540Y-61149575D01*
X134372093Y-61136199D01*
X134290869Y-61144749D01*
X134216826Y-61170399D01*
X134153728Y-61209558D01*
X134105335Y-61258634D01*
X134069083Y-61313696D01*
X134042408Y-61370809D01*
X134025992Y-61428094D01*
X134020520Y-61483668D01*
X133658003Y-61483668D01*
X133658003Y-60407745D01*
X134008208Y-60407745D01*
X134075239Y-60483668D01*
X134367989Y-60673819D01*
X134075239Y-60855761D01*
X134008208Y-60929633D01*
X134012312Y-60973409D01*
X134041040Y-61030864D01*
X134117647Y-61097896D01*
X134209302Y-61067800D01*
X134616963Y-60795570D01*
X134853625Y-60795570D01*
X134901505Y-60793518D01*
X134939808Y-60780522D01*
X134971272Y-60742218D01*
X134980848Y-60669715D01*
X134971272Y-60597212D01*
X134940492Y-60558908D01*
X134903557Y-60545912D01*
X134856361Y-60543860D01*
X134616963Y-60543860D01*
X134209302Y-60271630D01*
X134119699Y-60241534D01*
X134041040Y-60307198D01*
X134008208Y-60407745D01*
X133658003Y-60407745D01*
X133658003Y-60234694D01*
X133658003Y-60120695D01*
X133662057Y-60038165D01*
X133674181Y-59956430D01*
X133694259Y-59876276D01*
X133722096Y-59798477D01*
X133757425Y-59723781D01*
X133799905Y-59652907D01*
X133849127Y-59586538D01*
X133904618Y-59525313D01*
X133965843Y-59469823D01*
X134032211Y-59420600D01*
X134103085Y-59378120D01*
X134177782Y-59342791D01*
X134255581Y-59314954D01*
X134335734Y-59294877D01*
X134417470Y-59282753D01*
X134500000Y-59278698D01*
X134582530Y-59282753D01*
X134664266Y-59294877D01*
X134744419Y-59314954D01*
X134822218Y-59342791D01*
X134896915Y-59378120D01*
X134967789Y-59420600D01*
X135034157Y-59469823D01*
X135095382Y-59525313D01*
X135150873Y-59586538D01*
X135200095Y-59652907D01*
X135242575Y-59723781D01*
X135277904Y-59798477D01*
X135305741Y-59876276D01*
X135325819Y-59956430D01*
X135337943Y-60038165D01*
X135341997Y-60120695D01*
X135341997Y-60234694D01*
X135341997Y-60669715D01*
X135341997Y-61283942D01*
G37*
D16*
%TO.C,R7*%
X146762742Y-63727500D02*
X147237258Y-63727500D01*
X146762742Y-64772500D02*
X147237258Y-64772500D01*
%TO.C,R6*%
X155737742Y-67427500D02*
X156212258Y-67427500D01*
X155737742Y-68472500D02*
X156212258Y-68472500D01*
%TO.C,C2*%
X160190000Y-85859420D02*
X160190000Y-86140580D01*
X161210000Y-85859420D02*
X161210000Y-86140580D01*
%TO.C,Q1*%
X149190000Y-61250000D02*
X149190000Y-60600000D01*
X149190000Y-61250000D02*
X149190000Y-61900000D01*
X152310000Y-61250000D02*
X152310000Y-60600000D01*
X152310000Y-61250000D02*
X152310000Y-61900000D01*
X149240000Y-62412500D02*
X148910000Y-62652500D01*
X148910000Y-62172500D01*
X149240000Y-62412500D01*
G36*
X149240000Y-62412500D02*
G01*
X148910000Y-62652500D01*
X148910000Y-62172500D01*
X149240000Y-62412500D01*
G37*
%TO.C,R4*%
X152952500Y-63212742D02*
X152952500Y-63687258D01*
X153997500Y-63212742D02*
X153997500Y-63687258D01*
%TO.C,Q2*%
X145490000Y-61250000D02*
X145490000Y-60600000D01*
X145490000Y-61250000D02*
X145490000Y-61900000D01*
X148610000Y-61250000D02*
X148610000Y-60600000D01*
X148610000Y-61250000D02*
X148610000Y-61900000D01*
X145540000Y-62412500D02*
X145210000Y-62652500D01*
X145210000Y-62172500D01*
X145540000Y-62412500D01*
G36*
X145540000Y-62412500D02*
G01*
X145210000Y-62652500D01*
X145210000Y-62172500D01*
X145540000Y-62412500D01*
G37*
%TO.C,SW1*%
D11*
X151500000Y-104000000D02*
X160500000Y-104000000D01*
X160500000Y-113000000D01*
X151500000Y-113000000D01*
X151500000Y-104000000D01*
X154500000Y-107000000D02*
X157500000Y-107000000D01*
X157500000Y-110000000D01*
X154500000Y-110000000D01*
X154500000Y-107000000D01*
X157200000Y-108500000D02*
G75*
G02*
X154800000Y-108500000I-1200000J0D01*
G01*
X154800000Y-108500000D02*
G75*
G02*
X157200000Y-108500000I1200000J0D01*
G01*
X158500000Y-108500000D02*
G75*
G02*
X153500000Y-108500000I-2500000J0D01*
G01*
X153500000Y-108500000D02*
G75*
G02*
X158500000Y-108500000I2500000J0D01*
G01*
X159200000Y-108500000D02*
G75*
G02*
X152800000Y-108500000I-3200000J0D01*
G01*
X152800000Y-108500000D02*
G75*
G02*
X159200000Y-108500000I3200000J0D01*
G01*
D16*
%TO.C,R3*%
X159462258Y-67427500D02*
X158987742Y-67427500D01*
X159462258Y-68472500D02*
X158987742Y-68472500D01*
%TO.C,R8*%
X138987258Y-67227500D02*
X138512742Y-67227500D01*
X138987258Y-68272500D02*
X138512742Y-68272500D01*
%TO.C,R11*%
X151462742Y-67077500D02*
X151937258Y-67077500D01*
X151462742Y-68122500D02*
X151937258Y-68122500D01*
%TD*%
M02*
