M48
; DRILL file {KiCad 8.0.4} date 2025-01-19T21:14:31+0100
; FORMAT={-:-/ absolute / inch / decimal}
; #@! TF.CreationDate,2025-01-19T21:14:31+01:00
; #@! TF.GenerationSoftware,Kicad,Pcbnew,8.0.4
; #@! TF.FileFunction,MixedPlating,1,2
FMAT,2
INCH
; #@! TA.AperFunction,Plated,PTH,ViaDrill
T1C0.0118
; #@! TA.AperFunction,Plated,PTH,ComponentDrill
T2C0.0354
; #@! TA.AperFunction,Plated,PTH,ComponentDrill
T3C0.0394
; #@! TA.AperFunction,Plated,PTH,ComponentDrill
T4C0.0512
; #@! TA.AperFunction,Plated,PTH,ComponentDrill
T5C0.0551
; #@! TA.AperFunction,Plated,PTH,ComponentDrill
T6C0.0945
; #@! TA.AperFunction,NonPlated,NPTH,ComponentDrill
T7C0.0453
; #@! TA.AperFunction,NonPlated,NPTH,ComponentDrill
T8C0.0591
; #@! TA.AperFunction,NonPlated,NPTH,ComponentDrill
T9C0.0689
; #@! TA.AperFunction,NonPlated,NPTH,ComponentDrill
T10C0.1260
%
G90
G05
T1
X4.378Y-3.7205
X4.3819Y-2.9252
X4.3858Y-4.0354
X4.3898Y-3.2874
X4.4724Y-2.5551
X4.4764Y-4.4685
X4.6496Y-3.4882
X4.9764Y-4.4685
X4.9882Y-2.5394
X5.0709Y-3.4882
X5.2756Y-3.7795
X5.2874Y-3.315
X5.3287Y-3.315
X5.4528Y-3.4547
X5.7598Y-2.5906
X5.8386Y-2.3937
X5.874Y-3.3383
X5.8937Y-3.311
X5.9843Y-2.3937
X5.9961Y-3.4685
X6.0394Y-3.5846
X6.1299Y-3.811
X6.1417Y-2.6457
X6.1614Y-3.2402
X6.1614Y-3.5276
X6.1654Y-2.563
X6.1693Y-2.4961
X6.1988Y-3.6654
X6.2047Y-2.6417
X6.2087Y-2.4213
X6.2933Y-3.5709
X6.3268Y-3.4646
X6.3622Y-2.5
X6.3898Y-3.4724
X6.4252Y-3.4724
X6.4902Y-3.689
X6.4969Y-3.9773
X6.5224Y-4.2305
X6.5261Y-4.0065
X6.5315Y-3.7992
X6.553Y-4.2611
X6.5768Y-3.7539
X6.5823Y-4.2903
X6.5906Y-3.811
T2
X5.4118Y-2.5
X5.5118Y-2.5
X6.6713Y-2.5
X6.7713Y-2.5
T3
X7.2047Y-2.9636
X7.2047Y-3.062
T4
X7.2441Y-3.5925
X7.2441Y-3.8878
T5
X4.5921Y-2.9102
X4.5921Y-3.3102
X4.5921Y-3.6602
X4.5921Y-4.0602
X4.9921Y-2.9102
X4.9921Y-3.3102
X4.9921Y-3.6602
X4.9921Y-4.0602
T6
X4.8425Y-3.1102
X4.8425Y-3.8602
T7
X6.2598Y-4.4035
T8
X7.3622Y-2.9606
X7.3622Y-3.063
T9
X6.0236Y-4.1398
T10
X4.7244Y-2.5394
X4.7244Y-4.4685
X5.5315Y-2.9528
X6.7913Y-3.8189
X7.2047Y-2.5394
X7.2047Y-4.4685
M30
