%TF.GenerationSoftware,KiCad,Pcbnew,8.0.4*%
%TF.CreationDate,2025-01-19T21:14:29+01:00*%
%TF.ProjectId,PortableVoltageStandard,506f7274-6162-46c6-9556-6f6c74616765,1.0*%
%TF.SameCoordinates,Original*%
%TF.FileFunction,Paste,Top*%
%TF.FilePolarity,Positive*%
%FSLAX46Y46*%
G04 Gerber Fmt 4.6, Leading zero omitted, Abs format (unit mm)*
G04 Created by KiCad (PCBNEW 8.0.4) date 2025-01-19 21:14:29*
%MOMM*%
%LPD*%
G01*
G04 APERTURE LIST*
G04 Aperture macros list*
%AMRoundRect*
0 Rectangle with rounded corners*
0 $1 Rounding radius*
0 $2 $3 $4 $5 $6 $7 $8 $9 X,Y pos of 4 corners*
0 Add a 4 corners polygon primitive as box body*
4,1,4,$2,$3,$4,$5,$6,$7,$8,$9,$2,$3,0*
0 Add four circle primitives for the rounded corners*
1,1,$1+$1,$2,$3*
1,1,$1+$1,$4,$5*
1,1,$1+$1,$6,$7*
1,1,$1+$1,$8,$9*
0 Add four rect primitives between the rounded corners*
20,1,$1+$1,$2,$3,$4,$5,0*
20,1,$1+$1,$4,$5,$6,$7,0*
20,1,$1+$1,$6,$7,$8,$9,0*
20,1,$1+$1,$8,$9,$2,$3,0*%
G04 Aperture macros list end*
%ADD10RoundRect,0.175000X0.575000X-0.175000X0.575000X0.175000X-0.575000X0.175000X-0.575000X-0.175000X0*%
%ADD11RoundRect,0.175000X0.175000X-0.575000X0.175000X0.575000X-0.175000X0.575000X-0.175000X-0.575000X0*%
%ADD12RoundRect,0.175000X-0.575000X-0.175000X0.575000X-0.175000X0.575000X0.175000X-0.575000X0.175000X0*%
%ADD13RoundRect,0.175000X0.175000X-1.075000X0.175000X1.075000X-0.175000X1.075000X-0.175000X-1.075000X0*%
%ADD14RoundRect,0.250000X-0.475000X0.250000X-0.475000X-0.250000X0.475000X-0.250000X0.475000X0.250000X0*%
%ADD15RoundRect,0.225000X0.225000X0.250000X-0.225000X0.250000X-0.225000X-0.250000X0.225000X-0.250000X0*%
%ADD16RoundRect,0.150000X0.587500X0.150000X-0.587500X0.150000X-0.587500X-0.150000X0.587500X-0.150000X0*%
%ADD17RoundRect,0.150000X-0.587500X-0.150000X0.587500X-0.150000X0.587500X0.150000X-0.587500X0.150000X0*%
%ADD18RoundRect,0.200000X-0.200000X-0.275000X0.200000X-0.275000X0.200000X0.275000X-0.200000X0.275000X0*%
%ADD19RoundRect,0.250000X0.494975X1.272792X-1.272792X-0.494975X-0.494975X-1.272792X1.272792X0.494975X0*%
%ADD20RoundRect,0.150000X-0.512500X-0.150000X0.512500X-0.150000X0.512500X0.150000X-0.512500X0.150000X0*%
%ADD21RoundRect,0.200000X0.275000X-0.200000X0.275000X0.200000X-0.275000X0.200000X-0.275000X-0.200000X0*%
%ADD22RoundRect,0.225000X-0.250000X0.225000X-0.250000X-0.225000X0.250000X-0.225000X0.250000X0.225000X0*%
%ADD23RoundRect,0.200000X0.200000X0.275000X-0.200000X0.275000X-0.200000X-0.275000X0.200000X-0.275000X0*%
%ADD24RoundRect,0.250000X-0.300000X0.300000X-0.300000X-0.300000X0.300000X-0.300000X0.300000X0.300000X0*%
%ADD25RoundRect,0.250000X-0.159099X0.512652X-0.512652X0.159099X0.159099X-0.512652X0.512652X-0.159099X0*%
%ADD26RoundRect,0.200000X-0.275000X0.200000X-0.275000X-0.200000X0.275000X-0.200000X0.275000X0.200000X0*%
%ADD27RoundRect,0.150000X0.150000X-0.587500X0.150000X0.587500X-0.150000X0.587500X-0.150000X-0.587500X0*%
%ADD28RoundRect,0.240000X0.960000X-1.160000X0.960000X1.160000X-0.960000X1.160000X-0.960000X-1.160000X0*%
%ADD29RoundRect,0.160000X0.640000X-0.690000X0.640000X0.690000X-0.640000X0.690000X-0.640000X-0.690000X0*%
G04 APERTURE END LIST*
D10*
%TO.C,U1*%
X154350000Y-84730000D03*
X154350000Y-86000000D03*
X154350000Y-87270000D03*
D11*
X156500000Y-88150000D03*
D12*
X158650000Y-87270000D03*
X158650000Y-86000000D03*
X158650000Y-84730000D03*
D13*
X156500000Y-84250000D03*
%TD*%
D14*
%TO.C,C3*%
X162800000Y-85050000D03*
X162800000Y-86950000D03*
%TD*%
D15*
%TO.C,C5*%
X160000000Y-66200000D03*
X158450000Y-66200000D03*
%TD*%
D16*
%TO.C,Q3*%
X148037500Y-67850000D03*
X148037500Y-65950000D03*
X146162500Y-66900000D03*
%TD*%
D14*
%TO.C,C7*%
X134800000Y-80950000D03*
X134800000Y-82850000D03*
%TD*%
D17*
%TO.C,U3*%
X161600000Y-62500000D03*
X161600000Y-64400000D03*
X163475000Y-63450000D03*
%TD*%
D18*
%TO.C,R5*%
X155150000Y-66200000D03*
X156800000Y-66200000D03*
%TD*%
%TO.C,R9*%
X169675000Y-67750000D03*
X171325000Y-67750000D03*
%TD*%
D19*
%TO.C,C4*%
X171361270Y-103388730D03*
X168250000Y-106500000D03*
%TD*%
D20*
%TO.C,U2*%
X155450000Y-62450000D03*
X155450000Y-63400000D03*
X155450000Y-64350000D03*
X157725000Y-64350000D03*
X157725000Y-62450000D03*
%TD*%
D21*
%TO.C,R10*%
X151750000Y-65900000D03*
X151750000Y-64250000D03*
%TD*%
D22*
%TO.C,C6*%
X159600000Y-62625000D03*
X159600000Y-64175000D03*
%TD*%
D23*
%TO.C,R2*%
X163300000Y-66200000D03*
X161650000Y-66200000D03*
%TD*%
D24*
%TO.C,D1*%
X183000000Y-82100000D03*
X183000000Y-84900000D03*
%TD*%
D25*
%TO.C,C8*%
X167671751Y-99078249D03*
X166328249Y-100421751D03*
%TD*%
D26*
%TO.C,R12*%
X150000000Y-64250000D03*
X150000000Y-65900000D03*
%TD*%
D21*
%TO.C,R1*%
X165400000Y-64225000D03*
X165400000Y-62575000D03*
%TD*%
D22*
%TO.C,C1*%
X152250000Y-85425000D03*
X152250000Y-86975000D03*
%TD*%
D18*
%TO.C,R7*%
X146175000Y-64250000D03*
X147825000Y-64250000D03*
%TD*%
%TO.C,R6*%
X155150000Y-67950000D03*
X156800000Y-67950000D03*
%TD*%
D22*
%TO.C,C2*%
X160700000Y-85225000D03*
X160700000Y-86775000D03*
%TD*%
D27*
%TO.C,Q1*%
X149800000Y-62187500D03*
X151700000Y-62187500D03*
X150750000Y-60312500D03*
%TD*%
D26*
%TO.C,R4*%
X153475000Y-62625000D03*
X153475000Y-64275000D03*
%TD*%
D27*
%TO.C,Q2*%
X146100000Y-62187500D03*
X148000000Y-62187500D03*
X147050000Y-60312500D03*
%TD*%
D28*
%TO.C,SW1*%
X162800000Y-106200000D03*
X149200000Y-106200000D03*
X149200000Y-110800000D03*
X162800000Y-110800000D03*
D29*
X155050000Y-114350000D03*
X156950000Y-102850000D03*
%TD*%
D23*
%TO.C,R3*%
X160050000Y-67950000D03*
X158400000Y-67950000D03*
%TD*%
%TO.C,R8*%
X139575000Y-67750000D03*
X137925000Y-67750000D03*
%TD*%
D18*
%TO.C,R11*%
X150875000Y-67600000D03*
X152525000Y-67600000D03*
%TD*%
M02*
